<?xml version="1.0" encoding="UTF-8"?>
<svg width="456px" height="170px" viewBox="0 0 456 170" version="1.1" xmlns="http://www.w3.org/2000/svg" xmlns:xlink="http://www.w3.org/1999/xlink">
    <!-- Generator: Sketch 60 (88103) - https://sketch.com -->
    <title>Group 3</title>
    <desc>Created with Sketch.</desc>
    <g id="Site-map" stroke="none" stroke-width="1" fill="none" fill-rule="evenodd">
        <g id="Patterns---Search-&amp;-Refine" transform="translate(-454.000000, -813.000000)">
            <g id="Pattern-Section" transform="translate(450.000000, 757.000000)">
                <g id="Group-3" transform="translate(0.000000, 53.000000)">
                    <rect id="Rectangle" stroke="#E2E2E2" stroke-width="2" transform="translate(70.996429, 70.500000) rotate(45.000000) translate(-70.996429, -70.500000) " x="21.4964287" y="21" width="99" height="99" rx="12"></rect>
                    <text id="Invocation" opacity="0.801232329" font-family="SegoeUI-Semilight, Segoe UI" font-size="16" font-weight="300" letter-spacing="-0.4" fill="#0078D4">
                        <tspan x="36.90625" y="77">Invocation</tspan>
                    </text>
                    <rect id="Rectangle-Copy-3" stroke="#E2E2E2" stroke-width="2" x="338" y="10" width="121" height="121" rx="60.5"></rect>
                    <text id="Refine" opacity="0.801232329" font-family="SegoeUI-Semilight, Segoe UI" font-size="16" font-weight="300" letter-spacing="-0.4" fill="#0078D4">
                        <tspan x="378.54375" y="77">Refine</tspan>
                    </text>
                    <path id="Line" d="M151.496429,66 L160.496429,70.5 L151.496429,75 L151.496,71 L144.496429,71 L144.496429,70 L151.496,70 L151.496429,66 Z" fill="#A8A8A8" fill-rule="nonzero"></path>
                    <rect id="Rectangle-Copy" stroke="#E2E2E2" stroke-width="2" transform="translate(237.003571, 70.003571) rotate(45.000000) translate(-237.003571, -70.003571) " x="187.503571" y="20.5035713" width="99" height="99" rx="12"></rect>
                    <text id="Summary-or-Answer" opacity="0.801232329" font-family="SegoeUI-Semilight, Segoe UI" font-size="16" font-weight="300" letter-spacing="-0.4">
                        <tspan x="206.134375" y="56" fill="#0078D4">Summary </tspan>
                        <tspan x="230.603125" y="77" fill="#000000">or</tspan>
                        <tspan x="244.396875" y="77" fill="#0078D4"></tspan>
                        <tspan x="213.578906" y="98" fill="#0078D4">Answer</tspan>
                    </text>
                    <path id="Line-Copy" d="M318.5,65.5 L327.5,70 L318.5,74.5 L318.5,70.5 L311.5,70.5 L311.5,69.5 L318.5,69.5 L318.5,65.5 Z" fill="#A8A8A8" fill-rule="nonzero"></path>
                    <path id="Path-2" d="M250.958273,139.581595 L259.513312,144.878888 L256.143,146.957 L256.173521,146.998885 C268.147478,163.327844 287.94215,171.5 315.61039,171.5 C347.091903,171.5 368.380017,160.92271 379.557944,139.773504 L380.442056,140.240781 C369.074528,161.748719 347.436236,172.5 315.61039,172.5 C287.646516,172.5 267.547714,164.201743 255.366838,147.589876 L255.29,147.484 L251.853462,149.604002 L250.958273,139.581595 Z" fill="#A8A8A8" fill-rule="nonzero"></path>
                </g>
            </g>
        </g>
    </g>
</svg>