<?xml version="1.0" encoding="UTF-8"?>
<svg width="453px" height="134px" viewBox="0 0 453 134" version="1.1" xmlns="http://www.w3.org/2000/svg" xmlns:xlink="http://www.w3.org/1999/xlink">
    <!-- Generator: Sketch 60 (88103) - https://sketch.com -->
    <title>Group 3</title>
    <desc>Created with Sketch.</desc>
    <g id="Site-map" stroke="none" stroke-width="1" fill="none" fill-rule="evenodd">
        <g id="Patterns---Simple-Recall" transform="translate(-454.000000, -849.000000)">
            <g id="Pattern-Section" transform="translate(450.000000, 793.000000)">
                <g id="Group-3" transform="translate(0.000000, 53.000000)">
                    <rect id="Rectangle" stroke="#E2E2E2" stroke-width="2" transform="translate(70.996429, 70.500000) rotate(45.000000) translate(-70.996429, -70.500000) " x="21.4964287" y="21" width="99" height="99" rx="12"></rect>
                    <text id="Invocation" opacity="0.801232329" font-family="SegoeUI-Semilight, Segoe UI" font-size="16" font-weight="300" letter-spacing="-0.4" fill="#0078D4">
                        <tspan x="36.90625" y="77">Invocation</tspan>
                    </text>
                    <rect id="Rectangle-Copy" stroke="#E2E2E2" stroke-width="2" transform="translate(390.003571, 70.003571) rotate(45.000000) translate(-390.003571, -70.003571) " x="340.503571" y="20.5035713" width="99" height="99" rx="12"></rect>
                    <text id="Summary-or-Answer" opacity="0.801232329" font-family="SegoeUI-Semilight, Segoe UI" font-size="16" font-weight="300" letter-spacing="-0.4">
                        <tspan x="359.134375" y="56" fill="#0078D4">Summary </tspan>
                        <tspan x="383.603125" y="77" fill="#000000">or</tspan>
                        <tspan x="397.396875" y="77" fill="#0078D4"></tspan>
                        <tspan x="366.578906" y="98" fill="#0078D4">Answer</tspan>
                    </text>
                    <rect id="Rectangle-Copy-3" stroke="#E2E2E2" stroke-width="2" x="169.496429" y="10" width="121" height="121" rx="60.5"></rect>
                    <text id="Disambiguate" opacity="0.801232329" font-family="SegoeUI-Semilight, Segoe UI" font-size="16" font-weight="300" letter-spacing="-0.4" fill="#0078D4">
                        <tspan x="185.142522" y="77">Disambiguate</tspan>
                    </text>
                    <path id="Line" d="M151.496429,66 L160.496429,70.5 L151.496429,75 L151.496,71 L144.496429,71 L144.496429,70 L151.496,70 L151.496429,66 Z" fill="#A8A8A8" fill-rule="nonzero"></path>
                    <path id="Line-Copy-2" d="M304.996429,66 L313.996429,70.5 L304.996429,75 L304.996,71 L297.996429,71 L297.996429,70 L304.996,70 L304.996429,66 Z" fill="#A8A8A8" fill-rule="nonzero"></path>
                </g>
            </g>
        </g>
    </g>
</svg>