<svg width="772" height="1265" viewBox="0 0 772 1265" fill="none" xmlns="http://www.w3.org/2000/svg">
<path fill-rule="evenodd" clip-rule="evenodd" d="M599.578 406L447 517.394L577.515 573.55L671.701 504.788L599.578 406Z" fill="white" fill-opacity="0.15"/>
<path fill-rule="evenodd" clip-rule="evenodd" d="M471.674 585.538L629.423 753.347L432.076 812.423L471.674 585.538Z" fill="white" fill-opacity="0.15"/>
<path fill-rule="evenodd" clip-rule="evenodd" d="M753.581 693.635L600.511 634.511L778.913 531.511L753.581 693.635Z" fill="white" fill-opacity="0.15"/>
<path fill-rule="evenodd" clip-rule="evenodd" d="M599.578 -0.00012207L447 111.394L577.515 167.55L671.701 98.7876L599.578 -0.00012207Z" fill="white" fill-opacity="0.15"/>
<path fill-rule="evenodd" clip-rule="evenodd" d="M471.674 179.538L629.423 347.347L432.076 406.423L471.674 179.538Z" fill="white" fill-opacity="0.15"/>
<path fill-rule="evenodd" clip-rule="evenodd" d="M753.581 287.635L600.511 228.511L778.913 125.511L753.581 287.635Z" fill="white" fill-opacity="0.15"/>
<path fill-rule="evenodd" clip-rule="evenodd" d="M599.578 812L447 923.394L577.515 979.55L671.701 910.788L599.578 812Z" fill="white" fill-opacity="0.15"/>
<path fill-rule="evenodd" clip-rule="evenodd" d="M471.674 991.538L629.423 1159.35L432.076 1218.42L471.674 991.538Z" fill="white" fill-opacity="0.15"/>
<path fill-rule="evenodd" clip-rule="evenodd" d="M753.581 1099.63L600.511 1040.51L778.913 937.511L753.581 1099.63Z" fill="white" fill-opacity="0.15"/>
<path fill-rule="evenodd" clip-rule="evenodd" d="M243.422 858.423L396 747.029L265.485 690.873L171.299 759.635L243.422 858.423Z" fill="white" fill-opacity="0.15"/>
<path fill-rule="evenodd" clip-rule="evenodd" d="M371.326 678.885L213.577 511.076L410.924 452L371.326 678.885Z" fill="white" fill-opacity="0.15"/>
<path fill-rule="evenodd" clip-rule="evenodd" d="M89.4203 570.788L242.49 629.912L64.0883 732.912L89.4203 570.788Z" fill="white" fill-opacity="0.15"/>
<path fill-rule="evenodd" clip-rule="evenodd" d="M243.422 1264.42L396 1153.03L265.485 1096.87L171.299 1165.64L243.422 1264.42Z" fill="white" fill-opacity="0.15"/>
<path fill-rule="evenodd" clip-rule="evenodd" d="M371.326 1084.89L213.577 917.076L410.924 858L371.326 1084.89Z" fill="white" fill-opacity="0.15"/>
<path fill-rule="evenodd" clip-rule="evenodd" d="M89.4203 976.788L242.49 1035.91L64.0883 1138.91L89.4203 976.788Z" fill="white" fill-opacity="0.15"/>
<path fill-rule="evenodd" clip-rule="evenodd" d="M243.422 452.423L396 341.029L265.485 284.873L171.299 353.635L243.422 452.423Z" fill="white" fill-opacity="0.15"/>
<path fill-rule="evenodd" clip-rule="evenodd" d="M371.326 272.885L213.577 105.076L410.924 45.9998L371.326 272.885Z" fill="white" fill-opacity="0.15"/>
<path fill-rule="evenodd" clip-rule="evenodd" d="M89.4203 164.788L242.49 223.912L64.0883 326.912L89.4203 164.788Z" fill="white" fill-opacity="0.15"/>
</svg>
