<svg width="1562" height="2242" viewBox="0 0 1562 2242" fill="none" xmlns="http://www.w3.org/2000/svg">
<path d="M596.5 359.5C596.5 392.085 570.085 418.5 537.5 418.5C504.915 418.5 478.5 392.085 478.5 359.5C478.5 326.915 504.915 300.5 537.5 300.5C570.085 300.5 596.5 326.915 596.5 359.5Z" stroke="#6FCF97" stroke-opacity="0.2" stroke-width="31"/>
<path d="M767.831 1647.26C725.597 1665.19 804.184 1731.64 761.95 1749.57C719.715 1767.5 726.05 1665 683.815 1682.92C641.581 1700.85 716.381 1769.06 677.481 1785.43C638.58 1801.79 644.754 1699.2 601.528 1717.54C558.302 1735.89 634.434 1803.7 595.48 1820.23C556.525 1836.77 558.587 1736.08 517.345 1753.59C476.104 1771.09 553.963 1839.85 511.729 1857.78" stroke="#FCEAFF" stroke-width="21"/>
<path fill-rule="evenodd" clip-rule="evenodd" d="M489.5 1156C513.524 1156 533 1136.52 533 1112.5C533 1088.48 513.524 1069 489.5 1069C465.476 1069 446 1088.48 446 1112.5C446 1136.52 465.476 1156 489.5 1156Z" fill="#CA83FC" fill-opacity="0.1"/>
<path d="M1136.9 944.492L1169.97 755.031L1301.7 895.161L1136.9 944.492Z" stroke="#FCEAFF" stroke-width="21"/>
<rect x="919" y="1129.02" width="83.3164" height="70.9158" transform="rotate(-33.17 919 1129.02)" fill="#6FCF97" fill-opacity="0.1"/>
<path fill-rule="evenodd" clip-rule="evenodd" d="M1304 1126.68L1401.29 1071.44L1399.73 1155.4L1339.67 1189.5L1304 1126.68Z" fill="#56CCF2" fill-opacity="0.2"/>
<path fill-rule="evenodd" clip-rule="evenodd" d="M1396.5 360C1420.52 360 1440 340.524 1440 316.5C1440 292.476 1420.52 273 1396.5 273C1372.48 273 1353 292.476 1353 316.5C1353 340.524 1372.48 360 1396.5 360Z" fill="#CA83FC" fill-opacity="0.1"/>
<rect x="1190" y="111.662" width="334" height="171" transform="rotate(-19.531 1190 111.662)" fill="#56CCF2" fill-opacity="0.1"/>
<path fill-rule="evenodd" clip-rule="evenodd" d="M283.545 2090.43L50.7828 2012L89.0795 2192.72L232.762 2241.14L283.545 2090.43Z" fill="#EEFAFE"/>
</svg>
