<svg width="1547" height="2963" viewBox="0 0 1547 2963" fill="none" xmlns="http://www.w3.org/2000/svg">
<rect x="243.988" width="420" height="415" transform="rotate(30.2376 243.988 0)" fill="#6FCF97" fill-opacity="0.2"/>
<rect x="950.988" y="2392" width="420" height="415" transform="rotate(30.2376 950.988 2392)" fill="#6FCF97" fill-opacity="0.2"/>
<path fill-rule="evenodd" clip-rule="evenodd" d="M1019.25 819C886.092 970.615 901.071 1201.49 1052.71 1334.67C1166.27 1434.41 1324.28 1451.07 1452.4 1389.46L1019.25 819Z" fill="#56CCF2" fill-opacity="0.15"/>
<path fill-rule="evenodd" clip-rule="evenodd" d="M742.482 2084.76C593.161 1949.03 362.067 1960.07 226.318 2109.41C124.653 2221.26 105.297 2378.95 164.709 2508.11L742.482 2084.76Z" fill="#56CCF2" fill-opacity="0.15"/>
<path fill-rule="evenodd" clip-rule="evenodd" d="M98 893.246L369.902 749L359.236 980.248L191.393 1069.29L98 893.246Z" fill="black" fill-opacity="0.05"/>
<path fill-rule="evenodd" clip-rule="evenodd" d="M1225.33 1756L1353 2036.07L1122.81 2011.54L1044 1838.66L1225.33 1756Z" fill="black" fill-opacity="0.05"/>
<path fill-rule="evenodd" clip-rule="evenodd" d="M1179 197L1346 531H1012L1179 197Z" fill="#CA83FC" fill-opacity="0.1"/>
<path fill-rule="evenodd" clip-rule="evenodd" d="M374.864 1383.22L658.881 1625.66L351.319 1755.9L374.864 1383.22Z" fill="#CA83FC" fill-opacity="0.1"/>
</svg>
