<svg width="2187" height="2857" viewBox="0 0 2187 2857" fill="none" xmlns="http://www.w3.org/2000/svg">
<path d="M992.5 2498C992.5 2523.68 971.681 2544.5 946 2544.5C920.319 2544.5 899.5 2523.68 899.5 2498C899.5 2472.32 920.319 2451.5 946 2451.5C971.681 2451.5 992.5 2472.32 992.5 2498Z" stroke="white" stroke-opacity="0.1" stroke-width="31"/>
<path d="M992.5 1544C992.5 1569.68 971.681 1590.5 946 1590.5C920.319 1590.5 899.5 1569.68 899.5 1544C899.5 1518.32 920.319 1497.5 946 1497.5C971.681 1497.5 992.5 1518.32 992.5 1544Z" stroke="white" stroke-opacity="0.1" stroke-width="31"/>
<path d="M992.5 595C992.5 620.681 971.681 641.5 946 641.5C920.319 641.5 899.5 620.681 899.5 595C899.5 569.319 920.319 548.5 946 548.5C971.681 548.5 992.5 569.319 992.5 595Z" stroke="white" stroke-opacity="0.1" stroke-width="31"/>
<path fill-rule="evenodd" clip-rule="evenodd" d="M2186.04 2521.76L1937.3 2703.06L1915.11 2472.63L2068.66 2360.72L2186.04 2521.76Z" fill="white" fill-opacity="0.2"/>
<path fill-rule="evenodd" clip-rule="evenodd" d="M2186.04 1567.76L1937.3 1749.06L1915.11 1518.63L2068.66 1406.72L2186.04 1567.76Z" fill="white" fill-opacity="0.2"/>
<path fill-rule="evenodd" clip-rule="evenodd" d="M2186.04 618.763L1937.3 800.058L1915.11 569.63L2068.66 457.718L2186.04 618.763Z" fill="white" fill-opacity="0.2"/>
<rect x="995.467" y="1903" width="269" height="360" transform="rotate(45.6582 995.467 1903)" fill="white" fill-opacity="0.1"/>
<rect x="995.466" y="949" width="269" height="360" transform="rotate(45.6582 995.466 949)" fill="white" fill-opacity="0.1"/>
<rect x="995.466" width="269" height="360" transform="rotate(45.6582 995.466 0)" fill="white" fill-opacity="0.1"/>
<path fill-rule="evenodd" clip-rule="evenodd" d="M173.85 2754.5L0.000258811 2500.5L230.984 2485.15L338.3 2641.94L173.85 2754.5Z" fill="white" fill-opacity="0.2"/>
<path fill-rule="evenodd" clip-rule="evenodd" d="M173.85 1800.5L0.000258811 1546.5L230.984 1531.15L338.3 1687.94L173.85 1800.5Z" fill="white" fill-opacity="0.2"/>
<path fill-rule="evenodd" clip-rule="evenodd" d="M173.85 851.496L0.000258811 597.5L230.984 582.146L338.3 738.936L173.85 851.496Z" fill="white" fill-opacity="0.2"/>
<path d="M1578.5 2707.5C1578.5 2781.51 1518.51 2841.5 1444.5 2841.5C1370.49 2841.5 1310.5 2781.51 1310.5 2707.5C1310.5 2633.49 1370.49 2573.5 1444.5 2573.5C1518.51 2573.5 1578.5 2633.49 1578.5 2707.5Z" stroke="white" stroke-opacity="0.1" stroke-width="31"/>
<path d="M1578.5 1753.5C1578.5 1827.51 1518.51 1887.5 1444.5 1887.5C1370.49 1887.5 1310.5 1827.51 1310.5 1753.5C1310.5 1679.49 1370.49 1619.5 1444.5 1619.5C1518.51 1619.5 1578.5 1679.49 1578.5 1753.5Z" stroke="white" stroke-opacity="0.1" stroke-width="31"/>
<path d="M1578.5 804.5C1578.5 878.506 1518.51 938.5 1444.5 938.5C1370.49 938.5 1310.5 878.506 1310.5 804.5C1310.5 730.494 1370.49 670.5 1444.5 670.5C1518.51 670.5 1578.5 730.494 1578.5 804.5Z" stroke="white" stroke-opacity="0.1" stroke-width="31"/>
<path d="M1864.25 2039.11C1846.5 2081.42 1949.17 2074.19 1931.42 2116.5C1913.68 2158.81 1846.69 2080.97 1828.95 2123.28C1811.2 2165.59 1912.38 2162.26 1895.93 2201.12C1879.49 2239.99 1812.32 2162.19 1794.16 2205.5C1776 2248.8 1877.85 2244.25 1861.48 2283.28C1845.11 2322.3 1776.33 2248.74 1759.01 2290.05C1741.68 2331.37 1845.43 2326.3 1827.69 2368.61" stroke="white" stroke-opacity="0.2" stroke-width="21"/>
<path d="M1864.24 1085.11C1846.5 1127.42 1949.16 1120.19 1931.42 1162.5C1913.68 1204.81 1846.69 1126.97 1828.95 1169.28C1811.2 1211.59 1912.38 1208.26 1895.93 1247.12C1879.49 1285.99 1812.32 1208.19 1794.16 1251.5C1776 1294.8 1877.85 1290.25 1861.48 1329.28C1845.11 1368.3 1776.33 1294.74 1759.01 1336.05C1741.68 1377.37 1845.43 1372.3 1827.69 1414.61" stroke="white" stroke-opacity="0.2" stroke-width="21"/>
<path d="M1864.24 136.109C1846.5 178.421 1949.16 171.189 1931.42 213.501C1913.68 255.813 1846.69 177.968 1828.95 220.279C1811.2 262.591 1912.38 259.257 1895.93 298.124C1879.49 336.991 1812.32 259.191 1794.16 302.496C1776 345.802 1877.85 341.249 1861.48 380.275C1845.11 419.301 1776.33 345.737 1759.01 387.054C1741.68 428.371 1845.43 423.298 1827.69 465.609" stroke="white" stroke-opacity="0.2" stroke-width="21"/>
<path d="M183.77 2336.73L481.092 2122.96L473.718 2489.08L183.77 2336.73Z" stroke="white" stroke-opacity="0.2" stroke-width="24"/>
<path d="M183.77 1382.73L481.092 1168.96L473.718 1535.08L183.77 1382.73Z" stroke="white" stroke-opacity="0.2" stroke-width="24"/>
<path d="M183.77 433.733L481.092 219.958L473.718 586.081L183.77 433.733Z" stroke="white" stroke-opacity="0.2" stroke-width="24"/>
</svg>
