<svg width="254" height="72" viewBox="0 0 254 72" fill="none" xmlns="http://www.w3.org/2000/svg">
<path opacity="0.8" d="M235.174 54C245.292 54 253.493 62.0589 253.493 72H216.855C216.855 62.0589 225.057 54 235.174 54Z" fill="white"/>
<path opacity="0.8" d="M144.075 18C173.88 18 198.042 42.1766 198.042 72H90.109C90.109 42.1766 114.271 18 144.075 18Z" fill="white"/>
<path opacity="0.7" d="M235.174 54C245.292 54 253.493 62.0589 253.493 72H216.855C216.855 62.0589 225.057 54 235.174 54Z" fill="black"/>
<path opacity="0.8" d="M198.537 36C218.498 36 234.68 52.1178 234.68 72H162.394C162.394 52.1178 178.576 36 198.537 36Z" fill="white"/>
<path opacity="0.7" d="M144.075 18C173.88 18 198.042 42.1766 198.042 72H90.109C90.109 42.1766 114.271 18 144.075 18Z" fill="black"/>
<path opacity="0.8" d="M71.7907 0C111.439 0 143.581 32.2355 143.581 72H0.000427246C0.000427246 32.2355 32.142 0 71.7907 0Z" fill="white"/>
</svg>
