<svg width="204" height="70" viewBox="0 0 204 70" fill="none" xmlns="http://www.w3.org/2000/svg">
<ellipse cx="101.99" cy="35" rx="34.6574" ry="35" fill="white" fill-opacity="0.7"/>
<ellipse cx="101.99" cy="35" rx="34.6574" ry="35" fill="black" fill-opacity="0.7"/>
<path opacity="0.8" fill-rule="evenodd" clip-rule="evenodd" d="M57.4316 6C41.5722 6 28.7155 18.9837 28.7155 35C28.7155 51.0163 41.5722 64 57.4316 64L57.4316 6Z" fill="white"/>
<path opacity="0.8" fill-rule="evenodd" clip-rule="evenodd" d="M183.473 55.7144C194.801 55.7144 203.984 46.4403 203.984 35C203.984 23.5598 194.801 14.2856 183.473 14.2856L183.473 55.7144Z" fill="white"/>
<path opacity="0.8" fill-rule="evenodd" clip-rule="evenodd" d="M20.5117 14.2857C9.18352 14.2857 0.000203055 23.5598 0.000202065 35C0.000201074 46.4402 9.18352 55.7143 20.5117 55.7143L20.5117 14.2857Z" fill="white"/>
<path opacity="0.8" fill-rule="evenodd" clip-rule="evenodd" d="M146.551 64.0002C162.41 64.0002 175.267 51.0165 175.267 35.0001C175.267 18.9838 162.41 6 146.551 6L146.551 64.0002Z" fill="white"/>
</svg>
