<svg width="200" height="86" viewBox="0 0 200 86" fill="none" xmlns="http://www.w3.org/2000/svg">
<path d="M179.7 25.9599C179.7 25.9599 144.07 2 100.118 2C56.1668 2 20.5371 25.9599 20.5371 25.9599" stroke="white" stroke-opacity="0.7" stroke-width="4"/>
<path opacity="0.7" d="M29.1245 55.4879C29.1245 39.18 16.0854 25.9598 0.00094986 25.9598L0.000947278 85.0159C16.0854 85.0159 29.1245 71.7958 29.1245 55.4879Z" fill="white"/>
<path opacity="0.7" d="M29.1235 55.4759C29.1235 39.168 16.0845 25.9478 -2.67029e-05 25.9478L-2.92843e-05 85.0039C16.0845 85.0039 29.1235 71.7838 29.1235 55.4759Z" fill="black"/>
<path opacity="0.7" d="M170.287 55.488C170.287 71.7959 183.326 85.016 199.41 85.016L199.41 25.9599C183.326 25.9599 170.287 39.1801 170.287 55.488Z" fill="white"/>
<path opacity="0.7" d="M170.287 55.5C170.287 71.8079 183.326 85.028 199.411 85.028L199.411 25.9719C183.326 25.9719 170.287 39.1921 170.287 55.5Z" fill="black"/>
<ellipse opacity="0.8" cx="99.6901" cy="55.482" rx="18.3978" ry="18.3978" transform="rotate(180 99.6901 55.482)" fill="white"/>
<rect opacity="0.8" x="55.186" y="37.8856" width="24.7982" height="24.7982" transform="rotate(45 55.186 37.8856)" fill="white"/>
<rect opacity="0.8" x="144.18" y="37.8856" width="24.7982" height="24.7982" transform="rotate(45 144.18 37.8856)" fill="white"/>
</svg>
