<svg width="621" height="643" viewBox="0 0 621 643" fill="none" xmlns="http://www.w3.org/2000/svg">
<path d="M417.163 376.838C452.954 376.838 481.969 347.821 481.969 312.027C481.969 276.233 452.954 247.216 417.163 247.216C381.372 247.216 352.358 276.233 352.358 312.027C352.358 347.821 381.372 376.838 417.163 376.838Z" fill="#BEB4A8"/>
<path d="M417.653 453.679C453.444 453.679 482.459 424.662 482.459 388.868C482.459 353.073 453.444 324.056 417.653 324.056C381.862 324.056 352.848 353.073 352.848 388.868C352.848 424.662 381.862 453.679 417.653 453.679Z" fill="#CCCACA"/>
<path d="M417.9 502.778C449.353 502.778 474.85 477.278 474.85 445.823C474.85 414.367 449.353 388.867 417.9 388.867C386.447 388.867 360.95 414.367 360.95 445.823C360.95 477.278 386.447 502.778 417.9 502.778Z" fill="#CCCACA"/>
<path d="M418.39 609.079C443.064 609.079 463.067 589.075 463.067 564.398C463.067 539.722 443.064 519.718 418.39 519.718C393.716 519.718 373.714 539.722 373.714 564.398C373.714 589.075 393.716 609.079 418.39 609.079Z" fill="#CCCACA"/>
<path d="M418.39 565.626C449.707 565.626 475.095 540.236 475.095 508.916C475.095 477.596 449.707 452.206 418.39 452.206C387.073 452.206 361.686 477.596 361.686 508.916C361.686 540.236 387.073 565.626 418.39 565.626Z" fill="#CCCACA"/>
<path d="M441.957 609.57C450.633 609.57 457.667 602.535 457.667 593.858C457.667 585.18 450.633 578.146 441.957 578.146C433.28 578.146 426.246 585.18 426.246 593.858C426.246 602.535 433.28 609.57 441.957 609.57Z" fill="#E0D9D9"/>
<path d="M463.066 596.313C471.743 596.313 478.777 589.279 478.777 580.601C478.777 571.924 471.743 564.889 463.066 564.889C454.39 564.889 447.356 571.924 447.356 580.601C447.356 589.279 454.39 596.313 463.066 596.313Z" fill="#E0D9D9"/>
<path d="M416.917 615.461C425.594 615.461 432.628 608.427 432.628 599.75C432.628 591.072 425.594 584.038 416.917 584.038C408.241 584.038 401.207 591.072 401.207 599.75C401.207 608.427 408.241 615.461 416.917 615.461Z" fill="#E0D9D9"/>
<path d="M252.695 446.314C288.486 446.314 317.5 417.297 317.5 381.503C317.5 345.708 288.486 316.691 252.695 316.691C216.904 316.691 187.89 345.708 187.89 381.503C187.89 417.297 216.904 446.314 252.695 446.314Z" fill="#BEB4A8"/>
<path d="M304.149 443.39C306.964 412.06 283.851 384.38 252.524 381.565C221.197 378.749 193.519 401.865 190.704 433.195C187.889 464.525 211.003 492.205 242.33 495.02C273.657 497.835 301.334 474.72 304.149 443.39Z" fill="#BEB4A8"/>
<path d="M281.061 560.454C283.27 535.876 265.137 514.162 240.562 511.953C215.987 509.745 194.274 527.879 192.066 552.456C189.858 577.034 207.99 598.749 232.565 600.957C257.14 603.166 278.853 585.032 281.061 560.454Z" fill="#CCCACA"/>
<path d="M228.393 557.524C259.71 557.524 285.098 532.134 285.098 500.814C285.098 469.494 259.71 444.104 228.393 444.104C197.076 444.104 171.688 469.494 171.688 500.814C171.688 532.134 197.076 557.524 228.393 557.524Z" fill="#BEB4A8"/>
<path d="M259.078 607.115C267.754 607.115 274.788 600.08 274.788 591.403C274.788 582.725 267.754 575.691 259.078 575.691C250.401 575.691 243.367 582.725 243.367 591.403C243.367 600.08 250.401 607.115 259.078 607.115Z" fill="#E0D9D9"/>
<path d="M281.17 596.313C289.847 596.313 296.881 589.279 296.881 580.601C296.881 571.924 289.847 564.889 281.17 564.889C272.494 564.889 265.46 571.924 265.46 580.601C265.46 589.279 272.494 596.313 281.17 596.313Z" fill="#E0D9D9"/>
<path d="M236.985 612.025C245.661 612.025 252.695 604.99 252.695 596.313C252.695 587.635 245.661 580.601 236.985 580.601C228.308 580.601 221.274 587.635 221.274 596.313C221.274 604.99 228.308 612.025 236.985 612.025Z" fill="#E0D9D9"/>
<path d="M91.6626 458.343C117.964 458.343 139.285 437.02 139.285 410.717C139.285 384.413 117.964 363.09 91.6626 363.09C65.3617 363.09 44.0405 384.413 44.0405 410.717C44.0405 437.02 65.3617 458.343 91.6626 458.343Z" fill="#919191"/>
<path d="M140.512 351.797C156.713 340.259 171.687 333.631 189.362 328.966C219.8 320.865 244.593 305.644 267.177 282.322C276.505 272.502 287.552 263.173 299.58 255.072C346.22 223.157 411.762 234.695 444.41 280.849C479.022 329.703 466.012 397.214 416.426 429.62C407.098 435.758 397.524 440.176 387.46 442.877C353.83 452.451 324.127 473.073 306.453 503.269C297.861 517.999 285.588 531.256 270.368 541.321C216.118 576.918 142.967 560.47 109.091 504.497C78.6525 453.679 92.6445 386.167 140.512 351.797Z" fill="#E1E1E1"/>
<path d="M374.205 445.086C437.789 445.086 489.333 393.537 489.333 329.948C489.333 266.359 437.789 214.81 374.205 214.81C310.622 214.81 259.078 266.359 259.078 329.948C259.078 393.537 310.622 445.086 374.205 445.086Z" fill="#E1E1E1"/>
<path d="M298.599 445.823C297.862 457.607 300.808 468.654 306.454 478.229C300.072 486.821 295.899 497.377 295.408 508.916C294.671 523.4 299.335 537.148 307.927 547.459C303.754 554.087 301.299 561.698 300.808 570.045C300.072 585.02 306.208 598.768 316.273 608.097C336.647 595.576 360.949 588.211 384.269 588.211C387.952 588.211 391.879 588.457 395.561 588.702C395.07 588.457 394.334 588.457 393.843 588.211C395.316 584.038 396.052 579.864 396.543 575.2C397.034 566.853 395.316 558.997 391.879 551.878C401.453 542.303 407.835 529.538 408.571 514.808C409.308 503.269 406.362 492.467 400.962 483.139C407.59 474.301 411.763 463.744 412.499 451.96C412.99 444.841 412.008 437.967 409.799 431.584C417.654 421.519 423.3 409.244 423.3 395.496C423.3 360.635 398.507 356.708 398.507 356.708C398.507 356.708 294.917 373.892 294.18 388.377C293.444 402.124 296.88 414.89 303.508 425.692C300.808 432.075 298.844 438.704 298.599 445.823Z" fill="#CCCACA"/>
<path d="M417.282 318.86C419.272 283.119 391.914 252.532 356.177 250.542C320.439 248.552 289.856 275.913 287.866 311.653C285.876 347.394 313.233 377.98 348.971 379.971C384.708 381.961 415.292 354.6 417.282 318.86Z" fill="#E1E1E1"/>
<path d="M348.43 456.871C384.221 456.871 413.236 427.854 413.236 392.059C413.236 356.265 384.221 327.248 348.43 327.248C312.639 327.248 283.625 356.265 283.625 392.059C283.625 427.854 312.639 456.871 348.43 456.871Z" fill="#E1E1E1"/>
<path d="M400.801 461.181C407.557 430.458 388.131 400.075 357.411 393.318C326.691 386.562 296.311 405.99 289.555 436.713C282.799 467.435 302.225 497.818 332.945 504.575C363.665 511.331 394.045 491.903 400.801 461.181Z" fill="#E1E1E1"/>
<path d="M338.366 620.617C364.802 620.617 386.233 599.184 386.233 572.745C386.233 546.306 364.802 524.873 338.366 524.873C311.929 524.873 290.498 546.306 290.498 572.745C290.498 599.184 311.929 620.617 338.366 620.617Z" fill="#E1E1E1"/>
<path d="M341.557 568.572C372.874 568.572 398.261 543.182 398.261 511.862C398.261 480.542 372.874 455.152 341.557 455.152C310.24 455.152 284.852 480.542 284.852 511.862C284.852 543.182 310.24 568.572 341.557 568.572Z" fill="#E1E1E1"/>
<path d="M358.74 625.773C367.416 625.773 374.45 618.738 374.45 610.061C374.45 601.384 367.416 594.349 358.74 594.349C350.063 594.349 343.029 601.384 343.029 610.061C343.029 618.738 350.063 625.773 358.74 625.773Z" fill="white"/>
<path d="M380.588 619.39C389.264 619.39 396.298 612.355 396.298 603.678C396.298 595 389.264 587.966 380.588 587.966C371.911 587.966 364.877 595 364.877 603.678C364.877 612.355 371.911 619.39 380.588 619.39Z" fill="white"/>
<path d="M336.647 627C345.324 627 352.357 619.966 352.357 611.288C352.357 602.611 345.324 595.576 336.647 595.576C327.97 595.576 320.937 602.611 320.937 611.288C320.937 619.966 327.97 627 336.647 627Z" fill="white"/>
<path d="M308.172 227.821C309.645 267.592 353.094 305.89 404.889 303.926C456.684 301.962 496.942 260.473 495.469 220.702C493.997 180.931 450.548 150.244 398.998 152.208C347.203 154.172 306.699 188.051 308.172 227.821Z" fill="#30C4EB"/>
<path d="M569.101 154.172C544.308 155.154 523.442 135.76 522.46 110.965L520.497 58.1829L565.418 56.4644C584.32 55.728 600.276 70.4578 601.012 89.3611L602.24 118.33C602.731 137.479 588.002 153.436 569.101 154.172Z" fill="#919191"/>
<path d="M408.572 277.903C485.305 277.903 547.51 215.692 547.51 138.951C547.51 62.2107 485.305 0 408.572 0C331.838 0 269.633 62.2107 269.633 138.951C269.633 215.692 331.838 277.903 408.572 277.903Z" fill="#E1E1E1"/>
<path d="M471.412 145.825C478.598 145.825 484.423 140 484.423 132.814C484.423 125.628 478.598 119.803 471.412 119.803C464.227 119.803 458.402 125.628 458.402 132.814C458.402 140 464.227 145.825 471.412 145.825Z" fill="#010101"/>
<path d="M372.732 148.771C379.918 148.771 385.742 142.946 385.742 135.76C385.742 128.574 379.918 122.749 372.732 122.749C365.547 122.749 359.722 128.574 359.722 135.76C359.722 142.946 365.547 148.771 372.732 148.771Z" fill="#010101"/>
<path d="M249.504 166.447C274.296 165.465 293.444 144.598 292.707 119.803L290.743 67.0209L245.821 68.7394C226.92 69.4758 212.191 85.4332 212.928 104.336L214.155 133.305C214.646 152.454 230.357 167.184 249.504 166.447Z" fill="#919191"/>
<path d="M230.11 591.648C228.392 590.421 226.183 589.439 224.219 589.193C224.465 588.211 224.956 586.984 225.201 586.002C225.692 584.283 225.937 582.319 226.183 580.601C229.865 578.637 233.547 576.427 236.738 573.482C258.34 555.069 262.759 523.891 248.276 500.569C283.869 474.546 292.216 424.71 266.441 388.622C256.622 374.629 242.875 364.809 227.901 359.408C203.845 350.815 176.106 353.761 153.768 369.719C117.438 395.496 108.846 446.068 134.866 482.402C137.812 486.575 141.003 490.258 144.685 493.695C146.895 495.904 149.104 497.868 151.559 499.587C151.313 500.078 150.822 500.569 150.577 501.305C145.176 510.389 142.476 520.7 142.721 531.01C142.721 533.956 142.967 536.902 143.458 539.603C141.74 541.321 140.021 543.285 138.548 545.004C124.556 562.925 124.802 588.702 140.021 606.624C141.985 609.079 144.194 611.288 146.649 613.007C147.876 613.989 148.858 614.725 150.086 615.707C151.559 616.689 152.786 617.426 154.259 618.162C154.75 620.371 161.869 615.462 163.341 617.18L230.11 591.648Z" fill="#CCCACA"/>
<path d="M246.664 487.24C278.203 455.698 278.203 404.559 246.664 373.017C215.125 341.475 163.991 341.475 132.452 373.017C100.913 404.559 100.913 455.698 132.452 487.24C163.991 518.782 215.126 518.782 246.664 487.24Z" fill="#E1E1E1"/>
<path d="M191.817 581.829C223.27 581.829 248.767 556.329 248.767 524.873C248.767 493.418 223.27 467.918 191.817 467.918C160.365 467.918 134.867 493.418 134.867 524.873C134.867 556.329 160.365 581.829 191.817 581.829Z" fill="#E1E1E1"/>
<path d="M171.196 619.635C198.31 619.635 220.291 597.652 220.291 570.536C220.291 543.419 198.31 521.436 171.196 521.436C144.082 521.436 122.101 543.419 122.101 570.536C122.101 597.652 144.082 619.635 171.196 619.635Z" fill="#E1E1E1"/>
<path d="M192.308 622.827C200.985 622.827 208.018 615.792 208.018 607.115C208.018 598.437 200.985 591.403 192.308 591.403C183.631 591.403 176.598 598.437 176.598 607.115C176.598 615.792 183.631 622.827 192.308 622.827Z" fill="white"/>
<path d="M216.12 614.48C224.796 614.48 231.83 607.445 231.83 598.768C231.83 590.09 224.796 583.056 216.12 583.056C207.443 583.056 200.409 590.09 200.409 598.768C200.409 607.445 207.443 614.48 216.12 614.48Z" fill="white"/>
<path d="M164.815 625.773C173.491 625.773 180.525 618.738 180.525 610.061C180.525 601.384 173.491 594.349 164.815 594.349C156.138 594.349 149.104 601.384 149.104 610.061C149.104 618.738 156.138 625.773 164.815 625.773Z" fill="white"/>
<path d="M426 249.425C447.149 249.425 464.294 232.279 464.294 211.128C464.294 189.976 447.149 172.83 426 172.83C404.851 172.83 387.706 189.976 387.706 211.128C387.706 232.279 404.851 249.425 426 249.425Z" fill="white"/>
<path d="M427.232 242.533C444.573 241.866 458.09 227.267 457.424 209.924C456.758 192.582 442.16 179.063 424.819 179.729C407.478 180.396 393.96 194.995 394.626 212.338C395.293 229.68 409.891 243.199 427.232 242.533Z" fill="#67254E"/>
<path d="M427.486 234.118C439.098 233.068 447.729 223.57 446.765 212.903C445.801 202.235 435.607 194.439 423.995 195.488C412.384 196.538 403.753 206.036 404.717 216.703C405.681 227.37 415.875 235.167 427.486 234.118Z" fill="#F4ABB8"/>
<path d="M79.1445 643H78.061C10.0645 643 0 615.995 0 599.792C0 563.95 42.4671 556.585 78.061 556.585H122.839V578.925H78.061C57.1956 578.925 22.3382 581.626 22.3382 599.792C22.3382 612.804 43.2036 620.66 78.061 620.66H78.6535C177.825 616.486 195.008 504.742 236.985 405.07C277.242 309.326 318.973 210.145 419.372 203.026C459.385 200.08 496.206 213.337 526.154 241.569C564.202 277.657 587.523 335.595 586.786 393.286L564.448 393.041C565.184 341.487 544.564 289.687 510.934 258.017C485.896 234.45 454.721 223.157 421.336 225.612C334.438 231.995 297.371 320.374 258.095 414.154C214.892 515.79 193.045 638.581 79.1445 643Z" fill="#30C4EB"/>
<path d="M440.729 212.846C456.998 212.846 470.186 199.657 470.186 183.386C470.186 167.116 456.998 153.927 440.729 153.927C424.46 153.927 411.272 167.116 411.272 183.386C411.272 199.657 424.46 212.846 440.729 212.846Z" fill="white"/>
<path d="M409.063 214.074C425.332 214.074 438.52 200.884 438.52 184.614C438.52 168.344 425.332 155.154 409.063 155.154C392.794 155.154 379.606 168.344 379.606 184.614C379.606 200.884 392.794 214.074 409.063 214.074Z" fill="white"/>
<path d="M437.537 151.717C444.41 151.472 449.074 159.082 445.638 164.974C441.465 172.339 433.609 177.249 424.527 177.74C415.444 178.231 407.344 173.566 402.434 166.693C398.507 161.046 402.434 153.19 409.553 152.945L437.537 151.717Z" fill="#010101"/>
<path fill-rule="evenodd" clip-rule="evenodd" d="M619.177 482.157L578.429 335.349L537.68 482.157C530.316 509.161 550.444 535.675 578.429 535.675C606.413 535.675 626.542 509.161 619.177 482.157ZM600.03 485.348L579.165 411.699L558.299 485.348C554.617 498.85 564.927 512.107 579.165 512.107C593.402 512.107 603.958 498.85 600.03 485.348Z" fill="#30C4EB"/>
</svg>
