<svg width="764" height="612" viewBox="0 0 764 612" fill="none" xmlns="http://www.w3.org/2000/svg">
<path d="M270.697 100.04C276.196 82.4019 298.727 77.3312 311.252 90.9125L540.229 339.195C552.755 352.777 545.881 374.824 527.856 378.881L198.348 453.039C180.324 457.096 164.667 440.119 170.167 422.481L270.697 100.04Z" fill="black"/>
<path d="M284.562 210.861C280.709 199.601 287.483 187.488 299.093 184.875L321.967 179.727C333.578 177.114 344.888 185.157 346.231 196.982L355.9 282.11C357.052 292.254 350.379 301.637 340.419 303.879L335.61 304.961C325.649 307.203 315.6 301.583 312.295 291.924L284.562 210.861Z" fill="#30C4EB"/>
<circle cx="348.035" cy="348.559" r="27.7488" transform="rotate(-12.6836 348.035 348.559)" fill="#30C4EB"/>
<path d="M651.956 290.03C653.776 278.268 665.402 270.689 676.897 273.77L741.912 291.19C753.408 294.27 759.686 306.647 755.382 317.742L695.033 473.304C691.34 482.822 681.071 488.031 671.21 485.389L641.028 477.301C631.166 474.659 624.878 465.014 626.439 454.924L651.956 290.03Z" fill="black" fill-opacity="0.1"/>
<circle cx="636.984" cy="553.289" r="45.6401" transform="rotate(15 636.984 553.289)" fill="black" fill-opacity="0.1"/>
<path d="M136.777 216.19C141.082 227.285 134.803 239.661 123.308 242.742L85.0285 252.999C73.5329 256.079 61.9074 248.5 60.0874 236.739L42.4046 122.47C40.8434 112.381 47.1317 102.735 56.993 100.093L71.1342 96.3036C80.9955 93.6612 91.2641 98.8704 94.9566 108.388L136.777 216.19Z" fill="black" fill-opacity="0.1"/>
<circle cx="49.4621" cy="44.1046" r="34.3501" transform="rotate(165 49.4621 44.1046)" fill="black" fill-opacity="0.1"/>
</svg>
