<svg width="526" height="541" viewBox="0 0 526 541" fill="none" xmlns="http://www.w3.org/2000/svg">
<path d="M276.825 98.2021L253.158 27.7572C250.637 20.3828 245.399 14.3668 238.416 10.8737C231.432 7.38057 223.479 6.79839 216.107 9.32121C208.736 11.844 202.722 17.0837 199.231 24.07C195.739 31.0563 195.157 39.0129 197.679 46.3873L202.334 60.3598L194.963 62.8826L190.307 48.9101C187.204 39.595 187.786 29.5038 192.247 20.5769C196.709 11.65 204.274 5.05182 213.586 1.94681C222.897 -1.1582 232.984 -0.576012 241.907 3.88744C250.831 8.35089 257.426 15.9194 260.53 25.2344L284.196 95.6793L276.825 98.2021Z" fill="#797674"/>
<path d="M108.251 171.558L90.0168 117.026C84.9731 101.695 93.1205 85.0057 108.445 79.9601C123.77 74.9144 140.453 83.0651 145.496 98.3961L146.078 99.9486C148.6 107.323 153.838 113.339 160.821 116.832C167.805 120.325 175.758 120.907 183.13 118.385C198.454 113.339 206.602 96.6495 201.558 81.3185L193.411 56.8666L200.782 54.3438L208.93 78.7957C215.331 98.202 205.05 119.161 185.651 125.565C176.34 128.67 166.253 128.088 157.33 123.624C148.406 119.161 141.811 111.592 138.707 102.277L138.125 100.919C134.439 89.6632 122.218 83.6473 110.967 87.3345C99.716 91.0217 93.7025 103.248 97.3882 114.503L115.623 169.035L108.251 171.558Z" fill="#797674"/>
<path d="M108.834 148.076L100.881 150.793C97.7768 151.763 94.285 150.211 93.3151 146.912L90.2113 138.373C89.2414 135.268 90.7933 131.775 94.091 130.805L102.044 128.088C105.148 127.117 108.64 128.67 109.61 131.969L112.52 140.508C113.684 143.613 111.938 147.106 108.834 148.076Z" fill="#777778"/>
<path d="M241.325 243.167L43.0725 309.731L7.57324 203.966C20.5702 189.606 48.892 162.243 94.0905 146.136C143.751 128.476 186.815 133.91 205.826 137.403C217.659 172.722 229.492 208.042 241.325 243.167Z" fill="#E1DFDD"/>
<path d="M129.411 235.072L110.286 241.492L114.606 254.37L133.731 247.95L129.411 235.072Z" fill="#777778"/>
<path d="M155.769 226.148L136.644 232.568L140.963 245.446L160.088 239.026L155.769 226.148Z" fill="#777778"/>
<path d="M106.7 190.382C97.0004 161.855 66.3507 146.524 37.835 156.033C14.7507 163.795 0.201875 185.725 0.783829 208.818H0.589844L9.70714 318.27C10.0951 320.792 10.6771 323.315 11.453 326.032C18.4365 346.991 41.1327 358.247 62.0831 351.26C75.274 346.797 84.5853 336.318 87.8831 323.703H88.0771L88.659 320.404V320.21L107.864 219.686C108.057 218.521 108.445 217.357 108.639 215.998L109.221 213.282H109.027C109.997 205.713 109.221 197.951 106.7 190.382Z" fill="#E1DFDD"/>
<path d="M128.62 182.037C119.115 153.51 134.44 122.848 162.761 113.145C185.846 105.382 210.676 114.115 224.255 132.939H224.449L283.226 225.701C284.584 228.03 285.554 230.359 286.524 232.882C293.507 253.841 282.256 276.546 261.306 283.532C248.115 287.996 234.342 285.085 224.061 277.128L221.539 274.799L221.345 274.605L145.497 206.101C144.527 205.325 143.751 204.549 142.781 203.578L140.647 201.638L140.841 201.444C135.216 196.398 131.142 189.606 128.62 182.037Z" fill="#E1DFDD"/>
<path d="M174.594 171.946C181.022 171.946 186.233 166.733 186.233 160.302C186.233 153.872 181.022 148.658 174.594 148.658C168.166 148.658 162.955 153.872 162.955 160.302C162.955 166.733 168.166 171.946 174.594 171.946Z" fill="url(#paint0_radial)"/>
<path d="M210.482 182.037C216.91 182.037 222.121 176.824 222.121 170.394C222.121 163.963 216.91 158.75 210.482 158.75C204.054 158.75 198.843 163.963 198.843 170.394C198.843 176.824 204.054 182.037 210.482 182.037Z" fill="#33312D"/>
<path d="M156.36 200.279C162.788 200.279 167.999 195.066 167.999 188.635C167.999 182.205 162.788 176.992 156.36 176.992C149.932 176.992 144.721 182.205 144.721 188.635C144.721 195.066 149.932 200.279 156.36 200.279Z" fill="#B285BC"/>
<path d="M188.755 214.834C195.183 214.834 200.394 209.621 200.394 203.19C200.394 196.759 195.183 191.546 188.755 191.546C182.327 191.546 177.116 196.759 177.116 203.19C177.116 209.621 182.327 214.834 188.755 214.834Z" fill="#5BBF8D"/>
<path d="M58.2032 258.498C77.2732 258.498 92.7325 243.033 92.7325 223.955C92.7325 204.877 77.2732 189.412 58.2032 189.412C39.1331 189.412 23.6738 204.877 23.6738 223.955C23.6738 243.033 39.1331 258.498 58.2032 258.498Z" fill="#C7C5C3"/>
<path d="M79.7357 208.624L63.4409 214.058L58.0093 197.756C57.4274 195.816 55.0996 194.651 53.1597 195.428L46.3702 197.756C44.4304 198.339 43.2665 200.667 44.0424 202.608L49.474 218.909L33.1793 224.343C31.2394 224.925 30.0755 227.254 30.8514 229.195L33.1793 235.987C33.7612 237.928 36.089 239.092 38.0289 238.316L54.3236 232.882L59.7552 249.183C60.3372 251.124 62.665 252.288 64.6048 251.512L71.3943 249.183C73.3342 248.601 74.4981 246.272 73.7221 244.332L68.2905 228.03L84.5853 222.597C86.5251 222.014 87.689 219.686 86.9131 217.745L84.5853 210.953C83.8093 209.012 81.6755 207.848 79.7357 208.624Z" fill="#777778"/>
<path d="M314.02 504.706C286.9 490.809 275.358 458.117 287.816 430.377L389.728 205.462C396.479 192.243 412.636 187.12 425.849 193.87L500.349 232.015C513.562 238.765 518.679 254.927 511.929 268.146L389.622 482.471C374.336 508.809 341.14 518.604 314.02 504.706Z" fill="#615E5B"/>
<path d="M451.521 235.236L415.248 216.697L408.538 229.83L444.811 248.369L451.521 235.236Z" fill="#B285BC"/>
<path d="M348.088 484.672L311.838 465.983L318.536 452.951L354.838 471.454L348.088 484.672Z" fill="url(#paint1_radial)"/>
<path d="M406.9 271.8L387.334 261.848C385.946 261.053 385.381 259.482 385.989 258.041L390.039 250.11C390.834 248.721 392.404 248.155 393.845 248.763L413.411 258.716C414.799 259.51 415.364 261.081 414.756 262.523L410.706 270.454C409.911 271.843 408.288 272.595 406.9 271.8Z" fill="#B3AFAB"/>
<path d="M437.73 287.55L418.164 277.598C416.776 276.803 416.211 275.232 416.819 273.791L420.869 265.859C421.664 264.47 423.234 263.905 424.675 264.513L444.241 274.465C445.629 275.26 446.194 276.831 445.586 278.272L441.536 286.204C440.875 287.832 439.118 288.345 437.73 287.55Z" fill="#B3AFAB"/>
<path d="M468.746 303.353L449.181 293.4C447.792 292.605 447.227 291.035 447.835 289.593L451.886 281.662C452.68 280.273 454.251 279.708 455.692 280.315L475.257 290.268C476.646 291.063 477.21 292.633 476.602 294.075L472.552 302.006C471.892 303.635 470.135 304.147 468.746 303.353Z" fill="#B3AFAB"/>
<path d="M395.198 294.713L375.633 284.76C374.244 283.966 373.68 282.395 374.288 280.953L378.338 273.022C379.133 271.633 380.703 271.068 382.144 271.676L401.709 281.628C403.098 282.423 403.663 283.994 403.055 285.435L399.004 293.367C398.396 294.808 396.639 295.321 395.198 294.713Z" fill="#B3AFAB"/>
<path d="M426.029 310.463L406.463 300.51C405.075 299.716 404.51 298.145 405.118 296.703L409.168 288.772C409.963 287.383 411.533 286.818 412.974 287.426L432.54 297.378C433.928 298.173 434.493 299.744 433.885 301.185L429.834 309.117C429.226 310.558 427.469 311.071 426.029 310.463Z" fill="#B3AFAB"/>
<path d="M457.045 326.265L437.479 316.313C436.091 315.518 435.526 313.948 436.134 312.506L440.184 304.575C440.979 303.186 442.549 302.62 443.99 303.228L463.556 313.181C464.944 313.975 465.509 315.546 464.901 316.988L460.851 324.919C460.243 326.361 458.433 327.06 457.045 326.265Z" fill="#B3AFAB"/>
<path d="M383.55 317.439L363.984 307.486C362.596 306.692 362.031 305.121 362.639 303.679L366.689 295.748C367.484 294.359 369.054 293.794 370.495 294.402L390.061 304.354C391.449 305.149 392.014 306.72 391.406 308.161L387.356 316.093C386.695 317.721 384.938 318.234 383.55 317.439Z" fill="#B3AFAB"/>
<path d="M414.328 333.376L394.763 323.423C393.374 322.628 392.809 321.058 393.417 319.616L397.468 311.685C398.262 310.296 399.833 309.73 401.274 310.338L420.839 320.291C422.228 321.086 422.793 322.656 422.184 324.098L418.134 332.029C417.526 333.471 415.769 333.984 414.328 333.376Z" fill="#B3AFAB"/>
<path d="M445.345 349.178L425.779 339.226C424.391 338.431 423.826 336.86 424.434 335.419L428.484 327.487C429.279 326.098 430.849 325.533 432.29 326.141L451.856 336.093C453.244 336.888 453.809 338.459 453.201 339.9L449.151 347.832C448.543 349.273 446.786 349.786 445.345 349.178Z" fill="#B3AFAB"/>
<path d="M479.446 268.262C484.499 269.687 489.75 266.744 491.176 261.689C492.601 256.635 489.66 251.382 484.608 249.957C479.555 248.533 474.304 251.476 472.878 256.53C471.453 261.585 474.394 266.837 479.446 268.262Z" fill="#B285BC"/>
<path d="M359.453 433.639C381.107 439.744 403.613 427.133 409.721 405.47C415.829 383.807 403.226 361.297 381.572 355.191C359.918 349.085 337.413 361.697 331.305 383.36C325.197 405.023 337.799 427.533 359.453 433.639Z" fill="#B3AFAB"/>
<path d="M365.122 415.679C376.671 418.935 388.674 412.209 391.931 400.656C395.189 389.102 388.468 377.096 376.919 373.84C365.37 370.584 353.367 377.31 350.109 388.863C346.852 400.417 353.573 412.423 365.122 415.679Z" fill="#615E5B"/>
<defs>
<radialGradient id="paint0_radial" cx="0" cy="0" r="1" gradientUnits="userSpaceOnUse" gradientTransform="translate(167.11 138.789) rotate(-18.5561) scale(45.3435 45.3581)">
<stop stop-color="#439AD5"/>
<stop offset="0.0232233" stop-color="#2DACE2"/>
<stop offset="0.0915403" stop-color="#2FAFE3"/>
<stop offset="0.3536" stop-color="#32BAE6"/>
<stop offset="0.641" stop-color="#32C1E9"/>
<stop offset="1" stop-color="#30C4EB"/>
</radialGradient>
<radialGradient id="paint1_radial" cx="0" cy="0" r="1" gradientUnits="userSpaceOnUse" gradientTransform="translate(333.277 468.761) rotate(27.0719) scale(15.3009 15.3066)">
<stop stop-color="#439AD5"/>
<stop offset="0.0232233" stop-color="#2DACE2"/>
<stop offset="0.0915403" stop-color="#2FAFE3"/>
<stop offset="0.3536" stop-color="#32BAE6"/>
<stop offset="0.641" stop-color="#32C1E9"/>
<stop offset="1" stop-color="#30C4EB"/>
</radialGradient>
</defs>
</svg>
