<svg width="427" height="858" viewBox="0 0 427 858" fill="none" xmlns="http://www.w3.org/2000/svg">
<path fill-rule="evenodd" clip-rule="evenodd" d="M361 0H66C31.2061 0 3 28.2061 3 63V115C1.34315 115 0 116.343 0 118V144C0 145.657 1.34315 147 3 147V177C1.34315 177 0 178.343 0 180V236C0 237.657 1.34315 239 3 239V255C1.34315 255 0 256.343 0 258V314C0 315.657 1.34315 317 3 317V795C3 829.794 31.2061 858 66 858H361C395.794 858 424 829.794 424 795V297C425.657 297 427 295.657 427 294V200C427 198.343 425.657 197 424 197V63C424 28.2061 395.794 0 361 0ZM8 63C8 30.9675 33.9675 5 66 5H361C393.033 5 419 30.9675 419 63V795C419 827.033 393.033 853 361 853H66C33.9675 853 8 827.033 8 795V63Z" fill="#3A3A3A"/>
<path fill-rule="evenodd" clip-rule="evenodd" d="M401 63C401 40.9 383.1 23 361 23H325.5C321.082 23 317.5 26.5817 317.5 31V32C317.5 44.2 307.7 54 295.5 54H131.5C119.3 54 109.5 44.2 109.5 32V31C109.5 26.5817 105.918 23 101.5 23H66C43.9 23 26 40.9 26 63V795C26 817.1 43.9 835 66 835H361C383.1 835 401 817.1 401 795V63ZM66 5H361C393 5 419 31 419 63V795C419 827 393 853 361 853H66C34 853 8 827 8 795V63C8 31 34 5 66 5Z" fill="#333333"/>
<path d="M265.5 32C265.5 35.866 262.366 39 258.5 39C254.634 39 251.5 35.866 251.5 32C251.5 28.134 254.634 25 258.5 25C262.366 25 265.5 28.134 265.5 32Z" fill="#4F4F4F"/>
<path d="M191 29C189.343 29 188 30.3431 188 32C188 33.6569 189.343 35 191 35H235C236.657 35 238 33.6569 238 32C238 30.3431 236.657 29 235 29H191Z" fill="#4F4F4F"/>
</svg>
