<svg width="651" height="577" viewBox="0 0 651 577" fill="none" xmlns="http://www.w3.org/2000/svg">
<mask id="mask0" mask-type="alpha" maskUnits="userSpaceOnUse" x="0" y="0" width="651" height="534">
<rect width="651" height="534" fill="#C4C4C4"/>
</mask>
<g mask="url(#mask0)">
<path d="M270.808 125.512C266.99 126.876 263.172 127.149 259.355 126.876C257.446 126.603 255.537 126.331 253.901 125.785C252.265 125.239 250.629 124.421 248.993 123.33L248.72 123.057C247.63 122.238 246.266 122.511 245.448 123.602C244.903 124.148 244.903 125.239 245.175 125.785C246.266 128.513 250.629 134.788 258.537 135.333C263.718 135.606 269.717 132.605 272.989 128.24C273.534 127.422 273.534 126.331 272.716 125.785C272.171 125.512 271.626 125.239 270.808 125.512Z" fill="#9B643D"/>
<path d="M233.307 98.1176C232.698 93.4865 234.384 89.4455 237.071 89.0919C239.759 88.7382 242.432 92.2058 243.04 96.8369C243.649 101.468 241.964 105.509 239.276 105.863C236.588 106.216 233.916 102.749 233.307 98.1176Z" fill="#615E5B"/>
<path d="M280.324 92.2638C279.715 87.6327 281.4 83.5918 284.088 83.2381C286.776 82.8844 289.448 86.352 290.057 90.9831C290.666 95.6142 288.98 99.6551 286.293 100.009C283.605 100.362 280.932 96.8948 280.324 92.2638Z" fill="#615E5B"/>
<path d="M564.759 471.985C582.756 444.703 609.752 431.881 609.752 431.881C613.024 430.79 615.751 433.791 614.114 437.337C612.478 440.884 599.39 457.526 599.39 457.526C599.39 457.526 610.57 454.525 618.205 453.706C629.657 452.342 639.474 453.161 643.019 452.615C649.291 452.069 652.563 459.981 644.655 461.891C635.656 464.073 628.839 461.072 613.842 473.349C600.208 484.534 568.031 487.262 568.031 487.262L564.759 471.985Z" fill="#9A653E"/>
<path d="M350.705 356.039C350.705 356.039 368.974 457.253 435.782 480.442C496.317 501.176 565.306 469.257 565.306 469.257L573.214 514.271C573.214 514.271 538.038 607.027 379.882 600.48C201.82 593.114 186.55 423.424 186.55 423.424L350.705 356.039Z" fill="url(#paint0_radial)"/>
<path d="M225.543 725.701C225.543 725.701 44.2092 708.514 18.8497 608.937C-10.8727 491.9 6.30627 398.052 6.30627 398.052C22.3946 274.195 100.382 185.804 240.814 192.351H244.358C393.243 197.535 459.505 314.026 466.595 438.974L469.594 490.536C477.775 632.399 382.881 731.43 225.543 725.701Z" fill="url(#paint1_radial)"/>
<path d="M278.101 64.1541L290.943 220.776L180.056 229.877L167.214 73.2551L278.101 64.1541Z" fill="#9A653E"/>
<path d="M171.552 75.5873L179.732 136.425C181.914 153.066 199.365 183.349 236.723 178.438L274.626 173.254C296.168 170.526 311.983 154.43 309.802 137.789L299.44 58.6729C297.258 42.0313 277.898 30.5732 256.356 33.3013L206.728 39.8488C185.186 42.8497 169.37 58.9457 171.552 75.5873Z" fill="#9A653E"/>
<path d="M232.087 137.516C234.268 154.703 245.448 168.617 260.446 175.164C268.081 178.438 276.807 179.802 285.533 178.711C311.71 175.164 329.98 151.429 326.435 125.239C325.344 117.873 322.89 111.326 319.073 105.597C314.982 99.3221 309.529 94.1386 303.257 90.3193C294.531 85.1358 283.897 82.6805 272.989 84.3174C257.446 86.4999 244.63 95.7755 237.541 108.598C232.632 117.055 230.723 127.149 232.087 137.516Z" fill="#9A653E"/>
<path d="M170.186 129.877C159.494 129.877 150.826 121.205 150.826 110.507C150.826 99.8098 159.494 91.1377 170.186 91.1377C180.879 91.1377 189.547 99.8098 189.547 110.507C189.547 121.205 180.879 129.877 170.186 129.877Z" fill="#9A653E"/>
<path d="M170.188 65.2205L179.459 136.425C183.55 166.707 211.091 187.986 241.358 184.167L284.715 178.711C310.62 175.164 329.708 151.702 326.708 125.785C325.89 118.146 323.163 111.326 319.346 105.324L222.816 117.873C212.454 119.238 202.91 111.872 201.274 101.505L196.093 61.674L170.188 65.2205Z" fill="#33322E"/>
<path d="M203.728 24.2985L207.273 24.0256C219.543 61.401 200.183 87.3183 168.279 91.4105L166.643 73.6776C163.098 45.5779 177.278 27.5722 203.728 24.2985Z" fill="#33322E"/>
<path d="M206.999 50.2157L252.81 44.4866L267.808 42.5769L284.986 40.6673L287.713 40.3944C287.713 40.3944 296.166 34.6654 293.44 21.5703C292.349 15.0228 289.622 10.1122 287.168 6.56563C284.714 3.01907 282.532 1.10938 282.532 1.10938C282.532 1.10938 281.714 4.38312 278.442 7.65688C275.443 10.6578 270.807 14.2044 262.899 15.8413C261.536 16.1141 256.082 16.9325 249.265 18.0238C245.448 18.5694 240.812 19.3878 236.176 19.9335C235.904 19.9335 235.904 19.9335 235.631 19.9335L203.454 24.2985L206.999 50.2157Z" fill="#33322E"/>
<path d="M295.076 32.2102L315.255 183.621L274.352 189.896L254.174 38.7577L295.076 32.2102Z" fill="url(#paint2_radial)"/>
<path d="M276.536 97.1396C277.081 97.6852 277.899 97.6852 278.445 97.1396L278.717 96.8668C280.899 94.9571 282.535 93.3202 284.171 93.0474C286.08 92.229 287.716 92.5018 290.17 93.8659L290.715 94.1387C290.988 94.4115 291.261 94.4115 291.533 94.1387C292.351 93.8659 292.624 93.3202 292.624 92.5018C292.079 90.5921 290.715 88.9552 288.806 87.864C286.898 86.7727 284.716 87.0455 282.807 87.3184C278.717 88.6824 276.263 92.229 276.263 96.0484C276.263 96.594 276.263 96.8668 276.536 97.1396Z" fill="#231F20"/>
<path d="M289.35 112.963H289.623C303.53 111.053 313.074 98.5037 311.438 84.5902C310.62 78.0427 307.075 72.0408 301.894 67.9486C296.44 63.8564 289.896 62.2195 283.351 63.038C276.807 63.8564 270.808 67.403 266.718 72.5864C262.627 77.7699 260.719 84.5902 261.809 91.1377C263.173 105.051 275.716 114.6 289.35 112.963ZM283.897 68.4942C289.078 67.9486 294.259 69.3127 298.349 72.3136C302.439 75.5874 305.166 80.2252 305.984 85.4087C307.348 96.3212 299.712 106.142 289.078 107.507H288.805C278.17 108.871 268.354 101.232 266.99 90.5921C266.172 85.4087 267.808 80.2252 270.808 75.8602C273.807 71.768 278.443 69.0399 283.897 68.4942Z" fill="#30C4EB"/>
<path d="M265.627 114.054C273.262 112.963 278.715 105.869 277.625 98.5035C276.534 90.8648 269.444 85.4085 262.082 86.4998C254.447 87.591 248.993 94.6842 250.084 102.05C250.902 109.689 257.992 114.872 265.627 114.054Z" fill="#9A653E"/>
<path d="M238.359 119.783H238.632C252.539 117.874 262.083 105.324 260.447 91.4108C259.629 84.8633 256.084 78.8614 250.903 74.7692C245.449 70.677 238.905 69.0401 232.36 69.8585C225.816 70.677 219.817 74.2236 215.727 79.407C211.636 84.8633 209.728 91.4108 210.818 97.9583C212.182 111.599 224.725 121.42 238.359 119.783ZM232.906 75.042C238.087 74.4964 243.268 75.8604 247.358 78.8614C251.448 82.1352 254.175 86.773 254.993 91.9564C256.356 102.869 248.721 112.69 238.087 114.054C227.179 115.691 217.363 107.78 215.999 97.1399C215.181 91.9564 216.817 86.773 219.817 82.408C222.816 78.5886 227.452 75.8604 232.906 75.042Z" fill="#30C4EB"/>
<path d="M212.13 94.5803L212.841 99.9902L175.26 104.935L174.549 99.5253L212.13 94.5803Z" fill="#30C4EB"/>
<path d="M302.439 242.276L166.097 237.366C161.734 237.093 158.462 233.546 158.462 229.181L159.825 190.442C160.098 186.077 163.643 182.803 168.006 182.803L244.084 185.531C247.357 185.531 250.629 187.168 252.538 189.896L261.263 208.175L269.989 190.987C272.171 188.259 275.443 186.622 278.988 186.622L304.347 187.441C308.71 187.714 311.982 191.26 311.982 195.625L310.619 234.365C310.346 239.002 306.801 242.276 302.439 242.276Z" fill="#CA83FC"/>
<path d="M231.269 102.323C231.814 102.868 232.633 102.868 233.178 102.323L233.451 102.05C235.632 100.14 237.268 98.5035 238.904 98.2306C240.813 97.4122 242.449 97.685 244.903 99.0491L245.449 99.3219C245.721 99.5947 245.994 99.5947 246.267 99.3219C247.085 99.0491 247.357 98.5035 247.357 97.685C246.812 95.7753 245.449 94.1384 243.54 93.0472C241.631 91.9559 239.45 92.2288 237.541 92.5016C233.451 93.8656 230.996 97.4122 230.996 101.232C230.996 101.777 230.996 102.05 231.269 102.323Z" fill="#231F20"/>
<path d="M247.63 126.876C245.994 126.876 244.358 128.24 244.63 129.877C245.721 136.424 251.175 141.335 257.992 141.881C264.809 142.426 270.808 138.061 272.717 131.787C273.262 130.15 271.899 128.513 270.263 128.24L247.63 126.876Z" fill="#6D3916"/>
<path d="M270.264 128.24L247.631 126.876C246.813 126.876 245.995 127.149 245.449 127.694C248.176 129.604 251.994 131.241 256.357 131.787C262.901 132.605 268.627 131.514 271.627 128.786C271.354 128.513 270.809 128.24 270.264 128.24Z" fill="white"/>
</g>
<path d="M432.165 237.697L570.083 247.33L556.903 436.208L418.985 426.575L432.165 237.697Z" fill="#E1DFDD"/>
<path d="M387.616 232.841L525.659 225.259L536.033 414.307L397.99 421.889L387.616 232.841Z" fill="#F3F2F1"/>
<path d="M342.654 242.948L478.637 217.969L512.814 404.196L376.831 429.176L342.654 242.948Z" fill="white"/>
<path d="M418.332 260.009L372.249 268.193" stroke="#E1DFDD" stroke-width="1.4756" stroke-miterlimit="10"/>
<path d="M464.688 263.556L431.693 269.83" stroke="#E1DFDD" stroke-width="7.7474" stroke-miterlimit="10"/>
<path d="M422.969 283.471L377.431 291.655" stroke="#E1DFDD" stroke-width="1.7879" stroke-miterlimit="10"/>
<path d="M470.959 298.748L382.337 315.117" stroke="#E1DFDD" stroke-width="1.7879" stroke-miterlimit="10"/>
<path d="M476.141 322.21L387.519 338.579" stroke="#E1DFDD" stroke-width="1.7879" stroke-miterlimit="10"/>
<path d="M354.796 462.436H587.667C604.028 462.436 617.117 449.341 617.117 432.973V341.307H325.347V432.973C325.347 449.341 338.435 462.436 354.796 462.436Z" fill="#B3AFAB"/>
<path d="M354.797 462.436H483.231C499.592 462.436 512.681 449.341 512.681 432.973V341.307H325.347V432.973C325.347 449.341 338.436 462.436 354.797 462.436Z" fill="#C8C6C4"/>
<path d="M331.892 461.891C331.892 461.891 342.526 452.342 352.343 449.341C358.887 447.432 369.795 446.886 376.339 446.886C380.702 446.886 384.792 446.613 389.155 446.068L403.607 444.158C407.698 444.431 407.97 447.977 404.698 450.978C401.153 453.979 381.52 460.254 381.52 460.254C381.52 460.254 394.609 459.708 405.789 458.89C417.787 458.071 430.33 451.251 438.238 450.16C449.691 448.796 449.963 458.344 440.42 460.254C429.512 462.709 411.788 479.624 395.972 481.806C366.795 481.261 323.711 487.262 323.711 487.262L331.892 461.891Z" fill="#9A653E"/>
<path d="M205.878 291.224C211.877 335.692 193.062 382.071 206.968 420.81C228.51 481.102 322.041 460.368 322.041 460.368L341.674 521.478C341.674 521.478 262.323 623.51 113.166 550.942C47.7217 519.023 4.91049 367.066 55.9022 275.401C85.0793 213.745 193.88 201.468 205.878 291.224Z" fill="#CA83FC"/>
<path d="M399.79 373.772H438.238C442.328 373.772 445.601 370.499 445.601 366.406C445.601 362.314 442.328 359.04 438.238 359.04H399.79C395.7 359.04 392.427 362.314 392.427 366.406C392.427 370.499 395.7 373.772 399.79 373.772Z" fill="#B3AFAB"/>
<defs>
<radialGradient id="paint0_radial" cx="0" cy="0" r="1" gradientUnits="userSpaceOnUse" gradientTransform="translate(445.696 573.936) rotate(180) scale(131.265 131.328)">
<stop stop-color="#AD41F9"/>
<stop offset="0.296875" stop-color="#C169FF"/>
<stop offset="0.641" stop-color="#CA83FC"/>
<stop offset="1" stop-color="#CA83FC"/>
</radialGradient>
<radialGradient id="paint1_radial" cx="0" cy="0" r="1" gradientUnits="userSpaceOnUse" gradientTransform="translate(179.133 498.387) rotate(180) scale(213.02 213.122)">
<stop stop-color="#C879FF"/>
<stop offset="0.161458" stop-color="#C97DFF"/>
<stop offset="0.307292" stop-color="#C26BFF"/>
<stop offset="0.474" stop-color="#C574FF"/>
<stop offset="0.6261" stop-color="#CA83FC"/>
<stop offset="0.7924" stop-color="#CA83FC"/>
<stop offset="1" stop-color="#CA83FC"/>
</radialGradient>
<radialGradient id="paint2_radial" cx="0" cy="0" r="1" gradientUnits="userSpaceOnUse" gradientTransform="translate(260.647 103.375) rotate(-7.49671) scale(37.0412 28.8643)">
<stop/>
<stop offset="1" stop-opacity="0"/>
</radialGradient>
</defs>
</svg>
