<svg width="574" height="470" viewBox="0 0 574 470" fill="none" xmlns="http://www.w3.org/2000/svg">
<path d="M328.122 124.982C336.774 124.982 343.788 113.631 343.788 99.6286C343.788 85.6265 336.774 74.2755 328.122 74.2755C319.47 74.2755 312.457 85.6265 312.457 99.6286C312.457 113.631 319.47 124.982 328.122 124.982Z" fill="#6365A8"/>
<path d="M324.618 124.982C333.275 124.982 340.284 113.645 340.284 99.6286C340.284 85.6122 333.275 74.2755 324.618 74.2755H321.939C313.281 74.2755 306.273 85.6122 306.273 99.6286C306.273 113.645 313.281 124.982 321.939 124.982" fill="#33322E"/>
<path d="M348.529 176.924C329.771 176.924 314.518 160.229 314.518 139.822V111.79" stroke="#33322E" stroke-width="1.3595" stroke-miterlimit="10" stroke-linecap="round" stroke-linejoin="round"/>
<path d="M461.486 197.125L456.745 190.529C456.745 190.529 366.256 190.529 328.122 187.437C328.122 187.437 316.785 208.874 323.381 217.531C329.978 225.776 402.946 238.555 419.642 233.608C436.133 228.249 461.486 197.125 461.486 197.125Z" fill="#DFBA95"/>
<path d="M345.437 188.261L443.347 247.831L456.951 190.529C456.951 190.529 448.706 183.108 447.882 169.092C446.645 151.984 447.469 96.1244 447.469 96.1244C447.469 96.1244 344.2 51.602 352.651 93.4449C360.896 132.402 360.484 166.412 354.507 181.459C352.033 188.261 345.437 188.261 345.437 188.261Z" fill="#DFBA95"/>
<path d="M345.437 188.261C345.437 188.261 362.545 201.865 400.06 201.865C437.575 201.865 456.951 190.529 456.951 190.529C456.951 190.529 448.706 183.108 447.882 169.092C446.645 151.984 447.469 96.1244 447.469 96.1244C447.469 96.1244 344.2 51.602 352.651 93.4449C360.896 132.402 360.484 166.412 354.507 181.459C352.033 188.261 345.437 188.261 345.437 188.261Z" fill="url(#paint0_radial)"/>
<path d="M369.142 68.5041C369.554 66.8552 370.997 65.0001 372.646 64.1756C374.501 63.3511 376.562 63.3511 378.417 63.7633C382.334 65.0001 385.013 68.0919 385.426 71.596C385.426 72.0082 385.013 72.4205 384.601 72.4205C384.189 72.4205 384.189 72.4205 383.777 72.0082C381.921 69.7409 379.448 68.0919 377.181 67.2674C374.913 66.4429 372.44 66.8552 370.172 68.9164C369.76 69.3286 369.348 68.9164 368.936 68.9164C369.142 68.9164 369.142 68.9164 369.142 68.5041Z" fill="#5E4134"/>
<path d="M324.618 68.5041C325.031 66.8552 326.473 65.0001 328.122 64.1756C329.978 63.3511 332.039 63.3511 333.894 63.7633C337.81 65.0001 340.49 68.0919 340.902 71.596C340.902 72.0082 340.49 72.4205 340.078 72.4205C339.665 72.4205 339.665 72.4205 339.253 72.0082C337.398 69.7409 334.925 68.0919 332.657 67.2674C330.39 66.4429 327.916 66.8552 325.649 68.9164C325.237 69.3286 324.824 68.9164 324.412 68.9164C324.618 68.9164 324.618 68.9164 324.618 68.5041Z" fill="#5E4134"/>
<path d="M376.562 95.7123L456.127 96.1245L456.539 49.747C456.539 37.1735 446.439 27.0735 433.865 26.6613H376.974C359.866 26.6613 345.849 40.2653 345.849 57.3735V64.3817C345.437 81.6959 359.454 95.7123 376.562 95.7123Z" fill="#33322E"/>
<path d="M439.431 114.057C450.359 114.057 459.219 105.198 459.219 94.2694C459.219 83.341 450.359 74.4817 439.431 74.4817C428.502 74.4817 419.643 83.341 419.643 94.2694C419.643 105.198 428.502 114.057 439.431 114.057Z" fill="#DFBA95"/>
<path d="M369.142 173.421H377.799C411.81 173.421 439.843 146.212 439.843 111.79L440.255 70.3593C440.255 56.343 428.918 45.0062 415.314 45.0062L323.382 44.594L322.969 126.012C322.763 152.396 343.376 173.421 369.142 173.421Z" fill="#DFBA95"/>
<path d="M346.88 121.478L391.403 121.89C409.336 121.89 423.765 107.461 424.177 89.5286L424.589 48.5102C424.589 43.7694 420.673 39.8531 416.344 39.8531L343.376 39.4408C333.688 39.4408 325.443 47.2735 325.443 57.3735L324.618 98.8041C324.618 111.378 334.512 121.478 346.88 121.478Z" fill="#DFBA95"/>
<path d="M346.468 48.9224C362.752 44.5939 376.562 43.151 393.258 42.7388C419.436 41.502 441.286 46.2429 441.286 46.2429L440.873 38.4102C440.461 20.4776 429.124 4.19389 407.687 7.28572C374.501 12.0265 381.509 2.13266 367.08 1.51429C353.476 0.689799 350.796 14.0878 344.819 14.2939C331.214 14.7061 333.482 -3.22653 312.869 1.51429C295.761 5.22449 285.661 64.1755 346.468 48.9224Z" fill="#33322E"/>
<path d="M394.131 92.2692C394.155 87.9434 392.237 84.4258 389.846 84.4126C387.456 84.3993 385.498 87.8953 385.474 92.2212C385.45 96.547 387.369 100.065 389.759 100.078C392.15 100.091 394.107 96.5951 394.131 92.2692Z" fill="#3B322F"/>
<path d="M323.176 168.68L370.378 169.092V127.661C370.378 125.394 369.142 123.333 367.699 122.302L358.423 116.118C356.568 114.882 355.744 112.202 357.186 109.935L365.431 97.3612C367.287 94.2694 368.523 90.7653 368.523 87.2612V42.7388H320.908L323.176 168.68Z" fill="url(#paint1_radial)"/>
<path d="M443.966 37.5858C443.966 37.5858 409.336 31.4021 411.604 55.9307C413.253 69.947 416.963 72.2144 426.033 73.0389C432.629 73.4511 444.79 75.3062 444.79 75.3062L443.966 37.5858Z" fill="#33322E"/>
<path d="M351.842 92.3876C351.866 88.0618 349.947 84.5442 347.557 84.531C345.166 84.5177 343.209 88.0137 343.185 92.3396C343.161 96.6654 345.079 100.183 347.47 100.196C349.86 100.21 351.818 96.7135 351.842 92.3876Z" fill="#3B322F"/>
<g opacity="0.7">
<path opacity="0.7" d="M391.403 130.135C390.579 135.906 385.632 141.059 379.654 142.914C376.562 143.739 373.47 144.151 370.585 143.327C367.493 142.502 364.813 141.059 362.752 138.586C362.339 137.761 362.339 136.937 363.164 136.318C363.576 135.906 363.989 135.906 364.401 135.906C367.08 136.318 369.142 135.906 370.997 135.906C372.852 135.494 374.913 135.082 376.768 134.669C380.685 133.433 384.189 131.578 388.105 128.486C388.93 128.074 389.754 128.074 390.373 128.898C391.403 129.31 391.403 129.722 391.403 130.135Z" fill="#BF8F68"/>
</g>
<path d="M526.828 417.882C545.173 359.755 573.206 283.078 573.206 283.078C574.443 234.02 549.914 192.178 504.978 191.147L456.951 190.735C442.11 205.163 418.405 214.439 391.815 213.82C365.225 212.996 342.345 202.896 327.916 187.643C327.916 187.643 296.379 185.376 260.925 193.827C241.137 198.155 207.951 224.333 206.714 273.802C206.714 273.802 237.633 339.967 249.588 418.088H526.828V417.882Z" fill="url(#paint2_radial)"/>
<path d="M383.983 8.11015C382.334 8.11015 378.83 7.6979 383.57 7.6979C401.091 7.28565 445.202 9.34689 447.057 75.9244C447.057 76.7489 437.988 77.5734 437.988 77.1612C440.461 40.8836 420.673 10.7897 383.983 8.11015Z" fill="#33322E"/>
<path d="M442.11 124.982C450.762 124.982 457.776 113.631 457.776 99.6286C457.776 85.6265 450.762 74.2755 442.11 74.2755C433.458 74.2755 426.444 85.6265 426.444 99.6286C426.444 113.631 433.458 124.982 442.11 124.982Z" fill="url(#paint3_radial)"/>
<path d="M446.026 124.982C437.369 124.982 430.36 113.645 430.36 99.6286C430.36 85.6122 437.369 74.2755 446.026 74.2755H448.706C457.363 74.2755 464.371 85.6122 464.371 99.6286C464.371 113.645 457.363 124.982 448.706 124.982" fill="#33322E"/>
<path d="M295.554 418.5H49.852L1.41236 278.543C-0.442779 273.184 3.67974 267.618 9.24515 267.618H235.366C240.106 267.618 244.023 270.71 245.466 275.039L295.554 418.5Z" fill="#615E5B"/>
<path d="M308.953 431.074C308.953 431.074 296.791 435.402 287.928 436.433C276.591 438.082 260.925 433.341 260.925 433.341C260.925 433.341 249.588 432.929 239.9 433.341C229.388 433.753 218.463 438.7 211.867 439.112C202.179 439.937 202.179 431.692 210.218 430.455C219.494 428.806 235.572 415.202 249.176 414.171C263.605 412.935 308.541 412.316 308.541 412.316L308.953 431.074Z" fill="#DFBA95"/>
<path d="M301.12 454.778L475.709 468.794C509.72 471.473 540.02 448.594 546.204 414.996C554.243 374.184 570.527 306.782 573 282.871C573 282.871 568.259 281.222 562.076 279.161L447.882 239.173L443.553 388.2L300.089 408.812L301.12 454.778Z" fill="#5BBF8D"/>
<defs>
<radialGradient id="paint0_radial" cx="0" cy="0" r="1" gradientUnits="userSpaceOnUse" gradientTransform="translate(373.261 138.423) scale(57.6368 57.6357)">
<stop stop-color="#9B653E"/>
<stop offset="1" stop-color="#BF8F68" stop-opacity="0"/>
</radialGradient>
<radialGradient id="paint1_radial" cx="0" cy="0" r="1" gradientUnits="userSpaceOnUse" gradientTransform="translate(381.793 109.882) rotate(0.722588) scale(38.7376 34.9154)">
<stop stop-color="#9B653E"/>
<stop offset="1" stop-color="#BF8F68" stop-opacity="0"/>
</radialGradient>
<radialGradient id="paint2_radial" cx="0" cy="0" r="1" gradientUnits="userSpaceOnUse" gradientTransform="translate(361.092 535.031) scale(272.824 272.819)">
<stop offset="0.0176619" stop-color="#459871"/>
<stop offset="0.2589" stop-color="#4AA076"/>
<stop offset="0.7097" stop-color="#55B586"/>
<stop offset="0.8709" stop-color="#5BBF8D"/>
</radialGradient>
<radialGradient id="paint3_radial" cx="0" cy="0" r="1" gradientUnits="userSpaceOnUse" gradientTransform="translate(442.058 99.6609) scale(21.0416 21.0412)">
<stop stop-color="#439AD5"/>
<stop offset="0.0232233" stop-color="#2DACE2"/>
<stop offset="0.0915403" stop-color="#2FAFE3"/>
<stop offset="0.3536" stop-color="#32BAE6"/>
<stop offset="0.641" stop-color="#32C1E9"/>
<stop offset="1" stop-color="#30C4EB"/>
</radialGradient>
</defs>
</svg>
