<svg width="603" height="583" viewBox="0 0 603 583" fill="none" xmlns="http://www.w3.org/2000/svg">
<path d="M346 336C344.032 338.264 344.033 338.265 344.034 338.266C344.035 338.267 344.037 338.268 344.039 338.27C344.043 338.273 344.049 338.279 344.057 338.286C344.074 338.3 344.099 338.322 344.131 338.35C344.197 338.407 344.295 338.492 344.424 338.604C344.681 338.828 345.064 339.16 345.565 339.594C346.565 340.462 348.035 341.736 349.913 343.362C353.669 346.614 359.057 351.272 365.587 356.899C378.648 368.154 396.278 383.285 414.556 398.793C432.832 414.298 451.766 430.188 467.429 442.956C482.986 455.637 495.57 465.45 500.995 468.595L504.005 463.404C499.093 460.557 486.945 451.123 471.22 438.305C455.602 425.574 436.703 409.714 418.438 394.217C400.175 378.723 382.557 363.602 369.504 352.354C362.978 346.73 357.593 342.075 353.84 338.826C351.964 337.201 350.495 335.929 349.496 335.062C348.997 334.628 348.614 334.297 348.357 334.073C348.228 333.962 348.131 333.877 348.066 333.82C348.033 333.792 348.009 333.771 347.992 333.756C347.984 333.749 347.978 333.744 347.974 333.74C347.972 333.739 347.97 333.737 347.969 333.736C347.968 333.736 347.968 333.735 346 336Z" fill="#CA83FC"/>
<path d="M323.372 312.171C326.695 308.85 334.724 313.278 334.724 313.278C334.724 313.278 347.459 323.241 353.273 326.562C357.149 328.776 359.918 330.16 361.856 332.097C365.732 335.418 367.116 338.462 367.947 340.953C369.608 344.827 366.839 344.827 364.071 342.89C361.302 340.953 356.042 333.757 353.55 333.204C353.55 333.204 361.025 334.034 362.686 337.355C364.071 340.676 370.162 347.318 369.054 348.148C365.178 351.193 357.426 341.23 350.505 338.185C348.567 337.355 334.447 334.311 328.633 329.053C323.372 323.795 320.05 315.492 323.372 312.171Z" fill="#DCB38B"/>
<path d="M338.046 325.178C338.046 325.178 351.335 342.337 352.166 344.827C352.996 347.318 348.844 347.041 345.521 345.104C342.199 343.167 328.633 328.499 328.633 328.499L338.046 325.178Z" fill="#DCB38B"/>
<path d="M334.723 313.278C334.723 313.278 303.991 272.043 289.871 238.003C275.751 203.963 266.892 155.255 266.892 155.255L211.797 159.96C211.797 159.96 213.181 210.605 233.392 254.054C257.479 306.083 312.574 330.99 312.574 330.99L334.723 313.278Z" fill="#33312D"/>
<path d="M71.9826 197.874C64.2305 247.135 63.123 297.227 63.123 297.78C63.123 329.606 89.1478 355.897 121.264 355.897" stroke="#9689C1" stroke-width="4.1239" stroke-miterlimit="10"/>
<path d="M150.613 96.5847C150.613 96.5847 65.8935 93.2637 33.501 195.383L178.852 142.248L150.613 96.5847Z" fill="#33312D"/>
<path d="M260.526 301.101H94.6869L87.4886 171.306C85.5506 130.901 117.666 96.8613 158.088 96.8613H197.125C237.546 96.8613 269.939 130.901 267.724 171.306L260.526 301.101Z" fill="#33312D"/>
<path d="M59.5251 530.248L26.5788 544.086L30.4548 574.805C33.5003 580.616 26.0251 585.598 21.0416 578.679L1.38459 549.621C-0.830284 546.576 0.000294209 542.148 3.32261 539.658L45.4053 509.492L59.5251 530.248Z" fill="#5BBF8D"/>
<path d="M354.104 538.551L357.703 549.621C357.703 549.621 375.422 548.514 379.852 544.086C385.112 538.828 390.926 540.488 387.05 551.281C383.174 561.798 361.025 575.358 361.025 575.358C357.703 577.295 353.273 576.465 351.335 573.144L339.153 553.218L354.104 538.551Z" fill="#5BBF8D"/>
<path d="M260.525 301.378C260.525 301.378 300.946 368.351 321.987 427.575C343.029 487.075 359.087 551.281 359.087 551.281L343.859 560.413C343.859 560.413 284.335 495.101 241.144 458.294C206.537 428.958 156.425 386.339 156.425 386.339L144.521 301.378H260.525Z" fill="#CA83FC"/>
<path d="M224.532 301.655C224.532 301.655 219.549 396.026 164.454 464.382C116.557 524.16 26.5778 544.086 26.5778 544.086L14.6729 531.078C14.6729 531.078 22.9786 526.927 23.5324 513.92C24.3629 497.869 41.8051 506.171 49.0034 494.548C53.71 487.076 50.3877 475.175 53.71 466.596C62.0158 445.287 75.3051 459.678 84.1646 435.877C89.1481 422.593 106.867 301.101 106.867 301.101L224.532 301.655Z" fill="#CA83FC"/>
<mask id="mask0" mask-type="alpha" maskUnits="userSpaceOnUse" x="53" y="84" width="190" height="185">
<path d="M105.5 107C108.5 105.525 96 111.5 92.5 114C89.5 93.4999 129.803 77.8585 196 86.9999C301 101.5 196 267 196 267L53 269C53 269 102.5 108.475 105.5 107Z" fill="#C4C4C4"/>
</mask>
<g mask="url(#mask0)">
<path d="M118.495 96.8616C98.5611 96.8616 81.9495 135.883 71.9826 197.874C64.2305 247.135 63.123 297.227 63.123 297.78C63.123 329.606 89.1478 355.897 121.264 355.897C153.379 355.897 179.404 329.883 179.404 297.78C179.404 297.503 176.912 247.412 167.776 198.151C155.871 135.883 138.706 96.8616 118.495 96.8616Z" stroke="#5BBF8D" stroke-width="6" stroke-miterlimit="10"/>
</g>
<path d="M195.464 274.81V361.155C195.464 365.306 192.142 368.904 187.712 368.904H56.4806C52.3277 368.904 48.7285 365.306 48.7285 361.155V274.81C48.7285 270.659 52.3277 267.061 56.4806 267.061H187.712C192.142 267.061 195.464 270.659 195.464 274.81Z" fill="#488766"/>
<path d="M184.39 267.061C180.237 267.061 176.638 270.659 176.638 274.81V344.274C176.638 348.425 173.038 352.022 168.886 352.022H48.7285V274.81C48.7285 270.659 52.3277 267.061 56.4806 267.061H184.39Z" fill="#5BBF8D"/>
<path d="M125.695 139.204L133.171 113.743C133.724 112.083 135.109 110.976 137.047 110.699L148.675 110.145C155.873 109.869 153.104 116.787 153.104 116.787L156.427 124.536C157.257 127.304 155.042 130.348 151.997 129.794L149.228 129.518C149.228 129.518 147.567 139.757 143.691 143.632C139.815 147.506 132.34 148.336 132.34 148.336L125.695 139.204Z" fill="#DCB38B"/>
<path d="M125.972 138.65L144.521 163.834C144.521 163.834 93.579 230.531 70.5996 240.77C47.6203 251.287 24.3641 224.165 31.5624 200.365C42.36 164.111 125.972 138.65 125.972 138.65Z" fill="#33312D"/>
<path d="M204.875 48.1538L142.582 48.4305V24.907C142.582 18.5418 147.566 13.2836 153.933 13.2836L192.97 13.0068C199.338 13.0068 204.599 17.9883 204.599 24.3535L204.875 48.1538Z" fill="#E1DFDD"/>
<path d="M148.12 36.5303H196.016V86.8983C196.016 89.9426 197.401 96.3077 204.045 97.138C188.541 109.315 154.487 105.44 141.752 96.8612C145.905 96.3077 148.12 92.4333 147.843 86.6216L148.12 36.5303Z" fill="url(#paint0_radial)"/>
<path d="M148.12 59.2237C153.625 59.2237 158.087 54.7631 158.087 49.2608C158.087 43.7584 153.625 39.2979 148.12 39.2979C142.616 39.2979 138.153 43.7584 138.153 49.2608C138.153 54.7631 142.616 59.2237 148.12 59.2237Z" fill="#DCB38B"/>
<path d="M184.113 87.4522H171.654C158.642 87.4522 147.844 76.9358 147.844 63.9287L147.567 29.8887C147.567 22.97 153.105 17.1583 160.026 17.1583L199.894 16.8816C203.77 16.8816 206.815 19.9258 206.815 23.8003L207.092 63.9287C207.369 76.9358 197.125 87.4522 184.113 87.4522Z" fill="#DCB38B"/>
<path d="M190.756 26.0141C182.173 24.3536 176.636 20.2024 168.054 19.6489C154.764 19.0954 147.289 22.9699 147.289 22.9699V19.0954C147.566 10.2395 153.103 1.66032 164.177 3.32081C181.62 6.08828 178.02 0.830079 184.665 0.553332C191.587 -0.000163257 191.863 6.64178 197.124 6.91852C203.215 7.47202 203.215 -1.66065 212.074 0.553332C220.934 2.21382 228.132 32.656 190.756 26.0141Z" fill="#E1DFDD"/>
<path d="M170.298 48.7088C171.674 48.7012 172.778 46.5886 172.763 43.9903C172.749 41.392 171.622 39.2918 170.246 39.2994C168.869 39.307 167.766 41.4196 167.78 44.0179C167.794 46.6163 168.922 48.7165 170.298 48.7088Z" fill="#33312D"/>
<path d="M205.43 74.168H181.62V62.5446C181.62 61.4376 182.174 60.3306 183.004 59.7771L187.711 56.7329C188.818 56.1794 189.095 54.7956 188.265 53.6887L184.112 47.0467C183.004 45.663 182.728 43.7257 182.728 42.0653V30.9954H206.537L205.43 74.168Z" fill="url(#paint1_radial)"/>
<path d="M193.276 48.7083C194.653 48.7007 195.756 46.5881 195.742 43.9898C195.728 41.3915 194.6 39.2913 193.224 39.2989C191.848 39.3066 190.744 41.4191 190.759 44.0174C190.773 46.6158 191.9 48.716 193.276 48.7083Z" fill="#33312D"/>
<path d="M144.244 24.6302C144.244 20.479 150.335 18.5418 153.657 21.3092C155.595 22.693 156.98 25.1837 156.98 29.6117C156.98 38.7443 144.244 39.8513 144.244 39.8513V24.6302Z" fill="#E1DFDD"/>
<path d="M172.207 63.9284C174.145 65.5888 176.083 66.4191 178.021 66.9726C179.129 67.2493 179.959 67.5261 181.067 67.5261C182.174 67.5261 183.281 67.5261 184.389 67.5261C184.943 67.5261 185.219 67.8028 185.219 68.3563C185.219 68.6331 185.219 68.6331 184.943 68.9098C184.112 70.2936 182.451 70.847 181.067 71.4005C179.682 71.6773 178.021 71.6773 176.36 71.1238C174.976 70.5703 173.591 69.7401 172.484 68.6331C171.376 67.5261 170.546 66.1423 170.546 64.4819C170.546 63.9284 170.823 63.6516 171.376 63.6516C171.93 63.9284 171.93 63.9284 172.207 63.9284Z" fill="#BF8F68"/>
<path d="M578.084 452.206H554.551" stroke="#BF8F68" stroke-width="1.5317" stroke-miterlimit="10" stroke-linecap="round"/>
<path d="M420.826 498.699C435.352 498.699 447.128 486.928 447.128 472.408C447.128 457.888 435.352 446.117 420.826 446.117C406.3 446.117 394.524 457.888 394.524 472.408C394.524 486.928 406.3 498.699 420.826 498.699Z" fill="#FADCBD"/>
<path d="M593.588 545.746L588.328 529.418L566.456 508.662L576.423 501.467C580.299 498.699 585.282 499.529 588.051 503.404L599.402 519.178C605.216 527.204 603.555 538.551 595.526 544.362L593.588 545.746Z" fill="#E0BB95"/>
<path d="M589.157 520.285H543.198V499.529H579.19C584.45 499.529 588.88 503.957 588.88 509.215V520.285H589.157Z" fill="url(#paint2_radial)"/>
<path d="M494.196 581.723H479.245L444.638 525.82H482.014L494.196 581.723Z" fill="#E0BB95"/>
<path d="M494.196 581.723H479.245L444.638 525.82H482.014L494.196 581.723Z" fill="url(#paint3_radial)"/>
<path d="M439.653 544.916C433.839 551.557 423.872 551.834 417.781 545.469L398.678 564.011L390.926 551.004L398.401 525.543C399.785 522.222 403.384 520.562 406.984 521.669L426.364 484.861L460.418 520.839L439.653 544.916Z" fill="#E0BB95"/>
<path d="M404.769 553.218L401.724 563.735C399.509 571.207 391.757 575.358 384.559 573.144L391.48 549.344L404.769 553.218Z" fill="#E0BB95"/>
<path d="M479.245 567.885H490.043C497.795 567.885 503.886 573.974 503.886 581.723H479.245V567.885Z" fill="#E0BB95"/>
<path d="M559.81 499.529H499.731V445.563C499.731 421.763 518.835 402.667 542.645 402.667H559.81V499.529Z" fill="#E0BB95"/>
<path d="M548.736 453.589C563.262 453.589 575.038 441.818 575.038 427.298C575.038 412.778 563.262 401.007 548.736 401.007C534.21 401.007 522.435 412.778 522.435 427.298C522.435 441.818 534.21 453.589 548.736 453.589Z" fill="#E0BB95"/>
<path d="M574.486 422.593C573.932 419.826 573.101 417.335 571.717 414.844H566.733C564.519 414.844 562.857 416.505 562.857 418.719C562.857 420.933 564.519 422.593 566.733 422.593H573.932C574.209 422.593 574.486 422.593 574.486 422.593Z" fill="#FADCBD"/>
<path d="M539.877 414.844H522.435V405.712C522.435 396.026 530.187 388.277 539.877 388.277V414.844Z" fill="#E0BB95"/>
<path d="M566.732 414.844H549.29V405.712C549.29 396.026 557.042 388.277 566.732 388.277V414.844Z" fill="#E0BB95"/>
<path d="M528.249 528.311H455.435C437.993 528.311 423.873 514.197 423.873 496.762C423.873 479.327 437.993 465.213 455.435 465.213H528.249C545.691 465.213 559.811 479.327 559.811 496.762C559.811 514.197 545.691 528.311 528.249 528.311Z" fill="url(#paint4_radial)"/>
<path d="M586.666 437.261C586.666 437.814 586.666 438.645 586.666 439.198C586.666 440.305 586.39 441.412 586.113 442.242C585.282 445.84 583.344 448.884 580.852 451.375C577.253 454.973 572.27 457.187 566.733 457.187H551.229V433.663H582.79C584.452 433.663 585.836 434.77 586.39 436.431C586.666 436.707 586.666 436.984 586.666 437.261Z" fill="#E0BB95"/>
<path d="M424.704 495.378C437.395 495.378 447.683 485.094 447.683 472.408C447.683 459.722 437.395 449.438 424.704 449.438C412.013 449.438 401.725 459.722 401.725 472.408C401.725 485.094 412.013 495.378 424.704 495.378Z" fill="#E0BB95"/>
<path d="M424.704 495.378C437.395 495.378 447.683 485.094 447.683 472.408C447.683 459.722 437.395 449.438 424.704 449.438C412.013 449.438 401.725 459.722 401.725 472.408C401.725 485.094 412.013 495.378 424.704 495.378Z" fill="url(#paint5_radial)"/>
<path d="M440.76 456.08C440.76 456.08 452.665 472.684 442.421 487.075C433.839 498.699 414.459 498.145 410.029 485.968C405.322 472.961 414.182 465.766 416.673 463.552C416.673 463.552 415.566 469.363 421.657 470.194C425.81 470.747 433.285 463.275 423.318 453.035L440.76 456.08Z" fill="#E0BB95"/>
<path d="M562.303 462.722H540.154C532.679 462.722 526.865 456.633 526.865 449.438C526.865 441.966 532.956 436.154 540.154 436.154H586.944V438.368C586.667 451.652 575.869 462.722 562.303 462.722Z" fill="#FADCBD"/>
<path d="M586.943 437.261C586.943 437.814 586.943 438.645 586.943 439.198C586.943 440.305 586.666 441.412 586.389 442.242L585.005 441.965C581.406 440.858 578.914 437.538 578.914 433.663H583.067C584.728 433.663 586.112 434.77 586.666 436.431C586.943 436.707 586.943 436.984 586.943 437.261Z" fill="#33312D"/>
<path d="M550.12 422.593H542.922C540.707 422.593 539.046 420.933 539.046 418.719C539.046 416.505 540.707 414.844 542.922 414.844H550.12C552.335 414.844 553.996 416.505 553.996 418.719C553.996 420.933 552.335 422.593 550.12 422.593Z" fill="#FADCBD"/>
<path d="M544.86 448.054C547.075 447.777 549.013 448.607 550.397 449.438C552.058 450.268 553.442 451.098 554.827 451.928C556.211 452.482 557.595 453.035 558.98 453.312C560.364 453.589 561.748 453.589 563.409 453.312C564.24 453.312 565.071 453.866 565.071 454.696C565.071 455.249 564.794 456.079 564.24 456.356C562.579 457.186 560.641 457.74 558.426 457.74C556.488 457.74 554.273 457.186 552.612 456.633C550.674 456.079 549.29 454.972 547.628 454.419C546.244 453.589 544.86 452.759 543.752 451.652L543.475 451.375C542.645 450.545 542.645 449.438 543.475 448.607C544.029 448.331 544.306 448.054 544.86 448.054Z" fill="#BF8F68"/>
<path d="M551.504 428.405C551.781 429.235 551.504 429.789 551.504 430.619C551.227 431.172 550.95 431.726 550.396 432.279C549.566 433.109 548.181 433.94 546.797 433.94C545.413 433.94 543.752 433.386 542.921 432.556C542.09 431.726 541.537 430.619 541.26 429.512C541.26 428.958 541.537 428.682 542.09 428.405C542.367 428.405 542.644 428.405 542.644 428.405C543.475 428.958 544.028 429.512 544.859 429.789C545.413 430.065 545.966 430.065 546.52 430.065C547.074 430.065 547.628 429.789 548.181 429.512C548.735 429.235 549.289 428.682 549.843 428.405L550.396 428.128C550.673 427.851 551.227 427.851 551.504 428.405Z" fill="#594539"/>
<path d="M572.547 428.405C572.823 429.235 572.547 429.789 572.547 430.619C572.27 431.172 571.993 431.726 571.439 432.279C570.609 433.109 569.224 433.94 567.84 433.94C566.456 433.94 564.794 433.386 563.964 432.556C563.133 431.726 562.58 430.619 562.303 429.512C562.303 428.958 562.58 428.682 563.133 428.405C563.41 428.405 563.687 428.405 563.687 428.405C564.518 428.958 565.071 429.512 565.902 429.789C566.456 430.065 567.009 430.065 567.563 430.065C568.117 430.065 568.671 429.789 569.224 429.512C569.778 429.235 570.332 428.682 570.885 428.405L571.439 428.128C571.716 427.851 572.27 427.851 572.547 428.405Z" fill="#594539"/>
<path d="M521.328 581.723H506.377L496.41 513.09L531.294 511.983L521.328 581.723Z" fill="#E0BB95"/>
<path d="M506.377 567.885H517.174C524.927 567.885 531.017 573.974 531.017 581.723H506.377V567.885Z" fill="#E0BB95"/>
<path d="M497 462C500 465 544.5 473.5 560.5 473.5" stroke="#CA83FC" stroke-width="8"/>
<defs>
<radialGradient id="paint0_radial" cx="0" cy="0" r="1" gradientUnits="userSpaceOnUse" gradientTransform="translate(175.834 52.7151) rotate(180) scale(45.0782 42.8791)">
<stop stop-color="#915A37"/>
<stop offset="1" stop-color="#DCB38B"/>
</radialGradient>
<radialGradient id="paint1_radial" cx="0" cy="0" r="1" gradientUnits="userSpaceOnUse" gradientTransform="translate(181.776 53.9499) rotate(179.278) scale(15.4509 11.8286)">
<stop stop-color="#9B643D"/>
<stop offset="1" stop-color="#BF8F68" stop-opacity="0"/>
</radialGradient>
<radialGradient id="paint2_radial" cx="0" cy="0" r="1" gradientUnits="userSpaceOnUse" gradientTransform="translate(538.851 507.359) scale(35.51 35.4957)">
<stop stop-color="#BF8F68"/>
<stop offset="1" stop-color="#E0BB95"/>
</radialGradient>
<radialGradient id="paint3_radial" cx="0" cy="0" r="1" gradientUnits="userSpaceOnUse" gradientTransform="translate(457.107 517.011) scale(47.5451 47.5258)">
<stop stop-color="#BF8F68"/>
<stop offset="1" stop-color="#E0BB95"/>
</radialGradient>
<radialGradient id="paint4_radial" cx="0" cy="0" r="1" gradientUnits="userSpaceOnUse" gradientTransform="translate(428.888 474.366) scale(33.3757 33.3622)">
<stop stop-color="#BF8F68"/>
<stop offset="1" stop-color="#E0BB95"/>
</radialGradient>
<radialGradient id="paint5_radial" cx="0" cy="0" r="1" gradientUnits="userSpaceOnUse" gradientTransform="translate(419.07 475.544) scale(23.03 23.0207)">
<stop stop-color="#BF8F68"/>
<stop offset="1" stop-color="#E0BB95"/>
</radialGradient>
</defs>
</svg>
