<svg width="337" height="375" viewBox="0 0 337 375" fill="none" xmlns="http://www.w3.org/2000/svg">
<circle cx="160" cy="214.915" r="160" fill="#D9DDDB"/>
<path d="M27.1173 332.814C27.1173 332.814 66.3916 307.33 117.523 307.781C166.674 308.208 202.364 326.222 244.206 324.357C296.509 322.035 310.628 310.618 310.628 310.618L334.384 140.334C334.384 140.334 320.266 151.75 267.963 154.073C226.121 155.938 190.467 137.924 141.28 137.497C90.1483 137.045 50.8739 162.53 50.8739 162.53L27.1173 332.814Z" fill="#6FCF97"/>
<mask id="mask0" mask-type="alpha" maskUnits="userSpaceOnUse" x="27" y="136" width="308" height="201">
<path d="M27.1173 332.814C27.1173 332.814 66.3916 307.33 117.523 307.781C166.674 308.208 202.364 326.222 244.206 324.357C296.509 322.035 310.628 310.618 310.628 310.618L334.384 140.334C334.384 140.334 320.266 151.75 267.963 154.073C226.121 155.938 190.467 137.924 141.28 137.497C90.1483 137.045 50.8739 162.53 50.8739 162.53L27.1173 332.814Z" fill="#E1DFDD"/>
</mask>
<g mask="url(#mask0)">
<path d="M103.306 161.64L87.6337 253.926C87.6337 253.926 130.312 240.846 181.823 255.095C233.333 269.344 308.888 258.653 326.593 250.839" stroke="white" stroke-width="20" stroke-miterlimit="10" stroke-linecap="round"/>
</g>
<path d="M121.307 124.08C87.4956 129.126 56.017 105.808 50.9703 72.0334C45.9241 38.2218 69.2421 6.74305 103.017 1.69636C136.829 -3.34988 168.307 19.9681 173.354 53.7431C178.437 87.5552 155.119 119.034 121.307 124.08Z" fill="#CA83FC"/>
<path d="M115.417 84.5355C103.472 86.3315 92.313 78.0858 90.5174 66.1047C88.7214 54.1602 96.967 43.0006 108.948 41.2051C120.893 39.4091 132.052 47.6547 133.848 59.6358C135.607 71.6166 127.361 82.7395 115.417 84.5355Z" fill="white"/>
<path d="M125.181 190.342L59.3411 95.1376L171.979 78.854L136.757 188.615C135.116 193.767 128.28 194.782 125.181 190.342Z" fill="#CA83FC"/>
</svg>
