<svg width="223" height="197" viewBox="0 0 223 197" fill="none" xmlns="http://www.w3.org/2000/svg">
<path d="M39.3088 127.879L179.005 127.879L179.005 55.865L39.3088 55.865L39.3088 127.879Z" fill="white"/>
<path d="M136.551 3.09089C76.5948 -8.68887 16.7598 21.5499 2.92366 70.3691C-5.32945 99.3935 6.32201 126.596 26.1052 149.67C40.9123 166.915 22.8282 196.425 22.8282 196.425C22.8282 196.425 53.656 182.095 60.5741 179.423C66.2784 177.237 72.2255 176.751 77.8085 178.209C80.6 178.937 83.5129 179.666 86.4257 180.152C146.382 191.931 206.217 161.693 220.053 112.873C234.011 64.0542 196.508 14.8707 136.551 3.09089ZM68.099 104.737C60.9382 104.737 55.2338 98.9077 55.2338 91.7427C55.2338 84.5777 61.0595 78.87 68.099 78.87C75.2598 78.87 80.9641 84.6991 80.9641 91.7427C80.9641 98.9077 75.1384 104.737 68.099 104.737ZM111.064 104.737C103.903 104.737 98.1986 98.9077 98.1986 91.8642C98.1986 84.6992 104.024 78.9914 111.064 78.9914C118.103 78.9914 123.929 84.8206 123.929 91.9856C124.05 99.0292 118.225 104.737 111.064 104.737ZM154.15 104.858C146.989 104.858 141.285 99.0292 141.285 91.8642C141.285 84.6992 147.11 78.9914 154.15 78.9914C161.311 78.9914 167.015 84.8206 167.015 91.9856C167.015 99.0292 161.189 104.858 154.15 104.858Z" fill="url(#paint0_radial)"/>
<defs>
<radialGradient id="paint0_radial" cx="0" cy="0" r="1" gradientUnits="userSpaceOnUse" gradientTransform="translate(176.469 37.2783) scale(150.614 150.703)">
<stop offset="0.011096" stop-color="#4EA77C"/>
<stop offset="1" stop-color="#5BBF8D"/>
</radialGradient>
</defs>
</svg>
