<svg width="311" height="275" viewBox="0 0 311 275" fill="none" xmlns="http://www.w3.org/2000/svg">
<path d="M4.14545 156.531C23.0791 224.781 106.096 267.285 189.719 251.377C193.846 250.648 197.851 249.677 201.735 248.705C209.502 246.64 217.877 247.369 225.766 250.405C235.354 254.17 278.197 274.329 278.197 274.329C278.197 274.329 253.195 233.161 273.949 209.237C301.743 177.176 318.128 139.408 306.841 98.9684C287.907 30.7186 204.89 -11.7857 121.267 4.12304C37.6434 20.0318 -14.9095 88.2816 4.14545 156.531Z" fill="#E1DFDD"/>
<path d="M103.181 114.756H207.437C213.506 114.756 218.361 109.898 218.361 103.826V103.583C218.361 97.5112 213.506 92.6536 207.437 92.6536H103.181C97.1126 92.6536 92.2578 97.5112 92.2578 103.583V103.826C92.2578 109.898 97.1126 114.756 103.181 114.756Z" fill="#FAF9F8"/>
<path d="M78.1783 167.825H232.439C238.507 167.825 243.362 162.968 243.362 156.896V156.653C243.362 150.581 238.507 145.723 232.439 145.723H78.1783C72.1099 145.723 67.2551 150.581 67.2551 156.653V156.896C67.1337 162.968 72.1099 167.825 78.1783 167.825Z" fill="#FAF9F8"/>
</svg>
