<svg width="581" height="467" viewBox="0 0 581 467" fill="none" xmlns="http://www.w3.org/2000/svg">
<path d="M412.38 452.419H574.295L522.23 343.255C518.68 335.767 511.58 330.644 503.297 329.659L436.44 321.186L412.38 452.419Z" fill="#797674"/>
<path d="M457.74 286.899H125.824C112.413 286.899 101.566 276.062 101.566 262.663V91.0353C101.566 77.6361 112.413 66.7986 125.824 66.7986H376.684C387.136 66.7986 396.405 73.4982 399.758 83.5475L480.814 255.175C486.139 270.742 474.306 286.899 457.74 286.899Z" fill="#C6E8ED"/>
<path d="M574.295 452.419H283.992L250.662 467H581L574.295 452.419Z" fill="#797674"/>
<path d="M394.63 298.131C368.598 305.619 360.709 318.23 360.709 318.23L245.929 353.698L216.938 425.423C216.938 425.423 348.679 356.457 369.781 342.467C369.781 342.467 384.769 334.979 396.405 332.22C409.421 328.87 400.744 296.358 394.63 298.131Z" fill="url(#paint0_radial)"/>
<path d="M403.899 324.535L481.406 334.585" stroke="#797674" stroke-width="6.5155" stroke-miterlimit="10"/>
<path d="M410.013 248.081L382.402 400.792" stroke="#797674" stroke-width="6.5155" stroke-miterlimit="10" stroke-linecap="round"/>
<path d="M138.643 451.63L136.079 467H292.866C292.866 455.965 293.063 443.748 293.458 431.335C295.035 391.531 298.191 357.048 296.416 329.659C293.458 286.308 262.692 251.234 241.195 233.697C220.29 216.751 182.425 226.406 172.564 233.894C147.123 253.205 129.965 299.511 136.671 358.033C138.445 373.994 146.729 401.186 138.643 451.63Z" fill="url(#paint1_radial)"/>
<path d="M174.931 231.136C186.764 218.919 187.355 199.608 187.158 184.436L186.764 137.933L228.574 137.539L226.601 207.49C226.01 222.663 243.562 234.485 247.901 239.412C239.026 233.303 226.207 229.362 226.207 229.362C226.207 229.362 185.778 229.165 171.381 234.682C172.564 233.5 173.747 232.318 174.931 231.136Z" fill="url(#paint2_radial)"/>
<path d="M124.443 96.1588C125.429 138.327 157.97 171.628 197.216 170.642C236.462 169.657 267.623 134.583 266.636 92.612C265.65 50.4441 248.69 17.5373 193.864 18.1284C139.037 18.7196 123.457 53.9909 124.443 96.1588Z" fill="#F9DBBD"/>
<path d="M241.196 193.106C265.256 193.106 276.695 174.977 276.497 155.667L275.709 81.7745C275.511 63.6462 260.72 49.2618 242.576 49.2618C242.576 49.2618 195.244 43.1534 195.244 88.6711L195.836 146.406C195.836 171.234 217.135 193.106 241.196 193.106Z" fill="#DFBA95"/>
<path d="M189.327 53.9908C189.327 53.9908 176.706 39.6064 227.587 39.6064C274.328 39.6064 272.356 67.587 272.356 67.587H240.209C230.743 67.587 222.657 74.2866 220.882 83.5478L216.346 107.39C215.36 112.908 210.627 116.849 205.105 116.849H189.13L189.327 53.9908Z" fill="#F9DBBD"/>
<path d="M275.905 106.011C276.103 121.972 283.794 127.686 288.133 133.203C290.105 135.962 289.711 139.903 287.147 142.268C283.005 146.011 276.497 151.923 276.3 157.44H255.198V106.011H275.905Z" fill="#DFBA95"/>
<path d="M210.43 148.573L191.3 148.77C182.425 148.77 175.128 141.676 175.128 133.006V131.43C175.128 122.563 182.228 115.272 190.905 115.272L210.035 115.075L210.43 148.573Z" fill="#DFBA95"/>
<path d="M223.051 394.29C227.785 329.068 227.587 300.299 227.587 300.299C232.123 275.077 220.488 255.569 202.344 252.417C190.511 250.249 182.228 254.978 174.536 263.254C167.831 270.545 163.098 279.609 159.942 288.87C149.884 319.018 149.49 421.482 171.183 439.217C239.618 495.375 346.903 368.871 351.637 361.777L348.284 345.225C348.481 345.62 249.873 389.758 223.051 394.29Z" fill="#DFBA95"/>
<path d="M348.55 345.549L351.859 361.926C351.859 361.926 367.548 363.43 384.382 359.133C397.288 355.867 400.198 351.781 406.397 348.463C412.136 345.255 411.188 336.365 409.615 333.83C416.814 325.329 407.059 323.48 404.05 324.293L387.992 332.672C387.992 332.672 399.686 323.489 401.196 321.675C403.008 319.498 402.836 314.691 398.002 316.811C393.677 318.616 385.593 322.576 379.745 325.325C356.908 335.802 348.55 345.549 348.55 345.549Z" fill="#DFBA95"/>
<path d="M268.017 163.549C266.44 165.322 264.467 166.307 262.298 166.701C260.129 167.095 257.565 166.898 255.198 165.913C253.029 164.928 250.859 162.957 250.071 160.987C249.479 160.002 249.282 158.819 249.084 157.834C248.887 156.652 248.887 155.667 249.084 154.681C249.282 153.893 250.071 153.302 250.859 153.499C251.057 153.499 251.254 153.696 251.451 153.696L251.648 153.893C252.437 154.484 253.029 155.075 253.62 155.667C254.212 156.061 254.804 156.849 255.395 157.046C256.381 158.031 257.368 158.425 258.354 159.016C259.34 159.411 260.523 159.805 261.904 160.199C263.284 160.593 265.059 160.79 266.834 161.184H267.228C268.017 161.381 268.609 162.169 268.412 162.957C268.214 163.154 268.214 163.351 268.017 163.549Z" fill="#BF8F67"/>
<path d="M191.3 163.943C196.855 163.943 201.358 159.443 201.358 153.893C201.358 148.343 196.855 143.844 191.3 143.844C185.745 143.844 181.242 148.343 181.242 153.893C181.242 159.443 185.745 163.943 191.3 163.943Z" fill="#5BBF8D"/>
<path d="M263.684 118.86C263.715 113.636 261.621 109.389 259.007 109.374C256.393 109.358 254.248 113.58 254.217 118.804C254.186 124.027 256.28 128.275 258.894 128.29C261.508 128.306 263.653 124.083 263.684 118.86Z" fill="#3B322F"/>
<path d="M185.383 210.446C185.383 210.446 214.177 214.781 224.432 220.495C234.687 226.21 243.562 246.702 243.562 246.702C243.562 246.702 200.174 227.195 171.381 234.683C171.381 234.683 182.819 224.436 185.383 210.446Z" fill="#E1DFDD"/>
<path d="M169.606 45.5178C176.706 4.72922 213.388 -7.09357 253.817 9.65538C279.85 20.4929 293.852 46.5031 302.135 27.7837C302.135 27.7837 322.252 48.8676 316.532 72.7102C310.813 96.5529 289.119 104.632 269.792 96.3558C256.973 90.8385 244.943 69.1634 220.291 55.1731C199.583 43.5474 169.606 45.5178 169.606 45.5178Z" fill="url(#paint3_radial)"/>
<path d="M451.231 411.827L484.561 452.222H441.962L451.231 411.827Z" fill="#605E5B"/>
<path d="M437.229 447.098L453.006 360.004" stroke="white" stroke-width="6.5155" stroke-miterlimit="10" stroke-linecap="round"/>
<path d="M77.7032 366.112C131.346 376.359 184.595 349.166 196.822 305.422C204.119 279.609 193.469 255.372 175.72 234.879C162.506 219.51 178.481 193.105 178.481 193.105C178.481 193.105 151.068 205.913 144.954 208.475C139.826 210.446 134.502 210.84 129.571 209.657C127.007 209.066 124.443 208.475 121.88 207.884C68.2368 197.638 14.9883 224.83 2.76087 268.574C-9.66377 312.319 24.0603 356.063 77.7032 366.112Z" fill="#CA83FC"/>
<path d="M126.81 286.899C126.81 293.205 131.938 298.328 138.446 298.328C144.757 298.328 149.884 293.205 149.884 286.702C149.884 280.397 144.757 275.274 138.249 275.274C131.938 275.274 126.81 280.397 126.81 286.899Z" fill="white"/>
<path d="M88.353 287.097C88.353 293.402 93.4807 298.525 99.9888 298.525C106.3 298.525 111.427 293.402 111.427 286.9C111.427 280.594 106.3 275.471 99.7916 275.471C93.4807 275.471 88.353 280.594 88.353 287.097Z" fill="white"/>
<path d="M49.8955 287.097C49.8955 293.402 55.0231 298.525 61.5313 298.525C67.8422 298.525 72.9698 293.402 72.9698 286.9C72.9698 280.594 67.8422 275.471 61.3341 275.471C55.0231 275.668 49.8955 280.791 49.8955 287.097Z" fill="white"/>
<path d="M391.869 155.667L301.347 245.914" stroke="white" stroke-width="2.6062" stroke-miterlimit="10" stroke-linecap="round"/>
<path d="M397.194 198.426L352.623 242.958" stroke="white" stroke-width="2.6062" stroke-miterlimit="10" stroke-linecap="round"/>
<defs>
<radialGradient id="paint0_radial" cx="0" cy="0" r="1" gradientUnits="userSpaceOnUse" gradientTransform="translate(392.77 407.344) scale(108.569 108.475)">
<stop offset="0.00146995" stop-color="#BF8F67"/>
<stop offset="1" stop-color="#DFBA95"/>
</radialGradient>
<radialGradient id="paint1_radial" cx="0" cy="0" r="1" gradientUnits="userSpaceOnUse" gradientTransform="translate(203.671 202.312) scale(100.144 100.058)">
<stop stop-color="#B3AFAB"/>
<stop offset="0.1658" stop-color="#C1BDB9"/>
<stop offset="0.4454" stop-color="#D2CFCC"/>
<stop offset="0.7244" stop-color="#DDDBD9"/>
<stop offset="1" stop-color="#E1DFDD"/>
</radialGradient>
<radialGradient id="paint2_radial" cx="0" cy="0" r="1" gradientUnits="userSpaceOnUse" gradientTransform="translate(252.596 181.382) scale(45.0598 45.021)">
<stop offset="0.00146995" stop-color="#BF8F67"/>
<stop offset="1" stop-color="#DFBA95"/>
</radialGradient>
<radialGradient id="paint3_radial" cx="0" cy="0" r="1" gradientUnits="userSpaceOnUse" gradientTransform="translate(350.225 31.4574) rotate(180) scale(126.078 125.97)">
<stop stop-color="#EF8F95"/>
<stop offset="0.1925" stop-color="#F2A8A2"/>
<stop offset="0.4009" stop-color="#F5BFAE"/>
<stop offset="0.6075" stop-color="#F7CFB6"/>
<stop offset="0.8091" stop-color="#F8D8BB"/>
<stop offset="1" stop-color="#F9DBBD"/>
</radialGradient>
</defs>
</svg>
