<svg width="805" height="524" viewBox="0 0 805 524" fill="none" xmlns="http://www.w3.org/2000/svg">
<path d="M442.894 213.463C439.981 182.374 450.905 156.264 450.905 156.143C452.725 153.35 455.395 155.05 456.245 158.572C456.973 162.094 459.522 173.631 459.522 173.631L484.403 154.321C486.102 151.771 494.598 152.986 491.321 160.029C488.044 167.073 485.495 172.052 480.761 183.832C475.907 196.097 453.575 218.928 453.575 218.928L442.894 213.463Z" fill="#BD8F6B"/>
<path d="M443.865 204.719L407.09 282.32L443.137 298.715L457.337 207.998L443.865 204.719Z" fill="#BD8F6B"/>
<path d="M423.353 247.952C423.353 247.952 389.855 333.204 363.396 282.806C354.658 267.869 349.924 220.507 304.168 217.349L224.186 240.544L313.756 388.338C337.787 420.398 403.327 431.571 436.218 364.171C457.457 320.452 459.642 274.548 459.642 274.548L423.353 247.952Z" fill="url(#paint0_radial)"/>
<path d="M213.02 93.7227C213.02 93.7227 177.337 94.6942 157.675 117.525C137.285 141.085 134.736 170.23 134.736 170.23" stroke="#33312D" stroke-width="22.1777" stroke-miterlimit="10" stroke-linecap="round"/>
<path d="M219.576 94.9372C219.576 94.9372 186.442 81.5787 159.377 94.6943C131.34 108.296 117.383 133.92 117.383 133.92" stroke="#33312D" stroke-width="22.1777" stroke-miterlimit="10" stroke-linecap="round"/>
<path d="M219.94 92.994C219.94 92.994 191.782 71.0132 162.168 76.1138C131.462 81.3357 110.95 102.224 110.95 102.224" stroke="#33312D" stroke-width="22.1777" stroke-miterlimit="10" stroke-linecap="round"/>
<path d="M219.697 87.6502C219.697 87.6502 196.758 60.2045 166.658 58.9901C135.467 57.6543 111.071 73.8059 111.071 73.8059" stroke="#33312D" stroke-width="22.1777" stroke-miterlimit="10" stroke-linecap="round"/>
<path d="M211.561 61.2977C211.561 61.2977 196.147 56.8044 186.68 75.9921C173.937 101.98 188.865 116.31 188.865 116.31L211.561 61.2977Z" fill="#5BBF8D"/>
<path d="M264.828 173.323C302.049 168.451 328.383 135.119 323.644 98.8728C318.906 62.6268 284.891 37.1926 247.669 42.064C210.448 46.9355 184.114 80.2678 188.853 116.514C193.591 152.76 227.606 178.194 264.828 173.323Z" fill="#33312D"/>
<path d="M346.161 343.162C349.681 332.597 351.744 321.303 351.987 309.402C353.079 251.717 310.6 204.234 257.198 203.262C203.795 202.291 159.617 248.195 158.646 305.88C158.524 314.502 159.374 323.003 161.073 331.018L161.194 331.504C161.801 334.054 162.408 336.726 163.136 339.276L171.996 374.372C178.914 401.697 176.972 430.721 166.413 456.709L150.393 496.421L353.322 500.064L338.758 459.867C329.17 433.514 328.32 404.368 336.209 377.287L346.161 343.162Z" fill="url(#paint1_radial)"/>
<mask id="mask0" mask-type="alpha" maskUnits="userSpaceOnUse" x="0" y="0" width="805" height="524">
<rect width="805" height="524" fill="#C4C4C4"/>
</mask>
<g mask="url(#mask0)">
<path d="M350.774 492.777L338.758 459.866C335.36 450.516 333.175 440.922 331.961 431.085L174.181 428.17C172.604 437.886 170.055 447.48 166.292 456.709L149.422 498.363H150.029C144.446 510.507 140.562 523.744 138.863 537.953C130.974 604.624 174.667 664.737 236.444 672.024C298.221 679.31 354.779 631.22 362.668 564.549C365.945 538.803 361.211 513.908 350.774 492.777Z" fill="#797674"/>
</g>
<path d="M233.289 189.782C237.294 166.466 230.254 140.72 230.254 140.72L274.433 148.614C274.433 148.614 276.011 179.946 281.229 194.397C286.084 207.877 304.411 217.349 304.411 217.349L284.385 216.985C280.38 216.864 276.739 219.657 275.646 223.543L269.092 243.945L263.024 223.3C262.053 219.414 258.655 216.621 254.65 216.499L210.107 215.649C209.986 215.649 230.861 203.869 233.289 189.782Z" fill="url(#paint2_radial)"/>
<path d="M258.653 59.3547C285.475 55.8329 310.113 74.7777 313.633 101.616C318.124 135.741 302.952 176.788 273.581 180.674C244.21 184.56 220.785 148.492 216.416 114.367C212.775 87.529 231.709 62.8765 258.653 59.3547Z" fill="#BD8F6B"/>
<path d="M274.675 100.28L304.653 96.3938L311.692 150.678L282.928 163.672L274.675 100.28Z" fill="url(#paint3_radial)"/>
<path d="M298.597 125.348C300.923 125.044 302.379 121.508 301.849 117.451C301.318 113.394 299.002 110.353 296.676 110.657C294.35 110.961 292.894 114.497 293.424 118.554C293.954 122.611 296.27 125.653 298.597 125.348Z" fill="#3B322F"/>
<path d="M257.93 130.827C260.256 130.523 261.712 126.987 261.182 122.93C260.651 118.873 258.335 115.832 256.009 116.136C253.683 116.44 252.227 119.976 252.757 124.033C253.287 128.09 255.603 131.132 257.93 130.827Z" fill="#3B322F"/>
<path d="M292.882 139.627C288.756 142.663 282.323 148.006 281.352 151.771C270.915 142.784 274.434 108.417 274.434 108.417C274.434 108.417 277.711 120.075 282.323 125.418C284.751 128.333 289.605 132.097 292.761 134.648C294.46 135.862 294.46 138.291 292.882 139.627Z" fill="#BD8F6B"/>
<path d="M222.608 152.621L236.565 150.8L233.045 124.326L219.088 126.147C211.806 127.119 206.587 133.798 207.558 141.085C208.65 148.492 215.325 153.593 222.608 152.621Z" fill="#BD8F6B"/>
<path d="M285.963 58.5048C285.963 58.5048 292.395 80.7285 270.913 91.901C257.319 98.9446 245.304 91.901 232.682 107.81C224.914 117.647 224.428 125.54 224.428 125.54L203.917 128.212L212.534 65.5484C212.534 65.5484 250.401 44.2962 285.963 58.5048Z" fill="#33312D"/>
<path d="M286.569 155.293L266.421 152.5C265.208 152.378 264.115 153.35 264.237 154.564C264.601 157.964 266.3 164.644 274.068 166.101C281.957 167.68 286.205 161.365 287.904 157.964C288.511 156.75 287.782 155.414 286.569 155.293Z" fill="#9C413E"/>
<path d="M275.892 157.6C280.746 158.329 285.116 157.722 288.029 156.386C287.786 155.779 287.3 155.414 286.572 155.293L266.425 152.5C265.697 152.378 265.09 152.743 264.726 153.229C267.032 155.293 271.158 156.872 275.892 157.6Z" fill="#FDFDFC"/>
<path d="M208.164 216.742C208.164 216.742 111.069 238.116 76.2356 331.139C41.0385 425.378 112.646 472.861 177.579 460.717C180.006 437.886 185.589 398.296 190.687 372.429C176.608 370.243 175.273 363.929 185.347 350.691C230.253 292.521 208.164 216.742 208.164 216.742Z" fill="#CA83FC"/>
<path d="M316.561 284.691L208.394 293.258L219.437 432.846L327.605 424.278L316.561 284.691Z" fill="#FDFDFC"/>
<path d="M275.646 378.137L278.559 398.661C289.118 396.596 295.672 394.532 301.498 392.831C313.635 389.431 323.466 384.331 323.466 384.331C331.962 380.809 328.806 376.437 328.685 376.194C330.991 374.737 332.569 372.186 332.205 369.758C331.962 368.057 330.869 366.965 329.413 366.357C331.476 364.779 332.69 362.471 332.326 360.285C332.083 358.707 331.112 357.492 329.656 357.006C328.685 356.642 328.321 355.549 328.928 354.82C329.777 353.606 330.263 352.149 330.02 350.691C329.656 347.777 326.5 346.198 323.102 347.291C322.616 347.413 307.931 353.363 303.683 350.57C300.406 348.384 312.664 338.669 311.815 330.046C311.208 323.61 307.567 325.553 302.59 333.447C298.707 339.64 288.633 350.084 285.599 358.707C284.142 363.321 283.778 368.543 275.646 378.137Z" fill="#BD8F6B"/>
<path d="M190.93 372.551C190.93 372.551 251.858 389.431 275.646 378.137C299.434 366.843 302.347 363.686 302.347 363.686L278.559 398.782C278.559 398.782 231.346 417.362 183.405 416.877C184.619 393.196 190.93 372.551 190.93 372.551Z" fill="#BD8F6B"/>
<path d="M181.464 417.119L190.931 372.551L181.1 371.093L175.76 374.979L181.464 417.119Z" fill="#AC87BD"/>
<path d="M447.992 6.28481C401.386 -2.82326 354.902 20.6148 344.1 58.6258C337.667 81.0924 346.77 102.223 362.184 120.196C373.714 133.676 359.635 156.507 359.635 156.507C359.635 156.507 383.666 145.456 389.006 143.27C393.376 141.57 398.109 141.206 402.357 142.42C404.542 143.027 406.848 143.513 409.032 143.999C455.638 153.107 502.123 129.669 512.925 91.6578C523.726 53.6468 494.598 15.3929 447.992 6.28481ZM393.497 85.2214C387.914 85.2214 383.423 80.7281 383.423 75.1418C383.423 69.5555 387.914 65.0622 393.497 65.0622C399.08 65.0622 403.571 69.5555 403.571 75.1418C403.571 80.7281 399.08 85.2214 393.497 85.2214ZM428.209 85.3428C422.626 85.3428 418.135 80.8495 418.135 75.2632C418.135 69.677 422.626 65.1836 428.209 65.1836C433.792 65.1836 438.282 69.677 438.282 75.2632C438.161 80.8495 433.67 85.3428 428.209 85.3428ZM461.585 85.3428C456.002 85.3428 451.512 80.8495 451.512 75.2632C451.512 69.677 456.002 65.1836 461.585 65.1836C467.168 65.1836 471.659 69.677 471.659 75.2632C471.659 80.8495 467.168 85.3428 461.585 85.3428Z" fill="white"/>
<path d="M461.584 85.343C456.001 85.343 451.511 80.8497 451.511 75.2634C451.511 69.6772 456.001 65.1838 461.584 65.1838C467.167 65.1838 471.658 69.6772 471.658 75.2634C471.658 80.8497 467.167 85.343 461.584 85.343Z" fill="#797674"/>
<path d="M427.357 85.343C421.774 85.343 417.283 80.8497 417.283 75.2634C417.283 69.6772 421.774 65.1838 427.357 65.1838C432.94 65.1838 437.43 69.6772 437.43 75.2634C437.43 80.8497 432.94 85.343 427.357 85.343Z" fill="#797674"/>
<path d="M393.251 85.3433C387.668 85.3433 383.178 80.85 383.178 75.2637C383.178 69.6774 387.668 65.1841 393.251 65.1841C398.834 65.1841 403.325 69.6774 403.325 75.2637C403.204 80.85 398.713 85.3433 393.251 85.3433Z" fill="#797674"/>
<defs>
<radialGradient id="paint0_radial" cx="0" cy="0" r="1" gradientUnits="userSpaceOnUse" gradientTransform="translate(341.939 354.8) rotate(-14.6801) scale(66.6971 80.0144)">
<stop stop-color="#B072D9"/>
<stop offset="1" stop-color="#CA83FD"/>
</radialGradient>
<radialGradient id="paint1_radial" cx="0" cy="0" r="1" gradientUnits="userSpaceOnUse" gradientTransform="translate(262.057 351.727) rotate(111.489) scale(159.358 108.958)">
<stop stop-color="#B475DF"/>
<stop offset="0.766664" stop-color="#CB83FD"/>
</radialGradient>
<radialGradient id="paint2_radial" cx="0" cy="0" r="1" gradientUnits="userSpaceOnUse" gradientTransform="translate(257.341 147.818) rotate(-178.958) scale(51.7963 51.8269)">
<stop stop-color="#9A6642"/>
<stop offset="1" stop-color="#BD8F6B"/>
</radialGradient>
<radialGradient id="paint3_radial" cx="0" cy="0" r="1" gradientUnits="userSpaceOnUse" gradientTransform="translate(282.244 137.456) rotate(-9.74112) scale(25.7453 24.0818)">
<stop stop-color="#9B643D"/>
<stop offset="1" stop-color="#BF8F67" stop-opacity="0"/>
</radialGradient>
</defs>
</svg>
