<svg width="805" height="525" viewBox="0 0 805 525" fill="none" xmlns="http://www.w3.org/2000/svg">
<path d="M258.532 460.138C401.24 460.138 516.927 357.323 516.927 230.494C516.927 103.664 401.24 0.848877 258.532 0.848877C115.824 0.848877 0.136719 103.664 0.136719 230.494C0.136719 357.323 115.824 460.138 258.532 460.138Z" fill="#30C4EB"/>
<path d="M432.309 398.879L572.005 398.879L572.005 326.865L432.309 326.865L432.309 398.879Z" fill="white"/>
<path d="M529.551 274.091C469.595 262.311 409.76 292.55 395.924 341.369C387.671 370.393 399.322 397.596 419.105 420.67C433.912 437.915 415.828 467.425 415.828 467.425C415.828 467.425 446.656 453.095 453.574 450.423C459.278 448.237 465.226 447.751 470.809 449.209C473.6 449.937 476.513 450.666 479.426 451.152C539.382 462.931 599.217 432.693 613.053 383.873C627.011 335.054 589.508 285.871 529.551 274.091ZM461.099 375.737C453.938 375.737 448.234 369.908 448.234 362.743C448.234 355.578 454.06 349.87 461.099 349.87C468.26 349.87 473.964 355.699 473.964 362.743C473.964 369.908 468.138 375.737 461.099 375.737ZM504.064 375.737C496.903 375.737 491.199 369.908 491.199 362.864C491.199 355.699 497.024 349.991 504.064 349.991C511.103 349.991 516.929 355.821 516.929 362.986C517.05 370.029 511.225 375.737 504.064 375.737ZM547.15 375.858C539.989 375.858 534.285 370.029 534.285 362.864C534.285 355.699 540.11 349.991 547.15 349.991C554.311 349.991 560.015 355.821 560.015 362.986C560.015 370.029 554.189 375.858 547.15 375.858Z" fill="url(#paint0_radial)"/>
<path d="M496.145 242.531C515.079 310.781 598.096 353.285 681.719 337.377C685.846 336.648 689.851 335.677 693.735 334.705C701.502 332.64 709.877 333.369 717.766 336.405C727.354 340.17 770.197 360.329 770.197 360.329C770.197 360.329 745.195 319.161 765.949 295.237C793.743 263.176 810.128 225.408 798.841 184.968C779.907 116.719 696.89 74.2143 613.267 90.123C529.643 106.032 477.09 174.282 496.145 242.531Z" fill="#E1DFDD"/>
<path d="M595.181 200.756H699.437C705.506 200.756 710.361 195.898 710.361 189.826V189.583C710.361 183.511 705.506 178.654 699.437 178.654H595.181C589.113 178.654 584.258 183.511 584.258 189.583V189.826C584.258 195.898 589.113 200.756 595.181 200.756Z" fill="#FAF9F8"/>
<path d="M570.178 253.825H724.439C730.507 253.825 735.362 248.968 735.362 242.896V242.653C735.362 236.581 730.507 231.723 724.439 231.723H570.178C564.11 231.723 559.255 236.581 559.255 242.653V242.896C559.134 248.968 564.11 253.825 570.178 253.825Z" fill="#FAF9F8"/>
<path d="M442.894 214.463C439.981 183.374 450.905 157.264 450.905 157.143C452.725 154.35 455.395 156.05 456.245 159.572C456.973 163.094 459.522 174.631 459.522 174.631L484.403 155.321C486.102 152.771 494.598 153.986 491.321 161.029C488.044 168.073 485.495 173.052 480.761 184.832C475.907 197.097 453.575 219.928 453.575 219.928L442.894 214.463Z" fill="#BD8F6B"/>
<path d="M443.865 205.719L407.09 283.32L443.137 299.715L457.337 208.998L443.865 205.719Z" fill="#BD8F6B"/>
<path d="M423.353 248.952C423.353 248.952 389.855 334.204 363.396 283.806C354.658 268.869 349.924 221.507 304.168 218.349L224.186 241.544L313.756 389.338C337.787 421.398 403.327 432.571 436.218 365.171C457.457 321.452 459.642 275.548 459.642 275.548L423.353 248.952Z" fill="url(#paint1_radial)"/>
<path d="M213.02 94.7227C213.02 94.7227 177.337 95.6942 157.675 118.525C137.285 142.085 134.736 171.23 134.736 171.23" stroke="#33312D" stroke-width="22.1777" stroke-miterlimit="10" stroke-linecap="round"/>
<path d="M219.576 95.9372C219.576 95.9372 186.442 82.5787 159.377 95.6943C131.34 109.296 117.383 134.92 117.383 134.92" stroke="#33312D" stroke-width="22.1777" stroke-miterlimit="10" stroke-linecap="round"/>
<path d="M219.94 93.994C219.94 93.994 191.782 72.0132 162.168 77.1138C131.462 82.3357 110.95 103.224 110.95 103.224" stroke="#33312D" stroke-width="22.1777" stroke-miterlimit="10" stroke-linecap="round"/>
<path d="M219.697 88.6502C219.697 88.6502 196.758 61.2045 166.658 59.9901C135.467 58.6543 111.071 74.8059 111.071 74.8059" stroke="#33312D" stroke-width="22.1777" stroke-miterlimit="10" stroke-linecap="round"/>
<path d="M211.561 62.2977C211.561 62.2977 196.147 57.8044 186.68 76.9921C173.937 102.98 188.865 117.31 188.865 117.31L211.561 62.2977Z" fill="#5BBF8D"/>
<path d="M264.828 174.323C302.049 169.451 328.383 136.119 323.644 99.8728C318.906 63.6268 284.891 38.1926 247.669 43.064C210.448 47.9355 184.114 81.2678 188.853 117.514C193.591 153.76 227.606 179.194 264.828 174.323Z" fill="#33312D"/>
<path d="M346.161 344.162C349.681 333.597 351.744 322.303 351.987 310.402C353.079 252.717 310.6 205.234 257.198 204.262C203.795 203.291 159.617 249.195 158.646 306.88C158.524 315.502 159.374 324.003 161.073 332.018L161.194 332.504C161.801 335.054 162.408 337.726 163.136 340.276L171.996 375.372C178.914 402.697 176.972 431.721 166.413 457.709L150.393 497.421L353.322 501.064L338.758 460.867C329.17 434.514 328.32 405.368 336.209 378.287L346.161 344.162Z" fill="url(#paint2_radial)"/>
<mask id="mask0" mask-type="alpha" maskUnits="userSpaceOnUse" x="0" y="1" width="805" height="524">
<rect y="1" width="805" height="524" fill="#C4C4C4"/>
</mask>
<g mask="url(#mask0)">
<path d="M350.774 493.777L338.758 460.866C335.36 451.516 333.175 441.922 331.961 432.085L174.181 429.17C172.604 438.886 170.055 448.48 166.292 457.709L149.422 499.363H150.029C144.446 511.507 140.562 524.744 138.863 538.953C130.974 605.624 174.667 665.737 236.444 673.024C298.221 680.31 354.779 632.22 362.668 565.549C365.945 539.803 361.211 514.908 350.774 493.777Z" fill="#797674"/>
</g>
<path d="M233.289 190.782C237.294 167.466 230.254 141.72 230.254 141.72L274.433 149.614C274.433 149.614 276.011 180.946 281.229 195.397C286.084 208.877 304.411 218.349 304.411 218.349L284.385 217.985C280.38 217.864 276.739 220.657 275.646 224.543L269.092 244.945L263.024 224.3C262.053 220.414 258.655 217.621 254.65 217.499L210.107 216.649C209.986 216.649 230.861 204.869 233.289 190.782Z" fill="url(#paint3_radial)"/>
<path d="M258.653 60.3547C285.475 56.8329 310.113 75.7777 313.633 102.616C318.124 136.741 302.952 177.788 273.581 181.674C244.21 185.56 220.785 149.492 216.416 115.367C212.775 88.529 231.709 63.8765 258.653 60.3547Z" fill="#BD8F6B"/>
<path d="M274.675 101.28L304.653 97.3938L311.692 151.678L282.928 164.672L274.675 101.28Z" fill="url(#paint4_radial)"/>
<path d="M298.597 126.348C300.923 126.044 302.379 122.508 301.849 118.451C301.318 114.394 299.002 111.353 296.676 111.657C294.35 111.961 292.894 115.497 293.424 119.554C293.954 123.611 296.27 126.653 298.597 126.348Z" fill="#3B322F"/>
<path d="M257.93 131.827C260.256 131.523 261.712 127.987 261.182 123.93C260.651 119.873 258.335 116.832 256.009 117.136C253.683 117.44 252.227 120.976 252.757 125.033C253.287 129.09 255.603 132.132 257.93 131.827Z" fill="#3B322F"/>
<path d="M292.882 140.627C288.756 143.663 282.323 149.006 281.352 152.771C270.915 143.784 274.434 109.417 274.434 109.417C274.434 109.417 277.711 121.075 282.323 126.418C284.751 129.333 289.605 133.097 292.761 135.648C294.46 136.862 294.46 139.291 292.882 140.627Z" fill="#BD8F6B"/>
<path d="M222.608 153.621L236.565 151.8L233.045 125.326L219.088 127.147C211.806 128.119 206.587 134.798 207.558 142.085C208.65 149.492 215.325 154.593 222.608 153.621Z" fill="#BD8F6B"/>
<path d="M285.963 59.5048C285.963 59.5048 292.395 81.7285 270.913 92.901C257.319 99.9446 245.304 92.901 232.682 108.81C224.914 118.647 224.428 126.54 224.428 126.54L203.917 129.212L212.534 66.5484C212.534 66.5484 250.401 45.2962 285.963 59.5048Z" fill="#33312D"/>
<path d="M286.569 156.293L266.421 153.5C265.208 153.378 264.115 154.35 264.237 155.564C264.601 158.964 266.3 165.644 274.068 167.101C281.957 168.68 286.205 162.365 287.904 158.964C288.511 157.75 287.782 156.414 286.569 156.293Z" fill="#9C413E"/>
<path d="M275.892 158.6C280.746 159.329 285.116 158.722 288.029 157.386C287.786 156.779 287.3 156.414 286.572 156.293L266.425 153.5C265.697 153.378 265.09 153.743 264.726 154.229C267.032 156.293 271.158 157.872 275.892 158.6Z" fill="#FDFDFC"/>
<path d="M208.164 217.742C208.164 217.742 111.069 239.116 76.2356 332.139C41.0385 426.378 112.646 473.861 177.579 461.717C180.006 438.886 185.589 399.296 190.687 373.429C176.608 371.243 175.273 364.929 185.347 351.691C230.253 293.521 208.164 217.742 208.164 217.742Z" fill="#CA83FC"/>
<path d="M316.561 285.691L208.394 294.258L219.437 433.846L327.605 425.278L316.561 285.691Z" fill="#FDFDFC"/>
<path d="M275.646 379.137L278.559 399.661C289.118 397.596 295.672 395.532 301.498 393.831C313.635 390.431 323.466 385.331 323.466 385.331C331.962 381.809 328.806 377.437 328.685 377.194C330.991 375.737 332.569 373.186 332.205 370.758C331.962 369.057 330.869 367.964 329.413 367.357C331.476 365.779 332.69 363.471 332.326 361.285C332.083 359.707 331.112 358.492 329.656 358.006C328.685 357.642 328.321 356.549 328.928 355.82C329.777 354.606 330.263 353.149 330.02 351.691C329.656 348.777 326.5 347.198 323.102 348.291C322.616 348.413 307.931 354.363 303.683 351.57C300.406 349.384 312.664 339.669 311.815 331.046C311.208 324.61 307.567 326.553 302.59 334.447C298.707 340.64 288.633 351.084 285.599 359.707C284.142 364.321 283.778 369.543 275.646 379.137Z" fill="#BD8F6B"/>
<path d="M190.93 373.551C190.93 373.551 251.858 390.431 275.646 379.137C299.434 367.843 302.347 364.686 302.347 364.686L278.559 399.782C278.559 399.782 231.346 418.362 183.405 417.877C184.619 394.196 190.93 373.551 190.93 373.551Z" fill="#BD8F6B"/>
<path d="M181.464 418.119L190.931 373.551L181.1 372.093L175.76 375.979L181.464 418.119Z" fill="#AC87BD"/>
<path d="M447.992 7.28481C401.386 -1.82326 354.902 21.6148 344.1 59.6258C337.667 82.0924 346.77 103.223 362.184 121.196C373.714 134.676 359.635 157.507 359.635 157.507C359.635 157.507 383.666 146.456 389.006 144.27C393.376 142.57 398.109 142.206 402.357 143.42C404.542 144.027 406.848 144.513 409.032 144.999C455.638 154.107 502.123 130.669 512.925 92.6578C523.726 54.6468 494.598 16.3929 447.992 7.28481ZM393.497 86.2214C387.914 86.2214 383.423 81.7281 383.423 76.1418C383.423 70.5555 387.914 66.0622 393.497 66.0622C399.08 66.0622 403.571 70.5555 403.571 76.1418C403.571 81.7281 399.08 86.2214 393.497 86.2214ZM428.209 86.3428C422.626 86.3428 418.135 81.8495 418.135 76.2632C418.135 70.677 422.626 66.1836 428.209 66.1836C433.792 66.1836 438.282 70.677 438.282 76.2632C438.161 81.8495 433.67 86.3428 428.209 86.3428ZM461.585 86.3428C456.002 86.3428 451.512 81.8495 451.512 76.2632C451.512 70.677 456.002 66.1836 461.585 66.1836C467.168 66.1836 471.659 70.677 471.659 76.2632C471.659 81.8495 467.168 86.3428 461.585 86.3428Z" fill="white"/>
<path d="M461.584 86.343C456.001 86.343 451.511 81.8497 451.511 76.2634C451.511 70.6772 456.001 66.1838 461.584 66.1838C467.167 66.1838 471.658 70.6772 471.658 76.2634C471.658 81.8497 467.167 86.343 461.584 86.343Z" fill="#797674"/>
<path d="M427.357 86.343C421.774 86.343 417.283 81.8497 417.283 76.2634C417.283 70.6772 421.774 66.1838 427.357 66.1838C432.94 66.1838 437.43 70.6772 437.43 76.2634C437.43 81.8497 432.94 86.343 427.357 86.343Z" fill="#797674"/>
<path d="M393.251 86.3433C387.668 86.3433 383.178 81.85 383.178 76.2637C383.178 70.6774 387.668 66.1841 393.251 66.1841C398.834 66.1841 403.325 70.6774 403.325 76.2637C403.204 81.85 398.713 86.3433 393.251 86.3433Z" fill="#797674"/>
<defs>
<radialGradient id="paint0_radial" cx="0" cy="0" r="1" gradientUnits="userSpaceOnUse" gradientTransform="translate(569.469 308.278) scale(150.614 150.703)">
<stop offset="0.011096" stop-color="#4EA77C"/>
<stop offset="1" stop-color="#5BBF8D"/>
</radialGradient>
<radialGradient id="paint1_radial" cx="0" cy="0" r="1" gradientUnits="userSpaceOnUse" gradientTransform="translate(341.939 355.8) rotate(-14.6801) scale(66.6971 80.0144)">
<stop stop-color="#B072D9"/>
<stop offset="1" stop-color="#CA83FD"/>
</radialGradient>
<radialGradient id="paint2_radial" cx="0" cy="0" r="1" gradientUnits="userSpaceOnUse" gradientTransform="translate(262.057 352.727) rotate(111.489) scale(159.358 108.958)">
<stop stop-color="#B475DF"/>
<stop offset="0.766664" stop-color="#CB83FD"/>
</radialGradient>
<radialGradient id="paint3_radial" cx="0" cy="0" r="1" gradientUnits="userSpaceOnUse" gradientTransform="translate(257.341 148.818) rotate(-178.958) scale(51.7963 51.8269)">
<stop stop-color="#9A6642"/>
<stop offset="1" stop-color="#BD8F6B"/>
</radialGradient>
<radialGradient id="paint4_radial" cx="0" cy="0" r="1" gradientUnits="userSpaceOnUse" gradientTransform="translate(282.244 138.456) rotate(-9.74112) scale(25.7453 24.0818)">
<stop stop-color="#9B643D"/>
<stop offset="1" stop-color="#BF8F67" stop-opacity="0"/>
</radialGradient>
</defs>
</svg>
