<svg width="497" height="461" viewBox="0 0 497 461" fill="none" xmlns="http://www.w3.org/2000/svg">
<mask id="mask0" mask-type="alpha" maskUnits="userSpaceOnUse" x="0" y="0" width="497" height="461">
<rect width="497" height="461" fill="#C4C4C4"/>
</mask>
<g mask="url(#mask0)">
<path d="M443.028 383.935C442.284 383.935 441.353 383.563 440.795 383.003C440.423 382.444 397.802 328.927 445.634 247.066C468.526 207.907 460.523 167.256 442.284 144.134C436.328 136.488 429.256 131.081 422.556 128.843C421.067 128.284 420.322 126.792 420.694 125.3C421.067 123.808 422.742 123.062 424.231 123.435C432.234 126.046 439.864 132.013 446.564 140.591C465.734 165.205 474.482 208.466 450.287 249.676C404.502 328.181 444.517 378.714 444.889 379.274C445.82 380.393 445.634 382.257 444.517 383.19C444.145 383.749 443.587 383.935 443.028 383.935Z" fill="#33684D"/>
<path d="M451.961 317.738C458.661 313.263 462.384 305.991 462.384 298.345C455.497 295.362 447.308 295.921 440.608 300.396C433.908 304.872 430.186 312.144 430.186 319.789C437.072 322.773 445.261 322.213 451.961 317.738Z" fill="#33684D"/>
<path d="M399.292 313.822C405.248 319.23 413.251 320.908 420.509 319.043C421.626 311.585 419.02 303.753 413.064 298.345C407.109 292.938 399.106 291.259 391.847 293.124C390.731 300.583 393.336 308.415 399.292 313.822Z" fill="#488766"/>
<path d="M458.848 356.151C464.432 350.371 466.479 342.352 464.99 335.08C457.546 333.588 449.729 335.826 444.145 341.606C438.562 347.387 436.514 355.405 438.003 362.678C445.262 364.169 453.265 361.932 458.848 356.151Z" fill="#488766"/>
<path d="M406.549 363.423C413.621 367.526 421.81 367.526 428.511 364.169C427.952 356.71 423.858 349.625 416.971 345.522C409.899 341.42 401.71 341.42 395.01 344.776C395.382 352.235 399.477 359.321 406.549 363.423Z" fill="#33684D"/>
<path d="M460.71 279.885C468.341 277.087 473.552 270.747 475.227 263.475C469.085 259 461.082 257.694 453.452 260.492C445.821 263.289 440.61 269.629 438.935 276.901C445.076 281.19 453.265 282.682 460.71 279.885Z" fill="#488766"/>
<path d="M410.27 264.035C414.922 270.561 422.367 274.104 429.812 273.918C432.603 266.832 431.859 258.813 427.206 252.1C422.553 245.574 415.109 242.031 407.664 242.217C404.872 249.303 405.617 257.508 410.27 264.035Z" fill="#488766"/>
<path d="M482.484 237.183C490.114 234.385 495.325 228.045 497.001 220.773C490.859 216.298 482.856 214.992 475.225 217.79C467.594 220.587 462.383 226.927 460.708 234.199C466.85 238.488 475.039 239.98 482.484 237.183Z" fill="#33684D"/>
<path d="M432.045 221.333C436.698 227.859 444.143 231.402 451.587 231.216C454.379 224.316 453.634 216.111 448.982 209.399C444.329 202.872 436.884 199.329 429.439 199.516C426.648 206.601 427.392 214.806 432.045 221.333Z" fill="#488766"/>
<path d="M483.043 181.428C488.254 176.953 490.674 170.426 489.929 164.086C483.788 162.221 476.901 163.527 471.69 168.002C466.479 172.477 464.059 179.004 464.804 185.344C470.946 187.022 477.832 185.903 483.043 181.428Z" fill="#33684D"/>
<path d="M438.191 183.293C443.775 187.208 450.661 187.954 456.617 185.53C456.803 179.19 453.825 172.85 448.241 168.748C442.658 164.832 435.772 164.086 429.816 166.51C429.63 173.037 432.608 179.377 438.191 183.293Z" fill="#488766"/>
<path d="M458.849 128.097C460.524 122.317 459.221 116.163 455.499 111.874C450.101 113.552 445.634 117.841 443.773 123.622C442.098 129.402 443.401 135.556 447.123 139.845C452.521 138.167 456.988 133.878 458.849 128.097Z" fill="#488766"/>
<path d="M426.279 151.406C432.421 151.593 437.818 148.796 441.168 144.134C438.191 139.285 432.979 135.929 426.837 135.743C420.696 135.556 415.298 138.353 411.948 143.015C414.926 147.863 420.137 151.033 426.279 151.406Z" fill="#488766"/>
<path d="M403.57 461.321H469.455C471.13 461.321 472.619 460.016 472.805 458.337L480.436 383.003C480.622 380.952 479.133 379.274 477.086 379.274H395.753C393.706 379.274 392.217 380.952 392.403 383.003L400.034 458.337C400.22 460.016 401.709 461.321 403.57 461.321Z" fill="black"/>
<path d="M478.576 388.784H394.079C393.521 388.784 393.148 388.411 393.148 387.851C393.148 387.292 393.521 386.919 394.079 386.919H478.576C479.134 386.919 479.506 387.292 479.506 387.851C479.506 388.411 479.134 388.784 478.576 388.784Z" fill="#F2EDEB"/>
<path d="M145.057 307.109C145.057 307.855 145.057 308.415 145.057 309.161C144.87 308.415 144.87 307.855 145.057 307.109Z" fill="#69BEEB"/>
<path d="M145.057 307.109C145.057 307.855 145.057 308.415 145.057 309.161C144.87 308.415 144.87 307.855 145.057 307.109Z" fill="#69BEEB"/>
<path d="M16.3585 319.019C16.5446 316.968 1.09699 299.999 7.79715 271.283C14.4973 242.566 58.979 240.142 66.9819 271.656C73.496 297.575 48.3704 316.595 47.812 318.46C46.3231 320.698 47.0676 323.681 48.7426 324.986C58.7928 330.767 65.8652 344.007 59.1651 354.635C53.3955 363.213 39.2507 373.283 48.1842 378.317C53.2094 381.114 63.6318 383.352 62.1429 393.421C60.2818 406.847 32.5505 417.476 32.3644 417.476C32.1783 417.476 3.33037 406.847 2.95814 393.421C2.77203 388.387 2.77203 388.387 12.6362 380.741C24.7337 371.231 1.84145 364.891 0.166408 349.414C-2.06698 328.157 18.9641 328.156 16.3585 319.019Z" fill="#33684D"/>
<path d="M36.086 420.087C70.1452 420.087 68.8423 460.737 68.8423 460.737H6.86584C6.86584 460.737 2.02683 420.087 36.086 420.087Z" fill="black"/>
<path d="M261.752 463.186V436.707C293.392 438.199 319.82 412.838 319.262 381.138L318.89 355.032L237.371 355.965L77.8699 390.089C37.6689 398.667 41.2051 457.219 82.1505 460.948L261.752 463.186Z" fill="url(#paint0_radial)"/>
<path d="M301.207 463.186V436.52C306.977 400.531 311.816 348.133 311.816 348.133L117.511 389.716C77.3101 398.294 76.5669 459.456 117.512 463.186H301.207Z" fill="#30C4EB"/>
<path d="M301.209 463.186C301.209 463.186 348.296 462.999 352.763 463.372C359.091 463.745 368.583 463.932 371.747 461.321C376.586 457.219 365.046 449.387 354.438 446.217C344.015 443.047 336.012 443.979 330.429 439.877C324.845 435.774 322.612 429.621 312.376 429.434C307.723 429.248 303.814 435.588 297.3 439.504C289.483 444.166 279.247 446.59 279.247 446.59L301.209 463.186Z" fill="#30C4EB"/>
<path d="M225.274 394.191C226.762 397.734 228.437 401.277 230.485 404.82C251.144 439.504 295.811 450.692 330.429 429.994C362.255 410.974 374.352 371.255 359.835 338.064C358.718 335.267 357.229 332.656 355.741 329.859C344.946 311.771 327.637 300.023 308.653 295.921C291.158 292.192 272.361 294.616 255.796 304.499C224.529 323.332 212.245 361.559 225.274 394.191Z" fill="#30C4EB"/>
<path d="M82.3363 372.374C55.5356 377.036 48.091 385.054 42.6936 390.649C42.6936 390.649 42.6936 390.835 42.5075 390.835C40.4602 392.886 43.252 396.243 45.6715 394.751L55.3495 389.157L39.1574 407.804C37.4824 409.855 38.7852 413.025 41.3908 413.212C47.3465 413.584 60.0024 410.601 68.9359 404.074C78.2417 397.175 89.967 378.528 89.967 378.528L82.3363 372.374Z" fill="#BE8E68"/>
<path d="M141.15 186.09C141.15 197.651 133.519 297.04 75.8232 373.68L86.8041 384.495C239.233 300.023 209.827 187.395 207.965 176.02C205.918 164.086 197.171 137.048 168.137 140.777C144.314 143.947 141.15 174.528 141.15 186.09Z" fill="url(#paint1_linear)"/>
<path d="M363.185 349.811C363.185 349.811 339.548 341.234 307.537 349.065C264.358 359.694 194.006 375.171 194.006 375.171C194.006 375.171 208.895 309.72 201.637 295.362C180.233 252.287 171.858 247.998 157.9 214.993C142.452 178.631 161.25 133.691 189.539 123.995C218.759 114.112 285.761 139.472 319.82 222.638C353.879 305.804 363.185 349.811 363.185 349.811Z" fill="url(#paint2_radial)"/>
<path d="M117.883 371.815C90.5239 372.561 82.1487 379.274 76.0068 383.935C76.0068 383.935 75.8207 383.935 75.8207 384.122C73.5873 385.987 75.8207 389.53 78.4264 388.411L88.8488 384.308L70.0512 400.345C68.0039 402.023 68.9345 405.38 71.5401 405.939C77.3097 407.244 90.3378 406.125 100.016 400.904C110.252 395.497 124.583 378.901 124.583 378.901L117.883 371.815Z" fill="#BE8E68"/>
<path d="M203.684 196.345C201.823 207.72 179.676 304.872 111.371 372.188L120.491 384.495C272.733 330.791 265.661 201.194 265.475 189.819C265.289 177.698 262.125 149.168 232.905 148.609C208.896 148.049 205.36 184.971 203.684 196.345Z" fill="#7A7774"/>
<path d="M182.687 122.893C214.294 109.727 229.136 73.0747 215.838 41.0272C202.539 8.97971 166.137 -6.32719 134.53 6.83829C102.923 20.0038 88.0811 56.6561 101.379 88.7037C114.678 120.751 151.08 136.058 182.687 122.893Z" fill="#CA83FC"/>
<path d="M163.854 101.991C161.807 96.2107 151.757 101.059 153.432 90.0571C153.99 86.5142 153.06 80.5471 152.688 74.2071L160.318 71.41L170.741 99.5672L163.854 101.991Z" fill="url(#paint3_radial)"/>
<path d="M231.972 127.724C216.711 120.452 214.477 107.026 218.944 79.8013L129.236 122.876C140.031 132.013 152.687 139.845 145.056 162.222C145.056 162.222 162.737 183.106 187.863 172.477C213.175 162.035 231.972 127.724 231.972 127.724Z" fill="#CA83FC"/>
<path d="M145.428 140.591C152.687 154.949 175.393 164.273 191.585 139.658C199.96 126.978 209.266 119.52 223.038 121.198C210.196 112.247 197.54 70.2911 197.54 70.2911C197.54 70.2911 127.933 106.28 145.428 140.591Z" fill="url(#paint4_linear)"/>
<path d="M169.971 128.918C191.137 120.101 200.491 94.1439 190.862 70.9404C181.234 47.7368 156.27 36.0739 135.104 44.8904C113.938 53.7069 104.585 79.6643 114.213 102.868C123.841 126.071 148.805 137.734 169.971 128.918Z" fill="#BE8E68"/>
<path d="M154.363 109.637C153.805 107.958 152.316 106.84 150.641 106.653C147.291 106.28 142.824 105.348 144.127 97.889C144.685 94.5325 146.36 91.9219 140.777 80.3607L119.001 88.7519L133.518 125.673L156.969 116.163L154.363 109.637Z" fill="url(#paint5_radial)"/>
<path d="M163.856 81.6659C165.345 85.0224 164.972 88.3789 163.111 89.1248C161.25 89.8706 158.831 87.8195 157.342 84.2765C155.853 80.92 156.225 77.5636 158.086 76.8177C159.947 76.0718 162.553 78.3094 163.856 81.6659Z" fill="#33312D"/>
<path d="M133.704 94.1594C135.193 97.5159 134.821 100.872 133.146 101.618C131.285 102.364 128.865 100.313 127.376 96.9565C125.887 93.6 126.259 90.2435 127.934 89.4976C129.796 88.7518 132.401 90.8029 133.704 94.1594Z" fill="#33312D"/>
<path d="M166.647 108.704C166.461 110.196 165.902 111.501 165.344 112.806C164.6 114.112 163.669 115.231 162.552 116.163C161.436 117.095 159.947 117.841 158.458 118.028C157.713 118.214 156.969 118.214 156.224 118.214C155.48 118.214 154.736 118.028 154.177 118.028C153.805 118.028 153.433 117.655 153.619 117.282C153.619 116.909 153.991 116.722 154.177 116.722H154.363C155.666 116.536 156.783 116.349 157.899 115.976C159.016 115.604 160.133 115.044 161.063 114.298C161.994 113.552 162.739 112.62 163.483 111.688C164.227 110.755 164.786 109.45 165.158 108.518C165.344 108.145 165.716 107.958 166.089 108.145C166.461 108.145 166.647 108.331 166.647 108.704Z" fill="#9B643D"/>
<path d="M123.652 36.54C123.652 36.54 117.51 53.6953 156.408 57.6112C186.745 60.5948 198.656 89.3113 190.095 109.45C190.095 109.45 204.24 94.719 202.379 84.2766C197.167 55.56 185.256 47.9147 162.178 38.0318C139.099 27.9623 123.652 36.54 123.652 36.54Z" fill="#CA83FC"/>
</g>
<defs>
<radialGradient id="paint0_radial" cx="0" cy="0" r="1" gradientUnits="userSpaceOnUse" gradientTransform="translate(126.742 516.266) rotate(180) scale(102.709 102.905)">
<stop offset="0.0125504" stop-color="#1D829D"/>
<stop offset="1" stop-color="#30C4EB"/>
</radialGradient>
<linearGradient id="paint1_linear" x1="200.026" y1="289.985" x2="126.64" y2="259.863" gradientUnits="userSpaceOnUse">
<stop stop-color="#615E5B"/>
<stop offset="0.0551539" stop-color="#64615E"/>
<stop offset="0.34" stop-color="#706D6A"/>
<stop offset="0.6445" stop-color="#777472"/>
<stop offset="1" stop-color="#7A7774"/>
</linearGradient>
<radialGradient id="paint2_radial" cx="0" cy="0" r="1" gradientUnits="userSpaceOnUse" gradientTransform="translate(186.73 310.477) rotate(179.638) scale(117.469 116.174)">
<stop stop-color="#8B8CC4"/>
<stop offset="0.00122109" stop-color="#8786B5"/>
<stop offset="0.0053712" stop-color="#7C7997"/>
<stop offset="0.00967582" stop-color="#726F80"/>
<stop offset="0.0141103" stop-color="#6A676F"/>
<stop offset="0.018731" stop-color="#656263"/>
<stop offset="0.0236537" stop-color="#625F5D"/>
<stop offset="0.0293977" stop-color="#615E5B"/>
<stop offset="1" stop-color="#7A7774"/>
</radialGradient>
<radialGradient id="paint3_radial" cx="0" cy="0" r="1" gradientUnits="userSpaceOnUse" gradientTransform="translate(143.43 101.51) rotate(-22.6134) scale(21.9061 20.6298)">
<stop stop-color="#9B643D"/>
<stop offset="1" stop-color="#BF8F67" stop-opacity="0"/>
</radialGradient>
<linearGradient id="paint4_linear" x1="96.1292" y1="141.565" x2="247.199" y2="92.1286" gradientUnits="userSpaceOnUse">
<stop stop-color="#9F55D3"/>
<stop offset="0.6261" stop-color="#CA83FC"/>
<stop offset="0.7924" stop-color="#CA83FC"/>
<stop offset="1" stop-color="#CA83FC"/>
</linearGradient>
<radialGradient id="paint5_radial" cx="0" cy="0" r="1" gradientUnits="userSpaceOnUse" gradientTransform="translate(150.047 99.9549) rotate(153.491) scale(16.8559 15.6814)">
<stop stop-color="#754C29"/>
<stop offset="1" stop-color="#BF8F67" stop-opacity="0"/>
</radialGradient>
</defs>
</svg>
