<?xml version="1.0" encoding="utf-8"?>
<!-- Generator: Adobe Illustrator 24.1.3, SVG Export Plug-In . SVG Version: 6.00 Build 0)  -->
<svg version="1.1" id="Layer_1" xmlns="http://www.w3.org/2000/svg" xmlns:xlink="http://www.w3.org/1999/xlink" x="0px" y="0px"
	 viewBox="0 0 347.4 158.1" style="enable-background:new 0 0 347.4 158.1;" xml:space="preserve">
<style type="text/css">
	.st0{fill:#AC87BD;}
	.st1{fill:#59CAF0;}
	.st2{fill:#FAA946;}
	.st3{fill:#75C695;}
	.st4{fill:#A0AFB3;}
	.st5{font-family:'SegoeUI-Semibold';}
	.st6{font-size:12px;}
	.st7{font-family:'SegoeUI-Bold';}
	.st8{font-size:14px;}
	.st9{fill:none;stroke:#000000;stroke-miterlimit:10;}
</style>
<circle class="st0" cx="138.7" cy="60" r="60"/>
<circle class="st1" cx="287.4" cy="60" r="60"/>
<text transform="matrix(1 0 0 1 0 51.6129)" class="st5 st6">Invocation</text>
<g>
	<text transform="matrix(1 0 0 1 107.6368 64)" class="st7 st8">Disambig</text>
</g>
<g>
	<g>
		<line class="st9" x1="0" y1="60" x2="77.6" y2="60"/>
		<g>
			<polygon points="74.3,64.1 73.6,63.4 77.2,60 73.6,56.6 74.3,55.9 78.7,60 			"/>
		</g>
	</g>
</g>
<g>
	<text transform="matrix(1 0 0 1 263.0285 64)" class="st7 st8">Answer</text>
</g>
<text transform="matrix(1 0 0 1 195.8175 140.5555)" class="st5 st6">Refine</text>
<g>
	<g>
		<line class="st9" x1="198.7" y1="60" x2="226.3" y2="60"/>
		<g>
			<polygon points="223,64.1 222.3,63.4 226,60 222.3,56.6 223,55.9 227.4,60 			"/>
		</g>
	</g>
</g>
<g>
	<g>
		<path class="st9" d="M287,120c-17.5,21.5-44.2,35.2-74.1,35.2c-29.3,0-55.5-13.2-73-33.9"/>
		<g>
			<polygon points="145.1,121.1 145,122.1 140.1,121.6 140,126.5 139,126.5 139.2,120.5 			"/>
		</g>
	</g>
</g>
</svg>
