<?xml version="1.0" encoding="utf-8"?>
<!-- Generator: Adobe Illustrator 24.1.3, SVG Export Plug-In . SVG Version: 6.00 Build 0)  -->
<svg version="1.1" id="Layer_1" xmlns="http://www.w3.org/2000/svg" xmlns:xlink="http://www.w3.org/1999/xlink" x="0px" y="0px"
	 viewBox="0 0 426.1 197.5" style="enable-background:new 0 0 426.1 197.5;" xml:space="preserve">
<style type="text/css">
	.st0{fill:#AC87BD;}
	.st1{fill:#59CAF0;}
	.st2{fill:#FAA946;}
	.st3{fill:#75C695;}
	.st4{fill:#A0AFB3;}
	.st5{fill:none;stroke:#000000;stroke-miterlimit:10;}
	.st6{font-family:'SegoeUI-Bold';}
	.st7{font-size:14px;}
	.st8{font-family:'SegoeUI-Semibold';}
	.st9{font-size:12px;}
</style>
<circle class="st0" cx="138.7" cy="60" r="60"/>
<g>
	<circle class="st1" cx="287.4" cy="60" r="60"/>
</g>
<g>
	<text transform="matrix(1 0 0 1 182.607 180.2222)" class="st6 st7">One-shot</text>
</g>
<text transform="matrix(1 0 0 1 1.621246e-05 51.6124)" class="st8 st9">Invocation</text>
<text transform="matrix(1 0 0 1 107.6368 64.0001)" class="st6 st7">Disambig</text>
<g>
	<g>
		<line class="st5" x1="0" y1="60" x2="77.6" y2="60"/>
		<g>
			<polygon points="74.3,64.1 73.6,63.4 77.2,60 73.6,56.6 74.3,55.9 78.7,60 			"/>
		</g>
	</g>
</g>
<text transform="matrix(1 0 0 1 377.326 51.6129)" class="st8 st9">Traversal</text>
<g>
	<g>
		<line class="st5" x1="347.4" y1="60" x2="425" y2="60"/>
		<g>
			<polygon points="421.7,64.1 421,63.4 424.7,60 421,56.6 421.7,55.9 426.1,60 			"/>
		</g>
	</g>
</g>
<text transform="matrix(1 0 0 1 262.3962 57.0001)"><tspan x="0" y="0" class="st6 st7">Implicit</tspan><tspan x="-1.7" y="16.8" class="st6 st7">Confirm</tspan></text>
<g>
	<g>
		<line class="st5" x1="198.7" y1="60" x2="226.3" y2="60"/>
		<g>
			<polygon points="223,64.1 222.3,63.4 226,60 222.3,56.6 223,55.9 227.4,60 			"/>
		</g>
	</g>
</g>
<g>
	<g>
		<path class="st5" d="M382.1,61.1c-18.2,76.5-87,133.3-169,133.3C130.6,194.4,61.6,137,43.8,60"/>
		<g>
			<polygon points="377.3,63.3 377.8,64.1 381.9,61.4 384.3,65.8 385.2,65.3 382.3,60 			"/>
		</g>
	</g>
</g>
</svg>
