<?xml version="1.0" encoding="utf-8"?>
<!-- Generator: Adobe Illustrator 24.1.3, SVG Export Plug-In . SVG Version: 6.00 Build 0)  -->
<svg version="1.1" id="Layer_1" xmlns="http://www.w3.org/2000/svg" xmlns:xlink="http://www.w3.org/1999/xlink" x="0px" y="0px"
	 viewBox="0 0 537.1 268.7" style="enable-background:new 0 0 537.1 268.7;" xml:space="preserve">
<style type="text/css">
	.st0{fill:#AC87BD;}
	.st1{fill:#59CAF0;}
	.st2{fill:#FAA946;}
	.st3{fill:#75C695;}
	.st4{fill:#A0AFB3;}
	.st5{fill:none;stroke:#000000;stroke-miterlimit:10;}
	.st6{font-family:'SegoeUI-Bold';}
	.st7{font-size:12px;}
	.st8{font-size:14px;}
</style>
<g>
	<circle class="st2" cx="436.1" cy="208.7" r="60"/>
</g>
<g>
	<circle class="st3" cx="287.4" cy="208.7" r="60"/>
</g>
<g>
	<circle class="st1" cx="436.1" cy="60" r="60"/>
</g>
<g>
	<circle class="st0" cx="287.4" cy="60" r="60"/>
</g>
<g>
	<circle class="st4" cx="138.7" cy="60" r="60"/>
</g>
<text transform="matrix(1 0 0 1 0 51.6129)" class="st6 st7">Invocation</text>
<text transform="matrix(1 0 0 1 126.7945 64.0001)" class="st6 st8">Ask</text>
<g>
	<g>
		<line class="st5" x1="0" y1="60" x2="77.6" y2="60"/>
		<g>
			<polygon points="74.3,64.1 73.6,63.4 77.2,60 73.6,56.6 74.3,55.9 78.7,60 			"/>
		</g>
	</g>
</g>
<text transform="matrix(1 0 0 1 256.3464 64.0001)" class="st6 st8">Disambig</text>
<g>
	<g>
		<line class="st5" x1="198.7" y1="60" x2="226.3" y2="60"/>
		<g>
			<polygon points="223,64.1 222.3,63.4 226,60 222.3,56.6 223,55.9 227.4,60 			"/>
		</g>
	</g>
</g>
<text transform="matrix(1 0 0 1 409.3763 64.0001)" class="st6 st8">Confirm</text>
<g>
	<g>
		<line class="st5" x1="347.4" y1="60" x2="375" y2="60"/>
		<g>
			<polygon points="371.7,64.1 371,63.4 374.7,60 371,56.6 371.7,55.9 376.1,60 			"/>
		</g>
	</g>
</g>
<g>
	<g>
		<line class="st5" x1="376.1" y1="208.7" x2="348.5" y2="208.7"/>
		<g>
			<polygon points="351.8,204.6 352.5,205.4 348.9,208.7 352.5,212.1 351.8,212.8 347.4,208.7 			"/>
		</g>
	</g>
</g>
<text transform="matrix(1 0 0 1 411.4236 212.7096)" class="st6 st8">Change</text>
<g>
	<g>
		<line class="st5" x1="436.1" y1="120" x2="436.1" y2="147.6"/>
		<g>
			<polygon points="432,144.3 432.8,143.6 436.1,147.2 439.5,143.6 440.2,144.3 436.1,148.7 			"/>
		</g>
	</g>
</g>
<text transform="matrix(1 0 0 1 262.5945 212.7096)" class="st6 st8">Success</text>
<g>
	<g>
		<line class="st5" x1="393.2" y1="101.7" x2="330" y2="164.9"/>
		<g>
			<polygon points="329.4,159.6 330.4,159.7 330.2,164.6 335.2,164.4 335.2,165.4 329.2,165.6 			"/>
		</g>
	</g>
</g>
<g>
	<g>
		<path class="st5" d="M496.1,207.6c21.5-17.5,35.2-44.2,35.2-74.1c0-29.3-13.2-55.5-33.9-73"/>
		<g>
			<polygon points="502.6,59.5 502.6,60.5 497.7,60.7 498.2,65.6 497.2,65.7 496.6,59.7 			"/>
		</g>
	</g>
</g>
</svg>
