<?xml version="1.0" encoding="utf-8"?>
<!-- Generator: Adobe Illustrator 24.1.3, SVG Export Plug-In . SVG Version: 6.00 Build 0)  -->
<svg version="1.1" id="Layer_1" xmlns="http://www.w3.org/2000/svg" xmlns:xlink="http://www.w3.org/1999/xlink" x="0px" y="0px"
	 viewBox="0 0 426.1 197.5" style="enable-background:new 0 0 426.1 197.5;" xml:space="preserve">
<style type="text/css">
	.st0{fill:#AC87BD;}
	.st1{fill:#59CAF0;}
	.st2{fill:#FAA946;}
	.st3{fill:#75C695;}
	.st4{fill:#A0AFB3;}
	.st5{fill:none;stroke:#000000;stroke-miterlimit:10;}
	.st6{fill:none;stroke:#000000;stroke-width:1.097;stroke-miterlimit:10;}
	.st7{fill:none;stroke:#000000;stroke-width:0.9438;stroke-miterlimit:10;}
</style>
<g>
	<path d="M138.7,78.5c32.5,0,59,26.5,59,59s-26.5,59-59,59s-59-26.5-59-59S106.2,78.5,138.7,78.5 M138.7,77.5c-33.1,0-60,26.9-60,60
		s26.9,60,60,60s60-26.9,60-60S171.8,77.5,138.7,77.5L138.7,77.5z"/>
</g>
<g>
	<path d="M287.4,78.5c32.5,0,59,26.5,59,59s-26.5,59-59,59c-32.5,0-59-26.5-59-59S254.9,78.5,287.4,78.5 M287.4,77.5
		c-33.1,0-60,26.9-60,60s26.9,60,60,60c33.1,0,60-26.9,60-60S320.6,77.5,287.4,77.5L287.4,77.5z"/>
</g>
<g>
	<g>
		<path d="M189.7,39c-1.2,0-2.2-0.4-2.9-1.2s-1.1-1.8-1.1-3.1c0-1.4,0.4-2.4,1.1-3.2s1.8-1.2,3-1.2c1.2,0,2.1,0.4,2.9,1.2
			s1.1,1.8,1.1,3.1c0,1.4-0.4,2.5-1.1,3.3S190.9,39,189.7,39z M189.7,31.5c-0.8,0-1.4,0.3-1.9,0.9s-0.7,1.3-0.7,2.3
			c0,0.9,0.2,1.7,0.7,2.3s1.1,0.9,1.8,0.9c0.8,0,1.4-0.3,1.9-0.8s0.7-1.3,0.7-2.3c0-1-0.2-1.8-0.7-2.3S190.5,31.5,189.7,31.5z"/>
		<path d="M200.5,38.8h-1.4v-3.4c0-1.1-0.4-1.7-1.2-1.7c-0.4,0-0.8,0.2-1,0.5s-0.4,0.7-0.4,1.2v3.4h-1.4v-6h1.4v1h0
			c0.4-0.8,1.1-1.1,1.9-1.1c0.7,0,1.2,0.2,1.5,0.6s0.5,1,0.5,1.8V38.8z"/>
		<path d="M207.2,36.2h-4.1c0,0.6,0.2,1,0.5,1.3s0.8,0.5,1.3,0.5c0.6,0,1.2-0.2,1.8-0.6v1.1c-0.5,0.3-1.3,0.5-2.2,0.5
			c-0.9,0-1.6-0.3-2.1-0.8s-0.8-1.3-0.8-2.3c0-0.9,0.3-1.7,0.8-2.3s1.2-0.9,2.1-0.9s1.5,0.3,1.9,0.8s0.7,1.3,0.7,2.2V36.2z
			 M205.9,35.2c0-0.5-0.1-0.9-0.3-1.1s-0.5-0.4-0.9-0.4c-0.4,0-0.7,0.1-1,0.4s-0.4,0.7-0.5,1.1H205.9z"/>
		<path d="M211.6,36.1h-3.2v-1h3.2V36.1z"/>
		<path d="M212.9,38.7v-1.3c0.5,0.4,1.1,0.6,1.7,0.6c0.8,0,1.2-0.2,1.2-0.7c0-0.1,0-0.3-0.1-0.3s-0.2-0.2-0.3-0.3s-0.3-0.1-0.4-0.2
			s-0.3-0.1-0.5-0.2c-0.2-0.1-0.5-0.2-0.7-0.3s-0.4-0.2-0.5-0.4s-0.2-0.3-0.3-0.5s-0.1-0.4-0.1-0.6c0-0.3,0.1-0.5,0.2-0.8
			s0.3-0.4,0.6-0.6s0.5-0.3,0.8-0.3s0.6-0.1,0.9-0.1c0.6,0,1.1,0.1,1.5,0.3v1.2c-0.4-0.3-0.9-0.4-1.5-0.4c-0.2,0-0.3,0-0.5,0.1
			s-0.3,0.1-0.4,0.1s-0.2,0.1-0.2,0.2s-0.1,0.2-0.1,0.3c0,0.1,0,0.2,0.1,0.3s0.1,0.2,0.2,0.2s0.2,0.1,0.4,0.2s0.3,0.1,0.5,0.2
			c0.3,0.1,0.5,0.2,0.7,0.3s0.4,0.2,0.5,0.4s0.3,0.3,0.3,0.5s0.1,0.4,0.1,0.6c0,0.3-0.1,0.6-0.2,0.8s-0.3,0.4-0.6,0.6
			s-0.5,0.3-0.8,0.3s-0.6,0.1-1,0.1C214,39,213.4,38.9,212.9,38.7z"/>
		<path d="M223.8,38.8h-1.4v-3.3c0-1.2-0.4-1.8-1.2-1.8c-0.4,0-0.7,0.2-1,0.5s-0.4,0.8-0.4,1.3v3.2h-1.4V30h1.4v3.9h0
			c0.5-0.8,1.1-1.1,1.9-1.1c1.3,0,2,0.8,2,2.4V38.8z"/>
		<path d="M228.1,39c-0.9,0-1.7-0.3-2.2-0.8s-0.8-1.3-0.8-2.2c0-1,0.3-1.8,0.9-2.4s1.4-0.8,2.3-0.8c0.9,0,1.7,0.3,2.2,0.8
			s0.8,1.3,0.8,2.3c0,1-0.3,1.7-0.8,2.3C229.8,38.7,229.1,39,228.1,39z M228.2,33.8c-0.5,0-1,0.2-1.3,0.6s-0.5,0.9-0.5,1.5
			c0,0.6,0.2,1.1,0.5,1.5s0.7,0.5,1.3,0.5c0.5,0,0.9-0.2,1.2-0.5s0.4-0.9,0.4-1.5c0-0.7-0.1-1.2-0.4-1.5S228.7,33.8,228.2,33.8z"/>
		<path d="M235.8,38.8c-0.3,0.1-0.6,0.2-1,0.2c-1.2,0-1.7-0.6-1.7-1.7v-3.4h-1v-1.1h1v-1.4l1.4-0.4v1.8h1.4v1.1h-1.4v3
			c0,0.4,0.1,0.6,0.2,0.8s0.3,0.2,0.6,0.2c0.2,0,0.4-0.1,0.6-0.2V38.8z"/>
	</g>
</g>
<g>
	<path d="M2.5,129.1H1v-8.4h1.4V129.1z"/>
	<path d="M9.7,129.1H8.4v-3.4c0-1.1-0.4-1.7-1.2-1.7c-0.4,0-0.8,0.2-1,0.5s-0.4,0.7-0.4,1.2v3.4H4.4v-6h1.4v1h0
		c0.4-0.8,1.1-1.1,1.9-1.1c0.7,0,1.2,0.2,1.5,0.6s0.5,1,0.5,1.8V129.1z"/>
	<path d="M16.6,123.1l-2.3,6h-1.5l-2.2-6H12l1.3,4.2c0.1,0.3,0.2,0.6,0.2,0.8h0c0-0.3,0.1-0.6,0.2-0.8l1.4-4.2H16.6z"/>
	<path d="M20,129.2c-0.9,0-1.7-0.3-2.2-0.8s-0.8-1.3-0.8-2.2c0-1,0.3-1.8,0.9-2.4s1.4-0.8,2.3-0.8c0.9,0,1.7,0.3,2.2,0.8
		s0.8,1.3,0.8,2.3c0,1-0.3,1.7-0.8,2.3S21,129.2,20,129.2z M20.1,124c-0.5,0-1,0.2-1.3,0.6s-0.5,0.9-0.5,1.5c0,0.6,0.2,1.1,0.5,1.5
		s0.7,0.5,1.3,0.5c0.5,0,0.9-0.2,1.2-0.5s0.4-0.9,0.4-1.5c0-0.7-0.1-1.2-0.4-1.5S20.6,124,20.1,124z"/>
	<path d="M28.8,128.8c-0.5,0.3-1,0.4-1.7,0.4c-0.9,0-1.6-0.3-2.2-0.8s-0.8-1.3-0.8-2.2c0-1,0.3-1.8,0.9-2.4s1.4-0.9,2.4-0.9
		c0.5,0,1,0.1,1.4,0.3v1.3c-0.4-0.3-0.9-0.5-1.3-0.5c-0.6,0-1,0.2-1.4,0.6s-0.6,0.9-0.6,1.5c0,0.6,0.2,1.1,0.5,1.5s0.8,0.5,1.4,0.5
		c0.5,0,0.9-0.2,1.4-0.5V128.8z"/>
	<path d="M34.8,129.1h-1.3v-0.9h0c-0.4,0.7-1,1.1-1.8,1.1c-0.6,0-1.1-0.2-1.4-0.5c-0.3-0.3-0.5-0.7-0.5-1.3c0-1.1,0.7-1.8,2-2
		l1.8-0.3c0-0.9-0.4-1.3-1.2-1.3c-0.7,0-1.4,0.2-1.9,0.7v-1.2c0.6-0.4,1.4-0.6,2.2-0.6c1.5,0,2.3,0.7,2.3,2.2V129.1z M33.5,126.1
		l-1.3,0.2c-0.4,0.1-0.7,0.1-0.9,0.3S31,127,31,127.3c0,0.3,0.1,0.5,0.3,0.6s0.4,0.2,0.7,0.2c0.4,0,0.8-0.1,1-0.4s0.4-0.7,0.4-1.1
		V126.1z"/>
	<path d="M39.6,129c-0.3,0.1-0.6,0.2-1,0.2c-1.2,0-1.7-0.6-1.7-1.7v-3.4h-1v-1.1h1v-1.4l1.4-0.4v1.8h1.4v1.1h-1.4v3
		c0,0.4,0.1,0.6,0.2,0.8s0.3,0.2,0.6,0.2c0.2,0,0.4-0.1,0.6-0.2V129z"/>
	<path d="M41.5,121.8c-0.2,0-0.4-0.1-0.6-0.2s-0.2-0.3-0.2-0.6s0.1-0.4,0.2-0.6s0.3-0.2,0.6-0.2c0.2,0,0.4,0.1,0.6,0.2
		s0.2,0.3,0.2,0.6c0,0.2-0.1,0.4-0.2,0.5S41.7,121.8,41.5,121.8z M42.1,129.1h-1.4v-6h1.4V129.1z"/>
	<path d="M46.6,129.2c-0.9,0-1.7-0.3-2.2-0.8s-0.8-1.3-0.8-2.2c0-1,0.3-1.8,0.9-2.4s1.4-0.8,2.3-0.8c0.9,0,1.7,0.3,2.2,0.8
		s0.8,1.3,0.8,2.3c0,1-0.3,1.7-0.8,2.3S47.5,129.2,46.6,129.2z M46.6,124c-0.5,0-1,0.2-1.3,0.6s-0.5,0.9-0.5,1.5
		c0,0.6,0.2,1.1,0.5,1.5s0.7,0.5,1.3,0.5c0.5,0,0.9-0.2,1.2-0.5s0.4-0.9,0.4-1.5c0-0.7-0.1-1.2-0.4-1.5S47.2,124,46.6,124z"/>
	<path d="M56.4,129.1h-1.4v-3.4c0-1.1-0.4-1.7-1.2-1.7c-0.4,0-0.8,0.2-1,0.5s-0.4,0.7-0.4,1.2v3.4h-1.4v-6h1.4v1h0
		c0.4-0.8,1.1-1.1,1.9-1.1c0.7,0,1.2,0.2,1.5,0.6s0.5,1,0.5,1.8V129.1z"/>
</g>
<g>
	<path d="M108.8,141.5v-9.8h3.5c3.5,0,5.2,1.6,5.2,4.8c0,1.5-0.5,2.7-1.4,3.7c-1,0.9-2.2,1.4-3.8,1.4H108.8z M111,133.5v6.2h1.1
		c1,0,1.7-0.3,2.3-0.9c0.5-0.6,0.8-1.4,0.8-2.3c0-0.9-0.3-1.7-0.8-2.2c-0.5-0.5-1.3-0.8-2.3-0.8H111z"/>
	<path d="M120,133.4c-0.4,0-0.7-0.1-0.9-0.3c-0.2-0.2-0.3-0.5-0.3-0.8c0-0.3,0.1-0.6,0.3-0.8s0.5-0.3,0.9-0.3c0.4,0,0.7,0.1,0.9,0.3
		c0.2,0.2,0.3,0.5,0.3,0.8c0,0.3-0.1,0.6-0.3,0.8C120.6,133.2,120.3,133.4,120,133.4z M121,141.5h-2.2v-7h2.2V141.5z"/>
	<path d="M122.4,141.3v-1.8c0.4,0.2,0.7,0.4,1.1,0.5c0.4,0.1,0.7,0.2,1,0.2c0.4,0,0.7-0.1,0.9-0.2c0.2-0.1,0.3-0.3,0.3-0.5
		c0-0.1,0-0.3-0.2-0.3c-0.1-0.1-0.2-0.2-0.4-0.2s-0.3-0.1-0.5-0.2c-0.2-0.1-0.4-0.1-0.5-0.2c-0.3-0.1-0.5-0.2-0.7-0.3
		c-0.2-0.1-0.4-0.3-0.5-0.4c-0.1-0.2-0.3-0.3-0.3-0.6c-0.1-0.2-0.1-0.5-0.1-0.7c0-0.4,0.1-0.7,0.3-1c0.2-0.3,0.4-0.5,0.7-0.7
		c0.3-0.2,0.6-0.3,1-0.4c0.4-0.1,0.7-0.1,1.1-0.1c0.3,0,0.6,0,0.9,0.1c0.3,0,0.6,0.1,0.9,0.2v1.7c-0.3-0.2-0.6-0.3-0.9-0.4
		c-0.3-0.1-0.6-0.1-0.9-0.1c-0.1,0-0.3,0-0.4,0c-0.1,0-0.2,0.1-0.3,0.1s-0.2,0.1-0.2,0.2s-0.1,0.2-0.1,0.3c0,0.1,0,0.2,0.1,0.3
		c0.1,0.1,0.2,0.2,0.3,0.2c0.1,0.1,0.3,0.1,0.4,0.2c0.2,0.1,0.3,0.1,0.5,0.2c0.3,0.1,0.5,0.2,0.8,0.3c0.2,0.1,0.4,0.3,0.6,0.4
		c0.2,0.2,0.3,0.3,0.4,0.6c0.1,0.2,0.1,0.5,0.1,0.8c0,0.4-0.1,0.8-0.3,1.1c-0.2,0.3-0.4,0.5-0.7,0.7c-0.3,0.2-0.6,0.3-1,0.4
		c-0.4,0.1-0.8,0.1-1.2,0.1C123.8,141.6,123,141.5,122.4,141.3z"/>
	<path d="M134.8,141.5h-2v-1h0c-0.5,0.8-1.2,1.2-2.1,1.2c-0.7,0-1.2-0.2-1.6-0.6c-0.4-0.4-0.6-0.9-0.6-1.5c0-1.4,0.8-2.1,2.4-2.4
		l1.9-0.3c0-0.8-0.4-1.1-1.2-1.1c-0.8,0-1.6,0.2-2.4,0.7v-1.6c0.3-0.2,0.7-0.3,1.2-0.4c0.5-0.1,1-0.2,1.4-0.2c2,0,3,1,3,3V141.5z
		 M132.8,138.6v-0.5l-1.3,0.2c-0.7,0.1-1.1,0.4-1.1,1c0,0.2,0.1,0.4,0.3,0.6s0.4,0.2,0.7,0.2c0.4,0,0.7-0.1,1-0.4
		C132.7,139.4,132.8,139,132.8,138.6z"/>
	<path d="M147.7,141.5h-2.2v-4c0-1-0.4-1.5-1.1-1.5c-0.4,0-0.6,0.2-0.9,0.5c-0.2,0.3-0.3,0.7-0.3,1.1v3.9H141v-4
		c0-1-0.4-1.5-1.1-1.5c-0.4,0-0.7,0.1-0.9,0.4c-0.2,0.3-0.3,0.7-0.3,1.2v3.9h-2.2v-7h2.2v1.1h0c0.2-0.4,0.5-0.7,0.9-0.9
		c0.4-0.2,0.8-0.4,1.3-0.4c1,0,1.7,0.4,2,1.3c0.5-0.9,1.3-1.3,2.4-1.3c1.5,0,2.3,0.9,2.3,2.8V141.5z"/>
	<path d="M151.6,140.6L151.6,140.6l0,0.8h-2.2v-10.4h2.2v4.4h0c0.5-0.8,1.3-1.2,2.3-1.2c0.9,0,1.6,0.3,2.1,0.9
		c0.5,0.6,0.7,1.5,0.7,2.5c0,1.2-0.3,2.1-0.9,2.8c-0.6,0.7-1.3,1.1-2.3,1.1C152.6,141.6,152,141.3,151.6,140.6z M151.5,137.7v0.7
		c0,0.5,0.1,0.8,0.4,1.1c0.3,0.3,0.6,0.4,1,0.4c0.5,0,0.9-0.2,1.1-0.6c0.3-0.4,0.4-0.9,0.4-1.6c0-0.6-0.1-1-0.4-1.4
		c-0.2-0.3-0.6-0.5-1.1-0.5c-0.4,0-0.8,0.2-1.1,0.5C151.6,136.8,151.5,137.2,151.5,137.7z"/>
	<path d="M159.1,133.4c-0.4,0-0.7-0.1-0.9-0.3c-0.2-0.2-0.3-0.5-0.3-0.8c0-0.3,0.1-0.6,0.3-0.8s0.5-0.3,0.9-0.3
		c0.4,0,0.7,0.1,0.9,0.3c0.2,0.2,0.3,0.5,0.3,0.8c0,0.3-0.1,0.6-0.3,0.8C159.8,133.2,159.5,133.4,159.1,133.4z M160.2,141.5H158v-7
		h2.2V141.5z"/>
	<path d="M168.9,140.7c0,1.3-0.4,2.3-1.1,3c-0.8,0.7-1.8,1.1-3.3,1.1c-0.9,0-1.7-0.1-2.2-0.4v-1.8c0.7,0.4,1.4,0.6,2.2,0.6
		c0.7,0,1.3-0.2,1.7-0.6c0.4-0.4,0.6-0.9,0.6-1.6v-0.6h0c-0.5,0.8-1.2,1.2-2.2,1.2c-0.9,0-1.6-0.3-2.1-0.9c-0.5-0.6-0.8-1.5-0.8-2.5
		c0-1.2,0.3-2.1,0.9-2.8c0.6-0.7,1.4-1,2.3-1c0.9,0,1.5,0.3,1.9,1h0v-0.8h2.2V140.7z M166.8,138.1v-0.6c0-0.4-0.1-0.8-0.4-1.1
		c-0.3-0.3-0.6-0.5-1-0.5c-0.5,0-0.9,0.2-1.1,0.6c-0.3,0.4-0.4,0.9-0.4,1.6c0,0.6,0.1,1,0.4,1.4c0.3,0.3,0.6,0.5,1.1,0.5
		c0.4,0,0.8-0.2,1.1-0.5C166.6,139.1,166.8,138.7,166.8,138.1z"/>
</g>
<g>
	<g>
		<line class="st5" x1="0" y1="137.5" x2="77.6" y2="137.5"/>
		<g>
			<polygon points="74.3,141.6 73.6,140.8 77.2,137.5 73.6,134.1 74.3,133.4 78.7,137.5 			"/>
		</g>
	</g>
</g>
<g>
	<path d="M384.7,121.9h-2.4v7.2h-1.4v-7.2h-2.4v-1.2h6.2V121.9z"/>
	<path d="M388.3,124.4c-0.2-0.1-0.4-0.2-0.7-0.2c-0.4,0-0.7,0.2-1,0.5s-0.4,0.9-0.4,1.5v2.9h-1.4v-6h1.4v1.2h0
		c0.1-0.4,0.3-0.8,0.6-1s0.6-0.4,0.9-0.4c0.2,0,0.4,0,0.6,0.1V124.4z"/>
	<path d="M393.9,129.1h-1.3v-0.9h0c-0.4,0.7-1,1.1-1.8,1.1c-0.6,0-1.1-0.2-1.4-0.5s-0.5-0.7-0.5-1.3c0-1.1,0.7-1.8,2-2l1.8-0.3
		c0-0.9-0.4-1.3-1.2-1.3c-0.7,0-1.4,0.2-1.9,0.7v-1.2c0.6-0.4,1.4-0.6,2.2-0.6c1.5,0,2.3,0.7,2.3,2.2V129.1z M392.6,126.1l-1.3,0.2
		c-0.4,0.1-0.7,0.1-0.9,0.3s-0.3,0.4-0.3,0.7c0,0.3,0.1,0.5,0.3,0.6s0.4,0.2,0.7,0.2c0.4,0,0.8-0.1,1-0.4s0.4-0.7,0.4-1.1V126.1z"/>
	<path d="M400.7,123.1l-2.3,6h-1.5l-2.2-6h1.5l1.3,4.2c0.1,0.3,0.2,0.6,0.2,0.8h0c0-0.3,0.1-0.6,0.2-0.8l1.4-4.2H400.7z"/>
	<path d="M406.6,126.4h-4.1c0,0.6,0.2,1,0.5,1.3s0.8,0.5,1.3,0.5c0.6,0,1.2-0.2,1.8-0.6v1.1c-0.5,0.3-1.3,0.5-2.2,0.5
		c-0.9,0-1.6-0.3-2.1-0.8s-0.8-1.3-0.8-2.3c0-0.9,0.3-1.7,0.8-2.3s1.2-0.9,2.1-0.9s1.5,0.3,1.9,0.8s0.7,1.3,0.7,2.2V126.4z
		 M405.3,125.5c0-0.5-0.1-0.9-0.3-1.1s-0.5-0.4-0.9-0.4c-0.4,0-0.7,0.1-1,0.4s-0.4,0.7-0.5,1.1H405.3z"/>
	<path d="M411.4,124.4c-0.2-0.1-0.4-0.2-0.7-0.2c-0.4,0-0.7,0.2-1,0.5s-0.4,0.9-0.4,1.5v2.9h-1.4v-6h1.4v1.2h0
		c0.1-0.4,0.3-0.8,0.6-1s0.6-0.4,0.9-0.4c0.2,0,0.4,0,0.6,0.1V124.4z"/>
	<path d="M412.1,128.9v-1.3c0.5,0.4,1.1,0.6,1.7,0.6c0.8,0,1.2-0.2,1.2-0.7c0-0.1,0-0.3-0.1-0.3s-0.2-0.2-0.3-0.3s-0.3-0.1-0.4-0.2
		s-0.3-0.1-0.5-0.2c-0.2-0.1-0.5-0.2-0.7-0.3s-0.4-0.2-0.5-0.4s-0.2-0.3-0.3-0.5s-0.1-0.4-0.1-0.6c0-0.3,0.1-0.5,0.2-0.8
		s0.3-0.4,0.6-0.6s0.5-0.3,0.8-0.3s0.6-0.1,0.9-0.1c0.6,0,1.1,0.1,1.5,0.3v1.2c-0.4-0.3-0.9-0.4-1.5-0.4c-0.2,0-0.3,0-0.5,0.1
		s-0.3,0.1-0.4,0.1s-0.2,0.1-0.2,0.2s-0.1,0.2-0.1,0.3c0,0.1,0,0.2,0.1,0.3s0.1,0.2,0.2,0.2s0.2,0.1,0.4,0.2s0.3,0.1,0.5,0.2
		c0.3,0.1,0.5,0.2,0.7,0.3s0.4,0.2,0.5,0.4s0.3,0.3,0.3,0.5s0.1,0.4,0.1,0.6c0,0.3-0.1,0.6-0.2,0.8s-0.3,0.4-0.6,0.6
		s-0.5,0.3-0.8,0.3s-0.6,0.1-1,0.1C413.1,129.2,412.5,129.1,412.1,128.9z"/>
	<path d="M422.2,129.1h-1.3v-0.9h0c-0.4,0.7-1,1.1-1.8,1.1c-0.6,0-1.1-0.2-1.4-0.5s-0.5-0.7-0.5-1.3c0-1.1,0.7-1.8,2-2l1.8-0.3
		c0-0.9-0.4-1.3-1.2-1.3c-0.7,0-1.4,0.2-1.9,0.7v-1.2c0.6-0.4,1.4-0.6,2.2-0.6c1.5,0,2.3,0.7,2.3,2.2V129.1z M420.9,126.1l-1.3,0.2
		c-0.4,0.1-0.7,0.1-0.9,0.3s-0.3,0.4-0.3,0.7c0,0.3,0.1,0.5,0.3,0.6s0.4,0.2,0.7,0.2c0.4,0,0.8-0.1,1-0.4s0.4-0.7,0.4-1.1V126.1z"/>
	<path d="M425.2,129.1h-1.4v-8.9h1.4V129.1z"/>
</g>
<g>
	<g>
		<line class="st5" x1="347.4" y1="137.5" x2="425" y2="137.5"/>
		<g>
			<polygon points="421.7,141.6 421,140.8 424.7,137.5 421,134.1 421.7,133.4 426.1,137.5 			"/>
		</g>
	</g>
</g>
<g>
	<path d="M265.7,134.5h-2.2v-9.8h2.2V134.5z"/>
	<path d="M278.9,134.5h-2.2v-4c0-1-0.4-1.5-1.1-1.5c-0.4,0-0.6,0.2-0.9,0.5c-0.2,0.3-0.3,0.7-0.3,1.1v3.9h-2.2v-4
		c0-1-0.4-1.5-1.1-1.5c-0.4,0-0.7,0.1-0.9,0.4c-0.2,0.3-0.3,0.7-0.3,1.2v3.9h-2.2v-7h2.2v1.1h0c0.2-0.4,0.5-0.7,0.9-0.9
		c0.4-0.2,0.8-0.4,1.3-0.4c1,0,1.7,0.4,2,1.3c0.5-0.9,1.3-1.3,2.4-1.3c1.5,0,2.3,0.9,2.3,2.8V134.5z"/>
	<path d="M282.8,133.6L282.8,133.6l0,4h-2.2v-10.2h2.2v1.1h0c0.5-0.8,1.3-1.2,2.2-1.2c0.9,0,1.6,0.3,2.1,0.9
		c0.5,0.6,0.7,1.5,0.7,2.5c0,1.2-0.3,2.1-0.9,2.8c-0.6,0.7-1.3,1.1-2.3,1.1C283.8,134.6,283.2,134.3,282.8,133.6z M282.7,130.8v0.6
		c0,0.5,0.1,0.9,0.4,1.2c0.3,0.3,0.6,0.5,1,0.5c0.5,0,0.9-0.2,1.1-0.6c0.3-0.4,0.4-0.9,0.4-1.6c0-1.2-0.5-1.8-1.4-1.8
		c-0.4,0-0.8,0.2-1.1,0.5S282.7,130.2,282.7,130.8z"/>
	<path d="M291.4,134.5h-2.2v-10.4h2.2V134.5z"/>
	<path d="M294.3,126.4c-0.4,0-0.7-0.1-0.9-0.3c-0.2-0.2-0.3-0.5-0.3-0.8c0-0.3,0.1-0.6,0.3-0.8s0.5-0.3,0.9-0.3
		c0.4,0,0.7,0.1,0.9,0.3c0.2,0.2,0.3,0.5,0.3,0.8c0,0.3-0.1,0.6-0.3,0.8C295,126.2,294.7,126.4,294.3,126.4z M295.4,134.5h-2.2v-7
		h2.2V134.5z"/>
	<path d="M302.5,134.2c-0.5,0.3-1.2,0.4-2.1,0.4c-1.1,0-1.9-0.3-2.6-1c-0.7-0.7-1-1.5-1-2.5c0-1.2,0.4-2.1,1.1-2.8
		c0.7-0.7,1.7-1,2.9-1c0.8,0,1.4,0.1,1.8,0.3v1.8c-0.5-0.3-1-0.5-1.5-0.5c-0.6,0-1.1,0.2-1.5,0.5s-0.5,0.9-0.5,1.5
		c0,0.6,0.2,1.1,0.5,1.5c0.3,0.4,0.8,0.5,1.4,0.5c0.5,0,1.1-0.2,1.6-0.5V134.2z"/>
	<path d="M305,126.4c-0.4,0-0.7-0.1-0.9-0.3c-0.2-0.2-0.3-0.5-0.3-0.8c0-0.3,0.1-0.6,0.3-0.8s0.5-0.3,0.9-0.3c0.4,0,0.7,0.1,0.9,0.3
		c0.2,0.2,0.3,0.5,0.3,0.8c0,0.3-0.1,0.6-0.3,0.8C305.7,126.2,305.4,126.4,305,126.4z M306.1,134.5h-2.2v-7h2.2V134.5z"/>
	<path d="M312.1,134.4c-0.3,0.2-0.8,0.3-1.4,0.3c-1.5,0-2.3-0.8-2.3-2.4v-3.2h-1.1v-1.6h1.1V126l2.2-0.6v2.1h1.6v1.6h-1.6v2.8
		c0,0.7,0.3,1.1,0.9,1.1c0.2,0,0.5-0.1,0.7-0.2V134.4z"/>
	<path d="M268.8,150.9c-0.7,0.3-1.7,0.5-2.8,0.5c-1.5,0-2.7-0.4-3.5-1.3c-0.9-0.9-1.3-2.1-1.3-3.5c0-1.6,0.5-2.8,1.5-3.8
		c1-1,2.2-1.5,3.8-1.5c1,0,1.8,0.1,2.4,0.4v2.1c-0.7-0.4-1.4-0.6-2.2-0.6c-0.9,0-1.7,0.3-2.2,0.9c-0.6,0.6-0.8,1.4-0.8,2.4
		c0,0.9,0.3,1.7,0.8,2.3c0.5,0.6,1.3,0.8,2.2,0.8c0.9,0,1.6-0.2,2.4-0.6V150.9z"/>
	<path d="M273.6,151.4c-1.2,0-2.1-0.3-2.8-1c-0.7-0.7-1-1.5-1-2.7c0-1.2,0.3-2.1,1-2.7c0.7-0.7,1.6-1,2.8-1c1.2,0,2.1,0.3,2.7,1
		c0.7,0.7,1,1.5,1,2.6c0,1.2-0.3,2.1-1,2.8C275.7,151.1,274.8,151.4,273.6,151.4z M273.7,145.7c-0.5,0-0.9,0.2-1.2,0.5
		c-0.3,0.4-0.4,0.8-0.4,1.5c0,1.3,0.5,2,1.6,2c1,0,1.6-0.7,1.6-2.1C275.2,146.4,274.7,145.7,273.7,145.7z"/>
	<path d="M285.6,151.3h-2.2v-3.9c0-1.1-0.4-1.6-1.2-1.6c-0.4,0-0.7,0.1-0.9,0.4c-0.2,0.3-0.4,0.7-0.4,1.1v4h-2.2v-7h2.2v1.1h0
		c0.5-0.9,1.3-1.3,2.2-1.3c1.5,0,2.3,1,2.3,2.9V151.3z"/>
	<path d="M291.9,142.6c-0.3-0.1-0.5-0.2-0.8-0.2c-0.7,0-1,0.4-1,1.1v0.7h1.6v1.6H290v5.4h-2.2v-5.4h-1.2v-1.6h1.2v-0.9
		c0-0.8,0.3-1.4,0.8-1.9c0.5-0.5,1.2-0.7,2.1-0.7c0.4,0,0.8,0,1.1,0.1V142.6z"/>
	<path d="M293.8,143.2c-0.4,0-0.7-0.1-0.9-0.3c-0.2-0.2-0.3-0.5-0.3-0.8c0-0.3,0.1-0.6,0.3-0.8s0.5-0.3,0.9-0.3
		c0.4,0,0.7,0.1,0.9,0.3c0.2,0.2,0.3,0.5,0.3,0.8c0,0.3-0.1,0.6-0.3,0.8C294.4,143,294.1,143.2,293.8,143.2z M294.8,151.3h-2.2v-7
		h2.2V151.3z"/>
	<path d="M301.2,146.2c-0.3-0.1-0.6-0.2-0.9-0.2c-0.5,0-0.8,0.2-1.1,0.5c-0.3,0.3-0.4,0.8-0.4,1.4v3.3h-2.2v-7h2.2v1.3h0
		c0.3-0.9,1-1.4,1.8-1.4c0.2,0,0.4,0,0.5,0.1V146.2z"/>
	<path d="M313.4,151.3h-2.2v-4c0-1-0.4-1.5-1.1-1.5c-0.4,0-0.6,0.2-0.9,0.5c-0.2,0.3-0.3,0.7-0.3,1.1v3.9h-2.2v-4
		c0-1-0.4-1.5-1.1-1.5c-0.4,0-0.7,0.1-0.9,0.4c-0.2,0.3-0.3,0.7-0.3,1.2v3.9h-2.2v-7h2.2v1.1h0c0.2-0.4,0.5-0.7,0.9-0.9
		c0.4-0.2,0.8-0.4,1.3-0.4c1,0,1.7,0.4,2,1.3c0.5-0.9,1.3-1.3,2.4-1.3c1.5,0,2.3,0.9,2.3,2.8V151.3z"/>
</g>
<g>
	<g>
		<line class="st5" x1="198.7" y1="137.5" x2="226.3" y2="137.5"/>
		<g>
			<polygon points="223,141.6 222.3,140.8 226,137.5 222.3,134.1 223,133.4 227.4,137.5 			"/>
		</g>
	</g>
</g>
<g>
	<g>
		<path class="st7" d="M364.1,136.5c-16.3-68.3-77.6-119-150.9-119c-73.6,0-135.2,51.2-151.1,120"/>
		<g>
			<polygon points="367,132.5 366.2,132 364,136.1 360.1,133.6 359.5,134.4 364.3,137.5 			"/>
		</g>
	</g>
</g>
</svg>
