<?xml version="1.0" encoding="utf-8"?>
<!-- Generator: Adobe Illustrator 24.1.3, SVG Export Plug-In . SVG Version: 6.00 Build 0)  -->
<svg version="1.1" id="Layer_1" xmlns="http://www.w3.org/2000/svg" xmlns:xlink="http://www.w3.org/1999/xlink" x="0px" y="0px"
	 viewBox="0 0 347.4 158.1" style="enable-background:new 0 0 347.4 158.1;" xml:space="preserve">
<style type="text/css">
	.st0{fill:#AC87BD;}
	.st1{fill:#59CAF0;}
	.st2{fill:#FAA946;}
	.st3{fill:#75C695;}
	.st4{fill:#A0AFB3;}
	.st5{fill:none;stroke:#000000;stroke-miterlimit:10;}
	.st6{fill:none;stroke:#000000;stroke-width:1.097;stroke-miterlimit:10;}
</style>
<g>
	<path d="M138.7,1c32.5,0,59,26.5,59,59s-26.5,59-59,59s-59-26.5-59-59S106.2,1,138.7,1 M138.7,0c-33.1,0-60,26.9-60,60
		s26.9,60,60,60s60-26.9,60-60S171.8,0,138.7,0L138.7,0z"/>
</g>
<g>
	<path d="M287.4,1c32.5,0,59,26.5,59,59s-26.5,59-59,59c-32.5,0-59-26.5-59-59S254.9,1,287.4,1 M287.4,0c-33.1,0-60,26.9-60,60
		s26.9,60,60,60c33.1,0,60-26.9,60-60S320.6,0,287.4,0L287.4,0z"/>
</g>
<g>
	<path d="M2.5,51.6H1v-8.4h1.4V51.6z"/>
	<path d="M9.7,51.6H8.4v-3.4c0-1.1-0.4-1.7-1.2-1.7c-0.4,0-0.8,0.2-1,0.5s-0.4,0.7-0.4,1.2v3.4H4.4v-6h1.4v1h0
		c0.4-0.8,1.1-1.1,1.9-1.1c0.7,0,1.2,0.2,1.5,0.6s0.5,1,0.5,1.8V51.6z"/>
	<path d="M16.6,45.6l-2.3,6h-1.5l-2.2-6H12l1.3,4.2c0.1,0.3,0.2,0.6,0.2,0.8h0c0-0.3,0.1-0.6,0.2-0.8l1.4-4.2H16.6z"/>
	<path d="M20,51.8c-0.9,0-1.7-0.3-2.2-0.8S17,49.6,17,48.7c0-1,0.3-1.8,0.9-2.4s1.4-0.8,2.3-0.8c0.9,0,1.7,0.3,2.2,0.8
		s0.8,1.3,0.8,2.3c0,1-0.3,1.7-0.8,2.3S21,51.8,20,51.8z M20.1,46.6c-0.5,0-1,0.2-1.3,0.6s-0.5,0.9-0.5,1.5c0,0.6,0.2,1.1,0.5,1.5
		s0.7,0.5,1.3,0.5c0.5,0,0.9-0.2,1.2-0.5s0.4-0.9,0.4-1.5c0-0.7-0.1-1.2-0.4-1.5S20.6,46.6,20.1,46.6z"/>
	<path d="M28.8,51.3c-0.5,0.3-1,0.4-1.7,0.4c-0.9,0-1.6-0.3-2.2-0.8s-0.8-1.3-0.8-2.2c0-1,0.3-1.8,0.9-2.4s1.4-0.9,2.4-0.9
		c0.5,0,1,0.1,1.4,0.3V47c-0.4-0.3-0.9-0.5-1.3-0.5c-0.6,0-1,0.2-1.4,0.6s-0.6,0.9-0.6,1.5c0,0.6,0.2,1.1,0.5,1.5s0.8,0.5,1.4,0.5
		c0.5,0,0.9-0.2,1.4-0.5V51.3z"/>
	<path d="M34.8,51.6h-1.3v-0.9h0c-0.4,0.7-1,1.1-1.8,1.1c-0.6,0-1.1-0.2-1.4-0.5s-0.5-0.7-0.5-1.3c0-1.1,0.7-1.8,2-2l1.8-0.3
		c0-0.9-0.4-1.3-1.2-1.3c-0.7,0-1.4,0.2-1.9,0.7V46c0.6-0.4,1.4-0.6,2.2-0.6c1.5,0,2.3,0.7,2.3,2.2V51.6z M33.5,48.7l-1.3,0.2
		c-0.4,0.1-0.7,0.1-0.9,0.3S31,49.5,31,49.9c0,0.3,0.1,0.5,0.3,0.6s0.4,0.2,0.7,0.2c0.4,0,0.8-0.1,1-0.4s0.4-0.7,0.4-1.1V48.7z"/>
	<path d="M39.6,51.5c-0.3,0.1-0.6,0.2-1,0.2c-1.2,0-1.7-0.6-1.7-1.7v-3.4h-1v-1.1h1v-1.4l1.4-0.4v1.8h1.4v1.1h-1.4v3
		c0,0.4,0.1,0.6,0.2,0.8s0.3,0.2,0.6,0.2c0.2,0,0.4-0.1,0.6-0.2V51.5z"/>
	<path d="M41.5,44.4c-0.2,0-0.4-0.1-0.6-0.2s-0.2-0.3-0.2-0.6s0.1-0.4,0.2-0.6s0.3-0.2,0.6-0.2c0.2,0,0.4,0.1,0.6,0.2
		s0.2,0.3,0.2,0.6c0,0.2-0.1,0.4-0.2,0.5S41.7,44.4,41.5,44.4z M42.1,51.6h-1.4v-6h1.4V51.6z"/>
	<path d="M46.6,51.8c-0.9,0-1.7-0.3-2.2-0.8s-0.8-1.3-0.8-2.2c0-1,0.3-1.8,0.9-2.4s1.4-0.8,2.3-0.8c0.9,0,1.7,0.3,2.2,0.8
		s0.8,1.3,0.8,2.3c0,1-0.3,1.7-0.8,2.3S47.5,51.8,46.6,51.8z M46.6,46.6c-0.5,0-1,0.2-1.3,0.6s-0.5,0.9-0.5,1.5
		c0,0.6,0.2,1.1,0.5,1.5s0.7,0.5,1.3,0.5c0.5,0,0.9-0.2,1.2-0.5s0.4-0.9,0.4-1.5c0-0.7-0.1-1.2-0.4-1.5S47.2,46.6,46.6,46.6z"/>
	<path d="M56.4,51.6h-1.4v-3.4c0-1.1-0.4-1.7-1.2-1.7c-0.4,0-0.8,0.2-1,0.5s-0.4,0.7-0.4,1.2v3.4h-1.4v-6h1.4v1h0
		c0.4-0.8,1.1-1.1,1.9-1.1c0.7,0,1.2,0.2,1.5,0.6s0.5,1,0.5,1.8V51.6z"/>
</g>
<g>
	<g>
		<path d="M108.8,64v-9.8h3.5c3.5,0,5.2,1.6,5.2,4.8c0,1.5-0.5,2.7-1.4,3.7c-1,0.9-2.2,1.4-3.8,1.4H108.8z M111,56v6.2h1.1
			c1,0,1.7-0.3,2.3-0.9c0.5-0.6,0.8-1.4,0.8-2.3c0-0.9-0.3-1.7-0.8-2.2c-0.5-0.5-1.3-0.8-2.3-0.8H111z"/>
		<path d="M120,55.9c-0.4,0-0.7-0.1-0.9-0.3c-0.2-0.2-0.3-0.5-0.3-0.8c0-0.3,0.1-0.6,0.3-0.8s0.5-0.3,0.9-0.3c0.4,0,0.7,0.1,0.9,0.3
			c0.2,0.2,0.3,0.5,0.3,0.8c0,0.3-0.1,0.6-0.3,0.8C120.6,55.8,120.3,55.9,120,55.9z M121,64h-2.2v-7h2.2V64z"/>
		<path d="M122.4,63.8v-1.8c0.4,0.2,0.7,0.4,1.1,0.5c0.4,0.1,0.7,0.2,1,0.2c0.4,0,0.7-0.1,0.9-0.2c0.2-0.1,0.3-0.3,0.3-0.5
			c0-0.1,0-0.3-0.2-0.3c-0.1-0.1-0.2-0.2-0.4-0.2s-0.3-0.1-0.5-0.2c-0.2-0.1-0.4-0.1-0.5-0.2c-0.3-0.1-0.5-0.2-0.7-0.3
			c-0.2-0.1-0.4-0.3-0.5-0.4c-0.1-0.2-0.3-0.3-0.3-0.6c-0.1-0.2-0.1-0.5-0.1-0.7c0-0.4,0.1-0.7,0.3-1c0.2-0.3,0.4-0.5,0.7-0.7
			c0.3-0.2,0.6-0.3,1-0.4c0.4-0.1,0.7-0.1,1.1-0.1c0.3,0,0.6,0,0.9,0.1c0.3,0,0.6,0.1,0.9,0.2v1.7c-0.3-0.2-0.6-0.3-0.9-0.4
			c-0.3-0.1-0.6-0.1-0.9-0.1c-0.1,0-0.3,0-0.4,0c-0.1,0-0.2,0.1-0.3,0.1s-0.2,0.1-0.2,0.2s-0.1,0.2-0.1,0.3c0,0.1,0,0.2,0.1,0.3
			c0.1,0.1,0.2,0.2,0.3,0.2c0.1,0.1,0.3,0.1,0.4,0.2c0.2,0.1,0.3,0.1,0.5,0.2c0.3,0.1,0.5,0.2,0.8,0.3c0.2,0.1,0.4,0.3,0.6,0.4
			c0.2,0.2,0.3,0.3,0.4,0.6c0.1,0.2,0.1,0.5,0.1,0.8c0,0.4-0.1,0.8-0.3,1.1c-0.2,0.3-0.4,0.5-0.7,0.7c-0.3,0.2-0.6,0.3-1,0.4
			c-0.4,0.1-0.8,0.1-1.2,0.1C123.8,64.2,123,64.1,122.4,63.8z"/>
		<path d="M134.8,64h-2v-1h0c-0.5,0.8-1.2,1.2-2.1,1.2c-0.7,0-1.2-0.2-1.6-0.6c-0.4-0.4-0.6-0.9-0.6-1.5c0-1.4,0.8-2.1,2.4-2.4
			l1.9-0.3c0-0.8-0.4-1.1-1.2-1.1c-0.8,0-1.6,0.2-2.4,0.7v-1.6c0.3-0.2,0.7-0.3,1.2-0.4c0.5-0.1,1-0.2,1.4-0.2c2,0,3,1,3,3V64z
			 M132.8,61.2v-0.5l-1.3,0.2c-0.7,0.1-1.1,0.4-1.1,1c0,0.2,0.1,0.4,0.3,0.6s0.4,0.2,0.7,0.2c0.4,0,0.7-0.1,1-0.4
			C132.7,61.9,132.8,61.6,132.8,61.2z"/>
		<path d="M147.7,64h-2.2v-4c0-1-0.4-1.5-1.1-1.5c-0.4,0-0.6,0.2-0.9,0.5c-0.2,0.3-0.3,0.7-0.3,1.1V64H141v-4c0-1-0.4-1.5-1.1-1.5
			c-0.4,0-0.7,0.1-0.9,0.4c-0.2,0.3-0.3,0.7-0.3,1.2V64h-2.2v-7h2.2v1.1h0c0.2-0.4,0.5-0.7,0.9-0.9c0.4-0.2,0.8-0.4,1.3-0.4
			c1,0,1.7,0.4,2,1.3c0.5-0.9,1.3-1.3,2.4-1.3c1.5,0,2.3,0.9,2.3,2.8V64z"/>
		<path d="M151.6,63.2L151.6,63.2l0,0.8h-2.2V53.6h2.2v4.4h0c0.5-0.8,1.3-1.2,2.3-1.2c0.9,0,1.6,0.3,2.1,0.9
			c0.5,0.6,0.7,1.5,0.7,2.5c0,1.2-0.3,2.1-0.9,2.8c-0.6,0.7-1.3,1.1-2.3,1.1C152.6,64.2,152,63.8,151.6,63.2z M151.5,60.2V61
			c0,0.5,0.1,0.8,0.4,1.1c0.3,0.3,0.6,0.4,1,0.4c0.5,0,0.9-0.2,1.1-0.6c0.3-0.4,0.4-0.9,0.4-1.6c0-0.6-0.1-1-0.4-1.4
			c-0.2-0.3-0.6-0.5-1.1-0.5c-0.4,0-0.8,0.2-1.1,0.5C151.6,59.3,151.5,59.7,151.5,60.2z"/>
		<path d="M159.1,55.9c-0.4,0-0.7-0.1-0.9-0.3c-0.2-0.2-0.3-0.5-0.3-0.8c0-0.3,0.1-0.6,0.3-0.8s0.5-0.3,0.9-0.3
			c0.4,0,0.7,0.1,0.9,0.3c0.2,0.2,0.3,0.5,0.3,0.8c0,0.3-0.1,0.6-0.3,0.8C159.8,55.8,159.5,55.9,159.1,55.9z M160.2,64H158v-7h2.2
			V64z"/>
		<path d="M168.9,63.2c0,1.3-0.4,2.3-1.1,3c-0.8,0.7-1.8,1.1-3.3,1.1c-0.9,0-1.7-0.1-2.2-0.4v-1.8c0.7,0.4,1.4,0.6,2.2,0.6
			c0.7,0,1.3-0.2,1.7-0.6c0.4-0.4,0.6-0.9,0.6-1.6V63h0c-0.5,0.8-1.2,1.2-2.2,1.2c-0.9,0-1.6-0.3-2.1-0.9c-0.5-0.6-0.8-1.5-0.8-2.5
			c0-1.2,0.3-2.1,0.9-2.8c0.6-0.7,1.4-1,2.3-1c0.9,0,1.5,0.3,1.9,1h0V57h2.2V63.2z M166.8,60.6v-0.6c0-0.4-0.1-0.8-0.4-1.1
			c-0.3-0.3-0.6-0.5-1-0.5c-0.5,0-0.9,0.2-1.1,0.6c-0.3,0.4-0.4,0.9-0.4,1.6c0,0.6,0.1,1,0.4,1.4c0.3,0.3,0.6,0.5,1.1,0.5
			c0.4,0,0.8-0.2,1.1-0.5C166.6,61.7,166.8,61.2,166.8,60.6z"/>
	</g>
</g>
<g>
	<g>
		<line class="st5" x1="0" y1="60" x2="77.6" y2="60"/>
		<g>
			<polygon points="74.3,64.1 73.6,63.4 77.2,60 73.6,56.6 74.3,55.9 78.7,60 			"/>
		</g>
	</g>
</g>
<g>
	<g>
		<path d="M272.8,64h-2.4l-0.7-2.2h-3.5l-0.7,2.2h-2.4l3.6-9.8h2.6L272.8,64z M269.2,60.1l-1.1-3.3c-0.1-0.2-0.1-0.5-0.2-0.9h-0.1
			c0,0.3-0.1,0.6-0.2,0.9l-1.1,3.3H269.2z"/>
		<path d="M280.6,64h-2.2v-3.9c0-1.1-0.4-1.6-1.2-1.6c-0.4,0-0.7,0.1-0.9,0.4c-0.2,0.3-0.4,0.7-0.4,1.1v4h-2.2v-7h2.2v1.1h0
			c0.5-0.9,1.3-1.3,2.2-1.3c1.5,0,2.3,1,2.3,2.9V64z"/>
		<path d="M281.8,63.8v-1.8c0.4,0.2,0.7,0.4,1.1,0.5c0.4,0.1,0.7,0.2,1,0.2c0.4,0,0.7-0.1,0.9-0.2c0.2-0.1,0.3-0.3,0.3-0.5
			c0-0.1,0-0.3-0.2-0.3c-0.1-0.1-0.2-0.2-0.4-0.2s-0.3-0.1-0.5-0.2c-0.2-0.1-0.4-0.1-0.5-0.2c-0.3-0.1-0.5-0.2-0.7-0.3
			c-0.2-0.1-0.4-0.3-0.5-0.4c-0.1-0.2-0.3-0.3-0.3-0.6c-0.1-0.2-0.1-0.5-0.1-0.7c0-0.4,0.1-0.7,0.3-1c0.2-0.3,0.4-0.5,0.7-0.7
			c0.3-0.2,0.6-0.3,1-0.4c0.4-0.1,0.7-0.1,1.1-0.1c0.3,0,0.6,0,0.9,0.1c0.3,0,0.6,0.1,0.9,0.2v1.7c-0.3-0.2-0.6-0.3-0.9-0.4
			c-0.3-0.1-0.6-0.1-0.9-0.1c-0.1,0-0.3,0-0.4,0c-0.1,0-0.2,0.1-0.3,0.1s-0.2,0.1-0.2,0.2s-0.1,0.2-0.1,0.3c0,0.1,0,0.2,0.1,0.3
			c0.1,0.1,0.2,0.2,0.3,0.2c0.1,0.1,0.3,0.1,0.4,0.2c0.2,0.1,0.3,0.1,0.5,0.2c0.3,0.1,0.5,0.2,0.8,0.3c0.2,0.1,0.4,0.3,0.6,0.4
			c0.2,0.2,0.3,0.3,0.4,0.6c0.1,0.2,0.1,0.5,0.1,0.8c0,0.4-0.1,0.8-0.3,1.1c-0.2,0.3-0.4,0.5-0.7,0.7c-0.3,0.2-0.6,0.3-1,0.4
			c-0.4,0.1-0.8,0.1-1.2,0.1C283.2,64.2,282.5,64.1,281.8,63.8z"/>
		<path d="M298.6,57l-2,7h-2.3l-1-4.1c-0.1-0.3-0.1-0.6-0.1-0.9h0c0,0.4-0.1,0.6-0.1,0.9l-1.1,4.1h-2.2l-2-7h2.2l1,4.6
			c0,0.2,0.1,0.5,0.1,0.8h0c0-0.3,0.1-0.6,0.1-0.8l1.2-4.5h2.1l1.1,4.6c0,0.1,0.1,0.4,0.1,0.8h0c0-0.3,0.1-0.5,0.1-0.8l0.9-4.6
			H298.6z"/>
		<path d="M305.8,61.1h-4.6c0.1,1,0.7,1.5,1.9,1.5c0.8,0,1.4-0.2,2-0.5v1.6c-0.6,0.3-1.5,0.5-2.5,0.5c-1.1,0-2-0.3-2.6-0.9
			c-0.6-0.6-0.9-1.5-0.9-2.6c0-1.2,0.3-2.1,1-2.8c0.7-0.7,1.5-1,2.5-1c1,0,1.8,0.3,2.4,0.9c0.6,0.6,0.8,1.4,0.8,2.5V61.1z
			 M303.8,59.8c0-1-0.4-1.5-1.2-1.5c-0.3,0-0.6,0.1-0.9,0.4s-0.4,0.6-0.5,1.1H303.8z"/>
		<path d="M311.7,58.9c-0.3-0.1-0.6-0.2-0.9-0.2c-0.5,0-0.8,0.2-1.1,0.5c-0.3,0.3-0.4,0.8-0.4,1.4V64h-2.2v-7h2.2v1.3h0
			c0.3-0.9,1-1.4,1.8-1.4c0.2,0,0.4,0,0.5,0.1V58.9z"/>
	</g>
</g>
<g>
	<g>
		<path d="M171.3,146.5l-1.6,0l-1.4-2.2c-0.1-0.2-0.2-0.4-0.4-0.5c-0.1-0.1-0.2-0.3-0.4-0.4c-0.1-0.1-0.3-0.2-0.4-0.2
			c-0.1,0-0.3-0.1-0.5-0.1l-0.6,0l0,3.4l-1.4,0l-0.1-8.4l2.8,0c0.4,0,0.8,0,1.1,0.1c0.3,0.1,0.6,0.2,0.9,0.4s0.4,0.4,0.6,0.7
			c0.1,0.3,0.2,0.6,0.2,1c0,0.3,0,0.6-0.1,0.8s-0.2,0.5-0.4,0.7s-0.4,0.4-0.6,0.5s-0.5,0.2-0.8,0.3l0,0c0.2,0.1,0.3,0.2,0.4,0.3
			s0.2,0.2,0.3,0.3c0.1,0.1,0.2,0.2,0.3,0.4c0.1,0.1,0.2,0.3,0.3,0.5L171.3,146.5z M166.2,139.2l0,2.7l1.2,0c0.2,0,0.4,0,0.6-0.1
			c0.2-0.1,0.3-0.2,0.5-0.3c0.1-0.1,0.2-0.3,0.3-0.5c0.1-0.2,0.1-0.4,0.1-0.6c0-0.4-0.1-0.7-0.4-0.9c-0.3-0.2-0.6-0.3-1.1-0.3
			L166.2,139.2z"/>
		<path d="M176.9,143.8l-4.1,0c0,0.6,0.2,1,0.5,1.3c0.3,0.3,0.8,0.4,1.3,0.4c0.6,0,1.2-0.2,1.8-0.6l0,1.1c-0.5,0.3-1.3,0.5-2.2,0.5
			c-0.9,0-1.6-0.3-2.1-0.8c-0.5-0.5-0.8-1.3-0.8-2.3c0-0.9,0.3-1.7,0.8-2.3c0.5-0.6,1.2-0.9,2.1-0.9s1.5,0.3,1.9,0.8
			c0.5,0.5,0.7,1.3,0.7,2.2L176.9,143.8z M175.6,142.8c0-0.5-0.1-0.9-0.4-1.1c-0.2-0.3-0.5-0.4-0.9-0.4c-0.4,0-0.7,0.1-1,0.4
			c-0.3,0.3-0.4,0.7-0.5,1.1L175.6,142.8z"/>
		<path d="M181.5,138.6c-0.2-0.1-0.4-0.2-0.6-0.2c-0.7,0-1,0.4-1,1.1l0,0.8l1.4,0l0,1.1l-1.4,0l0,4.9l-1.4,0l0-4.9l-1,0l0-1.1l1,0
			l0-1c0-0.6,0.2-1.1,0.6-1.5s0.9-0.6,1.5-0.6c0.3,0,0.6,0,0.8,0.1L181.5,138.6z"/>
		<path d="M183,139.1c-0.2,0-0.4-0.1-0.6-0.2s-0.2-0.3-0.2-0.5s0.1-0.4,0.2-0.6s0.3-0.2,0.6-0.2c0.2,0,0.4,0.1,0.6,0.2
			c0.2,0.1,0.2,0.3,0.2,0.6c0,0.2-0.1,0.4-0.2,0.5C183.4,139,183.2,139.1,183,139.1z M183.7,146.4l-1.4,0l0-6l1.4,0L183.7,146.4z"/>
		<path d="M190.8,146.3l-1.4,0l0-3.4c0-1.1-0.4-1.7-1.2-1.7c-0.4,0-0.8,0.2-1,0.5s-0.4,0.7-0.4,1.2l0,3.4l-1.4,0l0-6l1.4,0l0,1h0
			c0.4-0.8,1.1-1.1,1.9-1.2c0.7,0,1.2,0.2,1.5,0.6c0.3,0.4,0.5,1,0.5,1.8L190.8,146.3z"/>
		<path d="M197.5,143.6l-4.1,0c0,0.6,0.2,1,0.5,1.3c0.3,0.3,0.8,0.4,1.3,0.4c0.6,0,1.2-0.2,1.8-0.6l0,1.1c-0.5,0.3-1.3,0.5-2.2,0.5
			c-0.9,0-1.6-0.3-2.1-0.8s-0.8-1.3-0.8-2.3c0-0.9,0.3-1.7,0.8-2.3c0.5-0.6,1.2-0.9,2.1-0.9c0.8,0,1.5,0.3,1.9,0.8s0.7,1.3,0.7,2.2
			L197.5,143.6z M196.2,142.7c0-0.5-0.1-0.9-0.4-1.1c-0.2-0.3-0.5-0.4-0.9-0.4c-0.4,0-0.7,0.1-1,0.4s-0.4,0.7-0.5,1.1L196.2,142.7z"
			/>
	</g>
</g>
<g>
	<g>
		<line class="st5" x1="198.7" y1="60" x2="226.3" y2="60"/>
		<g>
			<polygon points="223,64.1 222.3,63.4 226,60 222.3,56.6 223,55.9 227.4,60 			"/>
		</g>
	</g>
</g>
<g>
	<g>
		<path class="st6" d="M287.4,119.9c-29.7,22.4-66.7,35.6-106.7,35.6c-68.1,0-127.2-38.3-157.1-94.5"/>
		<g>
			<polygon points="29.3,62 29,63 23.8,61.4 22.6,66.7 21.5,66.4 23,60 			"/>
		</g>
	</g>
</g>
</svg>
