<?xml version="1.0" encoding="utf-8"?>
<!-- Generator: Adobe Illustrator 24.1.3, SVG Export Plug-In . SVG Version: 6.00 Build 0)  -->
<svg version="1.1" id="Layer_1" xmlns="http://www.w3.org/2000/svg" xmlns:xlink="http://www.w3.org/1999/xlink" x="0px" y="0px"
	 viewBox="0 0 537.1 268.7" style="enable-background:new 0 0 537.1 268.7;" xml:space="preserve">
<style type="text/css">
	.st0{fill:#AC87BD;}
	.st1{fill:#59CAF0;}
	.st2{fill:#FAA946;}
	.st3{fill:#75C695;}
	.st4{fill:#A0AFB3;}
	.st5{fill:none;stroke:#000000;stroke-miterlimit:10;}
	.st6{fill:none;stroke:#000000;stroke-width:1.097;stroke-miterlimit:10;}
</style>
<g>
	<path d="M436.1,149.7c32.5,0,59,26.5,59,59s-26.5,59-59,59c-32.5,0-59-26.5-59-59S403.6,149.7,436.1,149.7 M436.1,148.7
		c-33.1,0-60,26.9-60,60s26.9,60,60,60c33.1,0,60-26.9,60-60S469.3,148.7,436.1,148.7L436.1,148.7z"/>
</g>
<g>
	<path d="M287.4,149.7c32.5,0,59,26.5,59,59s-26.5,59-59,59s-59-26.5-59-59S254.9,149.7,287.4,149.7 M287.4,148.7
		c-33.1,0-60,26.9-60,60s26.9,60,60,60c33.1,0,60-26.9,60-60S320.6,148.7,287.4,148.7L287.4,148.7z"/>
</g>
<g>
	<path d="M436.1,1c32.5,0,59,26.5,59,59s-26.5,59-59,59s-59-26.5-59-59S403.6,1,436.1,1 M436.1,0c-33.1,0-60,26.9-60,60
		s26.9,60,60,60s60-26.9,60-60S469.3,0,436.1,0L436.1,0z"/>
</g>
<g>
	<path d="M287.4,1c32.5,0,59,26.5,59,59s-26.5,59-59,59c-32.5,0-59-26.5-59-59S254.9,1,287.4,1 M287.4,0c-33.1,0-60,26.9-60,60
		s26.9,60,60,60c33.1,0,60-26.9,60-60S320.6,0,287.4,0L287.4,0z"/>
</g>
<g>
	<path d="M138.7,1c32.5,0,59,26.5,59,59s-26.5,59-59,59s-59-26.5-59-59S106.2,1,138.7,1 M138.7,0c-33.1,0-60,26.9-60,60
		s26.9,60,60,60s60-26.9,60-60S171.8,0,138.7,0L138.7,0z"/>
</g>
<g>
	<path d="M2.9,51.6H1v-8.4h1.9V51.6z"/>
	<path d="M10.4,51.6H8.5v-3.3c0-0.9-0.3-1.4-1-1.4c-0.3,0-0.6,0.1-0.8,0.4s-0.3,0.6-0.3,0.9v3.4H4.6v-6h1.9v0.9h0
		c0.4-0.7,1.1-1.1,1.9-1.1c1.3,0,2,0.8,2,2.5V51.6z"/>
	<path d="M17.6,45.6l-2.2,6h-2.1l-2.1-6h2l1,3.7c0.1,0.4,0.2,0.8,0.2,1.1h0c0-0.3,0.1-0.6,0.2-1l1.1-3.7H17.6z"/>
	<path d="M21.1,51.8c-1,0-1.8-0.3-2.4-0.8s-0.9-1.3-0.9-2.3c0-1,0.3-1.8,0.9-2.3s1.4-0.8,2.4-0.8c1,0,1.8,0.3,2.3,0.8
		s0.8,1.3,0.8,2.2c0,1-0.3,1.8-0.9,2.4S22.1,51.8,21.1,51.8z M21.1,46.9c-0.4,0-0.8,0.2-1,0.5s-0.4,0.7-0.4,1.3
		c0,1.2,0.5,1.7,1.4,1.7c0.9,0,1.3-0.6,1.3-1.8C22.5,47.4,22,46.9,21.1,46.9z"/>
	<path d="M30.1,51.4c-0.4,0.2-1,0.4-1.8,0.4c-0.9,0-1.7-0.3-2.2-0.8s-0.9-1.3-0.9-2.2c0-1,0.3-1.8,0.9-2.4s1.4-0.9,2.5-0.9
		c0.7,0,1.2,0.1,1.5,0.3v1.6c-0.4-0.3-0.8-0.4-1.3-0.4c-0.5,0-1,0.2-1.3,0.5s-0.5,0.7-0.5,1.3c0,0.5,0.1,0.9,0.4,1.3
		s0.7,0.5,1.2,0.5c0.5,0,0.9-0.1,1.4-0.4V51.4z"/>
	<path d="M36.3,51.6h-1.8v-0.9h0c-0.4,0.7-1,1-1.8,1c-0.6,0-1-0.2-1.4-0.5s-0.5-0.8-0.5-1.3c0-1.2,0.7-1.8,2.1-2l1.6-0.2
		c0-0.7-0.4-1-1.1-1c-0.7,0-1.4,0.2-2,0.6V46c0.3-0.1,0.6-0.3,1.1-0.4s0.9-0.2,1.2-0.2c1.7,0,2.6,0.9,2.6,2.6V51.6z M34.6,49.2v-0.4
		l-1.1,0.1c-0.6,0.1-0.9,0.3-0.9,0.8c0,0.2,0.1,0.4,0.2,0.5s0.3,0.2,0.6,0.2c0.3,0,0.6-0.1,0.8-0.4S34.6,49.5,34.6,49.2z"/>
	<path d="M41.4,51.5c-0.3,0.1-0.7,0.2-1.2,0.2c-1.3,0-2-0.7-2-2V47h-1v-1.4h1v-1.3l1.8-0.5v1.8h1.3V47h-1.3v2.4
		c0,0.6,0.2,0.9,0.7,0.9c0.2,0,0.4-0.1,0.6-0.2V51.5z"/>
	<path d="M43.4,44.7c-0.3,0-0.6-0.1-0.8-0.3s-0.3-0.4-0.3-0.7c0-0.3,0.1-0.5,0.3-0.7s0.5-0.3,0.8-0.3c0.3,0,0.6,0.1,0.8,0.3
		s0.3,0.4,0.3,0.7c0,0.3-0.1,0.5-0.3,0.7S43.7,44.7,43.4,44.7z M44.3,51.6h-1.9v-6h1.9V51.6z"/>
	<path d="M48.7,51.8c-1,0-1.8-0.3-2.4-0.8s-0.9-1.3-0.9-2.3c0-1,0.3-1.8,0.9-2.3s1.4-0.8,2.4-0.8c1,0,1.8,0.3,2.3,0.8
		s0.8,1.3,0.8,2.2c0,1-0.3,1.8-0.9,2.4S49.7,51.8,48.7,51.8z M48.8,46.9c-0.4,0-0.8,0.2-1,0.5s-0.4,0.7-0.4,1.3
		c0,1.2,0.5,1.7,1.4,1.7c0.9,0,1.3-0.6,1.3-1.8C50.1,47.4,49.7,46.9,48.8,46.9z"/>
	<path d="M59,51.6h-1.8v-3.3c0-0.9-0.3-1.4-1-1.4c-0.3,0-0.6,0.1-0.8,0.4S55,47.8,55,48.2v3.4h-1.9v-6H55v0.9h0
		c0.4-0.7,1.1-1.1,1.9-1.1c1.3,0,2,0.8,2,2.5V51.6z"/>
</g>
<g>
	<path d="M136.5,64h-2.4l-0.7-2.2h-3.5l-0.7,2.2h-2.4l3.6-9.8h2.6L136.5,64z M132.9,60.1l-1.1-3.3c-0.1-0.2-0.1-0.5-0.2-0.9h-0.1
		c0,0.3-0.1,0.6-0.2,0.9l-1.1,3.3H132.9z"/>
	<path d="M137.1,63.8v-1.8c0.4,0.2,0.7,0.4,1.1,0.5c0.4,0.1,0.7,0.2,1,0.2c0.4,0,0.7-0.1,0.9-0.2c0.2-0.1,0.3-0.3,0.3-0.5
		c0-0.1-0.1-0.3-0.2-0.3c-0.1-0.1-0.2-0.2-0.4-0.2s-0.3-0.1-0.5-0.2c-0.2-0.1-0.4-0.1-0.5-0.2c-0.3-0.1-0.5-0.2-0.7-0.3
		s-0.4-0.3-0.5-0.4s-0.3-0.3-0.3-0.6s-0.1-0.5-0.1-0.7c0-0.4,0.1-0.7,0.3-1s0.4-0.5,0.7-0.7c0.3-0.2,0.6-0.3,1-0.4
		c0.4-0.1,0.7-0.1,1.1-0.1c0.3,0,0.6,0,0.9,0.1c0.3,0,0.6,0.1,0.9,0.2v1.7c-0.3-0.2-0.6-0.3-0.9-0.4c-0.3-0.1-0.6-0.1-0.9-0.1
		c-0.1,0-0.3,0-0.4,0c-0.1,0-0.2,0.1-0.3,0.1s-0.2,0.1-0.2,0.2s-0.1,0.2-0.1,0.3c0,0.1,0,0.2,0.1,0.3s0.2,0.2,0.3,0.2
		c0.1,0.1,0.3,0.1,0.4,0.2c0.2,0.1,0.3,0.1,0.5,0.2c0.3,0.1,0.5,0.2,0.8,0.3s0.4,0.3,0.6,0.4c0.2,0.2,0.3,0.3,0.4,0.6
		s0.1,0.5,0.1,0.8c0,0.4-0.1,0.8-0.3,1.1c-0.2,0.3-0.4,0.5-0.7,0.7c-0.3,0.2-0.6,0.3-1,0.4c-0.4,0.1-0.8,0.1-1.2,0.1
		C138.5,64.2,137.7,64.1,137.1,63.8z"/>
	<path d="M150.7,64h-2.6l-2.2-3.5h0V64h-2.2V53.6h2.2v6.6h0L148,57h2.6l-2.5,3.3L150.7,64z"/>
</g>
<g>
	<g>
		<line class="st5" x1="0" y1="60" x2="77.6" y2="60"/>
		<g>
			<polygon points="74.3,64.1 73.6,63.4 77.2,60 73.6,56.6 74.3,55.9 78.7,60 			"/>
		</g>
	</g>
</g>
<g>
	<path d="M257.5,64v-9.8h3.5c3.5,0,5.2,1.6,5.2,4.8c0,1.5-0.5,2.7-1.4,3.7s-2.2,1.4-3.8,1.4H257.5z M259.7,56v6.2h1.1
		c1,0,1.7-0.3,2.3-0.9c0.5-0.6,0.8-1.4,0.8-2.3c0-0.9-0.3-1.7-0.8-2.2s-1.3-0.8-2.3-0.8H259.7z"/>
	<path d="M268.7,55.9c-0.4,0-0.7-0.1-0.9-0.3s-0.3-0.5-0.3-0.8c0-0.3,0.1-0.6,0.3-0.8s0.5-0.3,0.9-0.3c0.4,0,0.7,0.1,0.9,0.3
		c0.2,0.2,0.3,0.5,0.3,0.8c0,0.3-0.1,0.6-0.3,0.8C269.3,55.8,269,55.9,268.7,55.9z M269.7,64h-2.2v-7h2.2V64z"/>
	<path d="M271.1,63.8v-1.8c0.4,0.2,0.7,0.4,1.1,0.5c0.4,0.1,0.7,0.2,1,0.2c0.4,0,0.7-0.1,0.9-0.2c0.2-0.1,0.3-0.3,0.3-0.5
		c0-0.1-0.1-0.3-0.2-0.3c-0.1-0.1-0.2-0.2-0.4-0.2s-0.3-0.1-0.5-0.2c-0.2-0.1-0.4-0.1-0.5-0.2c-0.3-0.1-0.5-0.2-0.7-0.3
		s-0.4-0.3-0.5-0.4s-0.3-0.3-0.3-0.6s-0.1-0.5-0.1-0.7c0-0.4,0.1-0.7,0.3-1s0.4-0.5,0.7-0.7c0.3-0.2,0.6-0.3,1-0.4
		c0.4-0.1,0.7-0.1,1.1-0.1c0.3,0,0.6,0,0.9,0.1c0.3,0,0.6,0.1,0.9,0.2v1.7c-0.3-0.2-0.6-0.3-0.9-0.4c-0.3-0.1-0.6-0.1-0.9-0.1
		c-0.1,0-0.3,0-0.4,0c-0.1,0-0.2,0.1-0.3,0.1s-0.2,0.1-0.2,0.2s-0.1,0.2-0.1,0.3c0,0.1,0,0.2,0.1,0.3s0.2,0.2,0.3,0.2
		c0.1,0.1,0.3,0.1,0.4,0.2c0.2,0.1,0.3,0.1,0.5,0.2c0.3,0.1,0.5,0.2,0.8,0.3s0.4,0.3,0.6,0.4c0.2,0.2,0.3,0.3,0.4,0.6
		s0.1,0.5,0.1,0.8c0,0.4-0.1,0.8-0.3,1.1c-0.2,0.3-0.4,0.5-0.7,0.7c-0.3,0.2-0.6,0.3-1,0.4c-0.4,0.1-0.8,0.1-1.2,0.1
		C272.5,64.2,271.8,64.1,271.1,63.8z"/>
	<path d="M283.5,64h-2v-1h0c-0.5,0.8-1.2,1.2-2.1,1.2c-0.7,0-1.2-0.2-1.6-0.6s-0.6-0.9-0.6-1.5c0-1.4,0.8-2.1,2.4-2.4l1.9-0.3
		c0-0.8-0.4-1.1-1.2-1.1c-0.8,0-1.6,0.2-2.4,0.7v-1.6c0.3-0.2,0.7-0.3,1.2-0.4c0.5-0.1,1-0.2,1.4-0.2c2,0,3,1,3,3V64z M281.5,61.2
		v-0.5l-1.3,0.2c-0.7,0.1-1.1,0.4-1.1,1c0,0.2,0.1,0.4,0.3,0.6s0.4,0.2,0.7,0.2c0.4,0,0.7-0.1,1-0.4
		C281.4,61.9,281.5,61.6,281.5,61.2z"/>
	<path d="M296.4,64h-2.2v-4c0-1-0.4-1.5-1.1-1.5c-0.4,0-0.6,0.2-0.9,0.5c-0.2,0.3-0.3,0.7-0.3,1.1V64h-2.2v-4c0-1-0.4-1.5-1.1-1.5
		c-0.4,0-0.7,0.1-0.9,0.4c-0.2,0.3-0.3,0.7-0.3,1.2V64h-2.2v-7h2.2v1.1h0c0.2-0.4,0.5-0.7,0.9-0.9s0.8-0.4,1.3-0.4
		c1,0,1.7,0.4,2,1.3c0.5-0.9,1.3-1.3,2.4-1.3c1.5,0,2.3,0.9,2.3,2.8V64z"/>
	<path d="M300.3,63.2L300.3,63.2l0,0.8h-2.2V53.6h2.2v4.4h0c0.5-0.8,1.3-1.2,2.3-1.2c0.9,0,1.6,0.3,2.1,0.9c0.5,0.6,0.7,1.5,0.7,2.5
		c0,1.2-0.3,2.1-0.9,2.8c-0.6,0.7-1.3,1.1-2.3,1.1C301.4,64.2,300.7,63.8,300.3,63.2z M300.2,60.2V61c0,0.5,0.1,0.8,0.4,1.1
		s0.6,0.4,1,0.4c0.5,0,0.9-0.2,1.1-0.6c0.3-0.4,0.4-0.9,0.4-1.6c0-0.6-0.1-1-0.4-1.4c-0.2-0.3-0.6-0.5-1.1-0.5
		c-0.4,0-0.8,0.2-1.1,0.5C300.3,59.3,300.2,59.7,300.2,60.2z"/>
	<path d="M307.8,55.9c-0.4,0-0.7-0.1-0.9-0.3s-0.3-0.5-0.3-0.8c0-0.3,0.1-0.6,0.3-0.8s0.5-0.3,0.9-0.3c0.4,0,0.7,0.1,0.9,0.3
		c0.2,0.2,0.3,0.5,0.3,0.8c0,0.3-0.1,0.6-0.3,0.8C308.5,55.8,308.2,55.9,307.8,55.9z M308.9,64h-2.2v-7h2.2V64z"/>
	<path d="M317.6,63.2c0,1.3-0.4,2.3-1.1,3s-1.8,1.1-3.3,1.1c-0.9,0-1.7-0.1-2.2-0.4v-1.8c0.7,0.4,1.4,0.6,2.2,0.6
		c0.7,0,1.3-0.2,1.7-0.6c0.4-0.4,0.6-0.9,0.6-1.6V63h0c-0.5,0.8-1.2,1.2-2.2,1.2c-0.9,0-1.6-0.3-2.1-0.9c-0.5-0.6-0.8-1.5-0.8-2.5
		c0-1.2,0.3-2.1,0.9-2.8c0.6-0.7,1.4-1,2.3-1c0.9,0,1.5,0.3,1.9,1h0V57h2.2V63.2z M315.5,60.6v-0.6c0-0.4-0.1-0.8-0.4-1.1
		c-0.3-0.3-0.6-0.5-1-0.5c-0.5,0-0.9,0.2-1.1,0.6s-0.4,0.9-0.4,1.6c0,0.6,0.1,1,0.4,1.4s0.6,0.5,1.1,0.5c0.4,0,0.8-0.2,1.1-0.5
		C315.3,61.7,315.5,61.2,315.5,60.6z"/>
</g>
<g>
	<g>
		<line class="st5" x1="198.7" y1="60" x2="226.3" y2="60"/>
		<g>
			<polygon points="223,64.1 222.3,63.4 226,60 222.3,56.6 223,55.9 227.4,60 			"/>
		</g>
	</g>
</g>
<g>
	<path d="M417.5,63.7c-0.7,0.3-1.6,0.5-2.8,0.5c-1.5,0-2.7-0.4-3.5-1.3s-1.3-2.1-1.3-3.5c0-1.6,0.5-2.8,1.5-3.8c1-1,2.2-1.5,3.8-1.5
		c1,0,1.8,0.1,2.4,0.4v2.1c-0.7-0.4-1.4-0.6-2.2-0.6c-0.9,0-1.7,0.3-2.2,0.9c-0.6,0.6-0.8,1.4-0.8,2.4c0,0.9,0.3,1.7,0.8,2.3
		s1.3,0.8,2.2,0.8c0.9,0,1.7-0.2,2.4-0.6V63.7z"/>
	<path d="M422.3,64.2c-1.2,0-2.1-0.3-2.8-1c-0.7-0.7-1-1.5-1-2.7c0-1.2,0.3-2.1,1-2.7c0.7-0.7,1.6-1,2.8-1c1.2,0,2.1,0.3,2.7,1
		c0.7,0.7,1,1.5,1,2.6c0,1.2-0.3,2.1-1,2.8C424.5,63.8,423.5,64.2,422.3,64.2z M422.4,58.5c-0.5,0-0.9,0.2-1.2,0.5
		c-0.3,0.4-0.4,0.8-0.4,1.5c0,1.3,0.5,2,1.6,2c1,0,1.6-0.7,1.6-2.1C424,59.1,423.4,58.5,422.4,58.5z"/>
	<path d="M434.3,64h-2.2v-3.9c0-1.1-0.4-1.6-1.2-1.6c-0.4,0-0.7,0.1-0.9,0.4c-0.2,0.3-0.4,0.7-0.4,1.1v4h-2.2v-7h2.2v1.1h0
		c0.5-0.9,1.3-1.3,2.2-1.3c1.5,0,2.3,1,2.3,2.9V64z"/>
	<path d="M440.6,55.3c-0.3-0.1-0.5-0.2-0.8-0.2c-0.7,0-1,0.4-1,1.1V57h1.6v1.6h-1.6V64h-2.2v-5.4h-1.2V57h1.2v-0.9
		c0-0.8,0.3-1.4,0.8-1.9s1.2-0.7,2.1-0.7c0.4,0,0.8,0,1.1,0.1V55.3z"/>
	<path d="M442.5,55.9c-0.4,0-0.7-0.1-0.9-0.3s-0.3-0.5-0.3-0.8c0-0.3,0.1-0.6,0.3-0.8s0.5-0.3,0.9-0.3c0.4,0,0.7,0.1,0.9,0.3
		c0.2,0.2,0.3,0.5,0.3,0.8c0,0.3-0.1,0.6-0.3,0.8C443.2,55.8,442.9,55.9,442.5,55.9z M443.6,64h-2.2v-7h2.2V64z"/>
	<path d="M449.9,58.9c-0.3-0.1-0.6-0.2-0.9-0.2c-0.5,0-0.8,0.2-1.1,0.5c-0.3,0.3-0.4,0.8-0.4,1.4V64h-2.2v-7h2.2v1.3h0
		c0.3-0.9,1-1.4,1.8-1.4c0.2,0,0.4,0,0.5,0.1V58.9z"/>
	<path d="M462.1,64h-2.2v-4c0-1-0.4-1.5-1.1-1.5c-0.4,0-0.6,0.2-0.9,0.5c-0.2,0.3-0.3,0.7-0.3,1.1V64h-2.2v-4c0-1-0.4-1.5-1.1-1.5
		c-0.4,0-0.7,0.1-0.9,0.4c-0.2,0.3-0.3,0.7-0.3,1.2V64H451v-7h2.2v1.1h0c0.2-0.4,0.5-0.7,0.9-0.9s0.8-0.4,1.3-0.4c1,0,1.7,0.4,2,1.3
		c0.5-0.9,1.3-1.3,2.4-1.3c1.5,0,2.3,0.9,2.3,2.8V64z"/>
</g>
<g>
	<g>
		<line class="st5" x1="347.4" y1="60" x2="375" y2="60"/>
		<g>
			<polygon points="371.7,64.1 371,63.4 374.7,60 371,56.6 371.7,55.9 376.1,60 			"/>
		</g>
	</g>
</g>
<g>
	<g>
		<line class="st5" x1="376.1" y1="208.7" x2="348.5" y2="208.7"/>
		<g>
			<polygon points="351.8,204.6 352.5,205.4 348.9,208.7 352.5,212.1 351.8,212.8 347.4,208.7 			"/>
		</g>
	</g>
</g>
<g>
	<path d="M419.6,212.4c-0.7,0.3-1.7,0.5-2.8,0.5c-1.5,0-2.7-0.4-3.5-1.3c-0.9-0.9-1.3-2.1-1.3-3.5c0-1.6,0.5-2.8,1.5-3.8
		c1-1,2.2-1.5,3.8-1.5c1,0,1.8,0.1,2.4,0.4v2.1c-0.7-0.4-1.4-0.6-2.2-0.6c-0.9,0-1.7,0.3-2.2,0.9c-0.6,0.6-0.8,1.4-0.8,2.4
		c0,0.9,0.3,1.7,0.8,2.3c0.5,0.6,1.3,0.8,2.2,0.8c0.9,0,1.6-0.2,2.4-0.6V212.4z"/>
	<path d="M427.8,212.7h-2.2v-4c0-1-0.4-1.5-1.1-1.5c-0.4,0-0.7,0.1-0.9,0.4c-0.2,0.3-0.4,0.7-0.4,1.1v4h-2.2v-10.4h2.2v4.4h0
		c0.5-0.8,1.2-1.2,2.2-1.2c1.6,0,2.4,1,2.4,2.9V212.7z"/>
	<path d="M435.3,212.7h-2v-1h0c-0.5,0.8-1.2,1.2-2.1,1.2c-0.7,0-1.2-0.2-1.6-0.6c-0.4-0.4-0.6-0.9-0.6-1.5c0-1.4,0.8-2.1,2.4-2.4
		l1.9-0.3c0-0.8-0.4-1.1-1.2-1.1c-0.8,0-1.6,0.2-2.4,0.7v-1.6c0.3-0.2,0.7-0.3,1.2-0.4c0.5-0.1,1-0.2,1.4-0.2c2,0,3,1,3,3V212.7z
		 M433.3,209.9v-0.5l-1.3,0.2c-0.7,0.1-1.1,0.4-1.1,1c0,0.2,0.1,0.4,0.3,0.6s0.4,0.2,0.7,0.2c0.4,0,0.7-0.1,1-0.4
		C433.2,210.6,433.3,210.3,433.3,209.9z"/>
	<path d="M443.8,212.7h-2.2v-3.9c0-1.1-0.4-1.6-1.2-1.6c-0.4,0-0.7,0.1-0.9,0.4c-0.2,0.3-0.4,0.7-0.4,1.1v4H437v-7h2.2v1.1h0
		c0.5-0.9,1.3-1.3,2.2-1.3c1.5,0,2.3,1,2.3,2.9V212.7z"/>
	<path d="M452.4,211.9c0,1.3-0.4,2.3-1.1,3c-0.8,0.7-1.8,1.1-3.3,1.1c-0.9,0-1.7-0.1-2.2-0.4v-1.8c0.7,0.4,1.4,0.6,2.2,0.6
		c0.7,0,1.3-0.2,1.7-0.6c0.4-0.4,0.6-0.9,0.6-1.6v-0.6h0c-0.5,0.8-1.2,1.2-2.2,1.2c-0.9,0-1.6-0.3-2.1-0.9c-0.5-0.6-0.8-1.5-0.8-2.5
		c0-1.2,0.3-2.1,0.9-2.8c0.6-0.7,1.4-1,2.3-1c0.9,0,1.5,0.3,1.9,1h0v-0.8h2.2V211.9z M450.2,209.3v-0.6c0-0.4-0.1-0.8-0.4-1.1
		c-0.3-0.3-0.6-0.5-1-0.5c-0.5,0-0.9,0.2-1.1,0.6c-0.3,0.4-0.4,0.9-0.4,1.6c0,0.6,0.1,1,0.4,1.4c0.3,0.3,0.6,0.5,1.1,0.5
		c0.4,0,0.8-0.2,1.1-0.5C450.1,210.4,450.2,209.9,450.2,209.3z"/>
	<path d="M460.5,209.8h-4.6c0.1,1,0.7,1.5,1.9,1.5c0.8,0,1.4-0.2,2-0.5v1.6c-0.6,0.3-1.5,0.5-2.5,0.5c-1.1,0-2-0.3-2.6-0.9
		c-0.6-0.6-0.9-1.5-0.9-2.6c0-1.2,0.3-2.1,1-2.8c0.7-0.7,1.5-1,2.5-1c1,0,1.8,0.3,2.4,0.9c0.6,0.6,0.8,1.4,0.8,2.5V209.8z
		 M458.5,208.5c0-1-0.4-1.5-1.2-1.5c-0.3,0-0.6,0.1-0.9,0.4s-0.4,0.6-0.5,1.1H458.5z"/>
</g>
<g>
	<g>
		<line class="st5" x1="436.1" y1="120" x2="436.1" y2="147.6"/>
		<g>
			<polygon points="432,144.3 432.8,143.6 436.1,147.2 439.5,143.6 440.2,144.3 436.1,148.7 			"/>
		</g>
	</g>
</g>
<g>
	<path d="M263.3,212.3v-2.2c0.4,0.3,0.8,0.6,1.3,0.7c0.5,0.2,0.9,0.3,1.4,0.3c0.3,0,0.5,0,0.7-0.1c0.2-0.1,0.4-0.1,0.5-0.2
		c0.1-0.1,0.2-0.2,0.3-0.3c0.1-0.1,0.1-0.3,0.1-0.4c0-0.2-0.1-0.4-0.2-0.5s-0.3-0.3-0.4-0.4c-0.2-0.1-0.4-0.3-0.7-0.4
		c-0.3-0.1-0.5-0.2-0.8-0.4c-0.8-0.3-1.3-0.7-1.7-1.2c-0.4-0.5-0.6-1-0.6-1.7c0-0.5,0.1-0.9,0.3-1.3c0.2-0.4,0.5-0.7,0.8-0.9
		c0.4-0.2,0.8-0.4,1.2-0.5c0.5-0.1,1-0.2,1.5-0.2c0.5,0,1,0,1.4,0.1c0.4,0.1,0.8,0.2,1.1,0.3v2c-0.2-0.1-0.3-0.2-0.5-0.3
		c-0.2-0.1-0.4-0.2-0.6-0.2c-0.2-0.1-0.4-0.1-0.6-0.1c-0.2,0-0.4,0-0.6,0c-0.3,0-0.5,0-0.7,0.1s-0.4,0.1-0.5,0.2
		c-0.1,0.1-0.3,0.2-0.3,0.3c-0.1,0.1-0.1,0.3-0.1,0.4c0,0.2,0,0.3,0.1,0.4c0.1,0.1,0.2,0.3,0.4,0.4c0.2,0.1,0.4,0.2,0.6,0.3
		c0.2,0.1,0.5,0.2,0.8,0.3c0.4,0.2,0.7,0.3,1.1,0.5c0.3,0.2,0.6,0.4,0.8,0.6c0.2,0.2,0.4,0.5,0.5,0.8c0.1,0.3,0.2,0.6,0.2,1
		c0,0.5-0.1,1-0.3,1.4c-0.2,0.4-0.5,0.7-0.8,0.9c-0.4,0.2-0.8,0.4-1.2,0.5c-0.5,0.1-1,0.2-1.5,0.2c-0.5,0-1,0-1.5-0.1
		C264,212.7,263.6,212.5,263.3,212.3z"/>
	<path d="M278,212.7h-2.2v-1.1h0c-0.5,0.8-1.2,1.2-2.1,1.2c-1.6,0-2.4-1-2.4-2.9v-4.2h2.2v4c0,1,0.4,1.5,1.2,1.5
		c0.4,0,0.7-0.1,0.9-0.4c0.2-0.3,0.3-0.6,0.3-1.1v-4h2.2V212.7z"/>
	<path d="M285.1,212.5c-0.5,0.3-1.2,0.4-2.1,0.4c-1.1,0-1.9-0.3-2.6-1c-0.7-0.7-1-1.5-1-2.5c0-1.2,0.4-2.1,1.1-2.8
		c0.7-0.7,1.7-1,2.9-1c0.8,0,1.4,0.1,1.8,0.3v1.8c-0.5-0.3-1-0.5-1.5-0.5c-0.6,0-1.1,0.2-1.5,0.5s-0.5,0.9-0.5,1.5
		c0,0.6,0.2,1.1,0.5,1.5c0.3,0.4,0.8,0.5,1.4,0.5c0.5,0,1.1-0.2,1.6-0.5V212.5z"/>
	<path d="M291.8,212.5c-0.5,0.3-1.2,0.4-2.1,0.4c-1.1,0-1.9-0.3-2.6-1c-0.7-0.7-1-1.5-1-2.5c0-1.2,0.4-2.1,1.1-2.8
		c0.7-0.7,1.7-1,2.9-1c0.8,0,1.4,0.1,1.8,0.3v1.8c-0.5-0.3-1-0.5-1.5-0.5c-0.6,0-1.1,0.2-1.5,0.5s-0.5,0.9-0.5,1.5
		c0,0.6,0.2,1.1,0.5,1.5c0.3,0.4,0.8,0.5,1.4,0.5c0.5,0,1.1-0.2,1.6-0.5V212.5z"/>
	<path d="M299.5,209.8H295c0.1,1,0.7,1.5,1.9,1.5c0.8,0,1.4-0.2,2-0.5v1.6c-0.6,0.3-1.5,0.5-2.5,0.5c-1.1,0-2-0.3-2.6-0.9
		c-0.6-0.6-0.9-1.5-0.9-2.6c0-1.2,0.3-2.1,1-2.8c0.7-0.7,1.5-1,2.5-1c1,0,1.8,0.3,2.4,0.9c0.6,0.6,0.8,1.4,0.8,2.5V209.8z
		 M297.5,208.5c0-1-0.4-1.5-1.2-1.5c-0.3,0-0.6,0.1-0.9,0.4s-0.4,0.6-0.5,1.1H297.5z"/>
	<path d="M300.4,212.5v-1.8c0.4,0.2,0.7,0.4,1.1,0.5c0.4,0.1,0.7,0.2,1,0.2c0.4,0,0.7-0.1,0.9-0.2c0.2-0.1,0.3-0.3,0.3-0.5
		c0-0.1-0.1-0.3-0.2-0.3c-0.1-0.1-0.2-0.2-0.4-0.2s-0.3-0.1-0.5-0.2c-0.2-0.1-0.4-0.1-0.5-0.2c-0.3-0.1-0.5-0.2-0.7-0.3
		c-0.2-0.1-0.4-0.3-0.5-0.4c-0.1-0.2-0.3-0.3-0.3-0.6c-0.1-0.2-0.1-0.5-0.1-0.7c0-0.4,0.1-0.7,0.3-1c0.2-0.3,0.4-0.5,0.7-0.7
		c0.3-0.2,0.6-0.3,1-0.4c0.4-0.1,0.7-0.1,1.1-0.1c0.3,0,0.6,0,0.9,0.1c0.3,0,0.6,0.1,0.9,0.2v1.7c-0.3-0.2-0.6-0.3-0.9-0.4
		c-0.3-0.1-0.6-0.1-0.9-0.1c-0.1,0-0.3,0-0.4,0c-0.1,0-0.2,0.1-0.3,0.1s-0.2,0.1-0.2,0.2s-0.1,0.2-0.1,0.3c0,0.1,0,0.2,0.1,0.3
		c0.1,0.1,0.2,0.2,0.3,0.2c0.1,0.1,0.3,0.1,0.4,0.2c0.2,0.1,0.3,0.1,0.5,0.2c0.3,0.1,0.5,0.2,0.8,0.3c0.2,0.1,0.4,0.3,0.6,0.4
		c0.2,0.2,0.3,0.3,0.4,0.6c0.1,0.2,0.1,0.5,0.1,0.8c0,0.4-0.1,0.8-0.3,1.1c-0.2,0.3-0.4,0.5-0.7,0.7c-0.3,0.2-0.6,0.3-1,0.4
		c-0.4,0.1-0.8,0.1-1.2,0.1C301.7,212.9,301,212.8,300.4,212.5z"/>
	<path d="M306.5,212.5v-1.8c0.4,0.2,0.7,0.4,1.1,0.5c0.4,0.1,0.7,0.2,1,0.2c0.4,0,0.7-0.1,0.9-0.2c0.2-0.1,0.3-0.3,0.3-0.5
		c0-0.1-0.1-0.3-0.2-0.3c-0.1-0.1-0.2-0.2-0.4-0.2s-0.3-0.1-0.5-0.2c-0.2-0.1-0.4-0.1-0.5-0.2c-0.3-0.1-0.5-0.2-0.7-0.3
		c-0.2-0.1-0.4-0.3-0.5-0.4c-0.1-0.2-0.3-0.3-0.3-0.6c-0.1-0.2-0.1-0.5-0.1-0.7c0-0.4,0.1-0.7,0.3-1c0.2-0.3,0.4-0.5,0.7-0.7
		c0.3-0.2,0.6-0.3,1-0.4c0.4-0.1,0.7-0.1,1.1-0.1c0.3,0,0.6,0,0.9,0.1c0.3,0,0.6,0.1,0.9,0.2v1.7c-0.3-0.2-0.6-0.3-0.9-0.4
		c-0.3-0.1-0.6-0.1-0.9-0.1c-0.1,0-0.3,0-0.4,0c-0.1,0-0.2,0.1-0.3,0.1s-0.2,0.1-0.2,0.2s-0.1,0.2-0.1,0.3c0,0.1,0,0.2,0.1,0.3
		c0.1,0.1,0.2,0.2,0.3,0.2c0.1,0.1,0.3,0.1,0.4,0.2c0.2,0.1,0.3,0.1,0.5,0.2c0.3,0.1,0.5,0.2,0.8,0.3c0.2,0.1,0.4,0.3,0.6,0.4
		c0.2,0.2,0.3,0.3,0.4,0.6c0.1,0.2,0.1,0.5,0.1,0.8c0,0.4-0.1,0.8-0.3,1.1c-0.2,0.3-0.4,0.5-0.7,0.7c-0.3,0.2-0.6,0.3-1,0.4
		c-0.4,0.1-0.8,0.1-1.2,0.1C307.9,212.9,307.2,212.8,306.5,212.5z"/>
</g>
<g>
	<g>
		<line class="st5" x1="393.2" y1="101.7" x2="330" y2="164.9"/>
		<g>
			<polygon points="329.4,159.6 330.4,159.7 330.2,164.6 335.2,164.4 335.2,165.4 329.2,165.6 			"/>
		</g>
	</g>
</g>
<g>
	<g>
		<path class="st5" d="M496.1,207.6c21.5-17.5,35.2-44.2,35.2-74.1c0-29.3-13.2-55.5-33.9-73"/>
		<g>
			<polygon points="502.6,59.5 502.6,60.5 497.7,60.7 498.2,65.6 497.2,65.7 496.6,59.7 			"/>
		</g>
	</g>
</g>
</svg>
